<?xml version="1.0" standalone="no"?>
<!DOCTYPE svg PUBLIC "-//W3C//DTD SVG 1.1//EN" "http://www.w3.org/Graphics/SVG/1.1/DTD/svg11.dtd" >
<svg xmlns="http://www.w3.org/2000/svg" xmlns:xlink="http://www.w3.org/1999/xlink" version="1.1">
<metadata>
Created by FontForge 20141024 at Tue May 12 22:49:24 2015
 By System Administrator
Part of the Neutraface collection from House Industries
</metadata>
<defs>
<font id="NeutrafaceDisplay-Titling" horiz-adv-x="272" >
  <font-face 
    font-family="Neutra Display Titling"
    font-weight="900"
    font-stretch="normal"
    units-per-em="1000"
    panose-1="2 0 6 0 4 0 0 2 0 4"
    ascent="780"
    descent="-220"
    x-height="680"
    cap-height="680"
    bbox="-45 -295 1642 967"
    underline-thickness="20"
    underline-position="-113"
    stemh="153"
    stemv="182"
    unicode-range="U+000D-FB04"
  />
<missing-glyph horiz-adv-x="500" 
 />
    <glyph glyph-name=".notdef" horiz-adv-x="500" 
 />
    <glyph glyph-name="space" unicode=" " horiz-adv-x="242" 
 />
    <glyph glyph-name="exclam" unicode="!" horiz-adv-x="302" 
d="M77 230l-20 450h188l-20 -450h-148zM151 -10c-53 0 -100 40 -100 98s47 98 100 98c52 0 100 -40 100 -98s-48 -98 -100 -98z" />
    <glyph glyph-name="quotedbl" unicode="&#x22;" horiz-adv-x="426" 
d="M247 443l-15 237h170l-17 -237h-138zM41 443l-17 237h170l-17 -237h-136z" />
    <glyph glyph-name="numbersign" unicode="#" horiz-adv-x="565" 
d="M128 458h-59v132h89l20 90h124l-20 -90h78l20 90h124l-20 -90h59v-132h-89c1 0 -18 -83 -18 -83h60v-132h-89l-20 -90h-124l20 90h-78l-20 -90h-124l20 90h-59v132h88zM330 458h-78c1 0 -18 -83 -18 -83h78z" />
    <glyph glyph-name="dollar" unicode="$" horiz-adv-x="591" 
d="M261 -9c-125 8 -207 71 -249 130l129 97c28 -39 66 -70 120 -78v133l-46 15c-104 35 -170 93 -170 202c0 128 110 189 216 197v86h73v-88c92 -11 149 -52 181 -94l-102 -104c-19 21 -40 42 -79 50v-119l33 -11c150 -52 196 -118 196 -220c0 -113 -85 -184 -229 -195v-108
h-73v107zM261 538c-32 -6 -48 -21 -48 -45c0 -25 14 -36 48 -49v94zM334 141c38 7 57 24 57 52c0 26 -16 40 -57 55v-107z" />
    <glyph glyph-name="percent" unicode="%" horiz-adv-x="969" 
d="M433 488c0 -116 -96 -200 -207 -200s-206 84 -206 200s95 200 206 200s207 -84 207 -200zM205 0l427 680h132l-427 -680h-132zM949 190c0 -116 -96 -200 -207 -200s-206 84 -206 200s95 200 206 200s207 -84 207 -200zM160 488c0 -43 27 -73 66 -73s67 30 67 73
c0 44 -28 73 -67 73s-66 -29 -66 -73zM676 190c0 -43 27 -73 66 -73s67 30 67 73c0 44 -28 73 -67 73s-66 -29 -66 -73z" />
    <glyph glyph-name="ampersand" unicode="&#x26;" horiz-adv-x="689" 
d="M394 364l82 -103c14 28 22 59 24 94h152c-3 -85 -32 -158 -78 -217l109 -138h-211l-25 31c-48 -26 -105 -41 -167 -41c-151 0 -262 75 -262 200c0 101 56 152 151 198c-28 46 -42 95 -42 134c0 101 83 166 199 166c115 0 191 -59 191 -154c0 -76 -39 -124 -123 -170z
M320 458c30 19 48 40 48 68c0 27 -13 41 -37 41s-40 -9 -40 -39c0 -25 8 -43 29 -70zM356 147l-111 140c-30 -23 -41 -47 -41 -79c0 -44 28 -73 89 -73c21 0 42 4 63 12z" />
    <glyph glyph-name="quoteright" unicode="&#x2019;" 
d="M58 401l37 105c-37 12 -59 46 -59 87c0 57 46 95 98 95c54 0 102 -38 102 -95c0 -35 -14 -68 -39 -103l-63 -89h-76z" />
    <glyph glyph-name="parenleft" unicode="(" horiz-adv-x="351" 
d="M229 -62c-85 70 -193 198 -193 403c0 204 108 333 193 403l105 -82c-71 -89 -115 -174 -115 -321s47 -235 118 -324z" />
    <glyph glyph-name="parenright" unicode=")" horiz-adv-x="351" 
d="M122 -62l-108 79c71 89 118 177 118 324s-44 232 -115 321l105 82c85 -70 193 -199 193 -403c0 -205 -108 -333 -193 -403z" />
    <glyph glyph-name="asterisk" unicode="*" horiz-adv-x="376" 
d="M140 600l-15 80h124l-14 -82l59 50l59 -110l-75 -24l75 -24l-59 -110l-59 50l14 -82h-124l15 80l-58 -48l-59 110l75 24l-75 24l59 110s30 -25 58 -48z" />
    <glyph glyph-name="plus" unicode="+" horiz-adv-x="423" 
d="M288 256v-119h-153v119h-108v145h108v119h153v-119h108v-145h-108z" />
    <glyph glyph-name="comma" unicode="," 
d="M61 -113l34 117c-37 12 -59 46 -59 87c0 57 46 95 98 95c54 0 102 -38 102 -95c0 -35 -16 -65 -39 -103l-60 -101h-76z" />
    <glyph glyph-name="hyphen" unicode="-" horiz-adv-x="316" 
d="M36 214v145h244v-145h-244z" />
    <glyph glyph-name="hyphen" unicode="&#xad;" horiz-adv-x="316" 
d="M36 214v145h244v-145h-244z" />
    <glyph glyph-name="period" unicode="." 
d="M136 -10c-53 0 -100 40 -100 98s47 98 100 98c52 0 100 -40 100 -98s-48 -98 -100 -98z" />
    <glyph glyph-name="slash" unicode="/" horiz-adv-x="491" 
d="M19 0l287 680h166l-287 -680h-166z" />
    <glyph glyph-name="zero" unicode="0" horiz-adv-x="782" 
d="M391 -9c-196 0 -365 144 -365 349s169 348 365 348s365 -143 365 -348s-169 -349 -365 -349zM391 149c114 0 179 84 179 191s-65 190 -179 190s-179 -83 -179 -190s65 -191 179 -191z" />
    <glyph glyph-name="one" unicode="1" horiz-adv-x="367" 
d="M118 0v527h-97v153h279v-680h-182z" />
    <glyph glyph-name="two" unicode="2" horiz-adv-x="579" 
d="M12 0c-9 0 -11 6 -3 14l294 314c37 41 69 80 69 129c0 44 -31 76 -81 76c-51 0 -93 -40 -103 -105l-163 48c31 134 129 212 271 212c145 0 253 -83 253 -216c0 -86 -45 -152 -111 -222l-95 -101h202v-149h-533z" />
    <glyph glyph-name="three" unicode="3" horiz-adv-x="605" 
d="M296 -10c-142 0 -242 71 -286 159l149 77c21 -45 58 -82 125 -82c69 0 111 36 111 95c0 61 -42 95 -119 95c-43 0 -75 -7 -100 -16c-9 -3 -17 1 -11 10l142 199h-234v153h501c5 0 7 -3 3 -8l-170 -228c89 -17 172 -82 172 -213c0 -143 -110 -241 -283 -241z" />
    <glyph glyph-name="four" unicode="4" horiz-adv-x="665" 
d="M554 118v-118h-174v118h-346v138l333 424h187v-418h78v-144h-78zM380 262v206l-162 -206h162z" />
    <glyph glyph-name="five" unicode="5" horiz-adv-x="593" 
d="M282 -10c-135 0 -229 62 -272 146l146 81c17 -31 57 -72 120 -72c61 0 105 30 105 88c0 67 -49 94 -126 94c-73 0 -133 -28 -167 -50c-11 -7 -15 -4 -15 5v398h428v-153h-279v-72c13 5 37 10 77 10c175 0 268 -97 268 -231c0 -148 -113 -244 -285 -244z" />
    <glyph glyph-name="six" unicode="6" horiz-adv-x="612" 
d="M310 474c173 15 278 -106 278 -232c0 -143 -120 -252 -283 -252c-160 0 -279 109 -279 248c0 72 23 131 63 188l178 254h188zM304 138c65 0 103 50 103 104c0 55 -37 105 -103 105c-64 0 -103 -48 -103 -105c0 -54 39 -104 103 -104z" />
    <glyph glyph-name="seven" unicode="7" horiz-adv-x="586" 
d="M79 0l244 527h-298v153h550c5 0 7 -2 3 -11l-307 -669h-192z" />
    <glyph glyph-name="eight" unicode="8" horiz-adv-x="605" 
d="M150 397c-37 29 -62 70 -62 123c0 94 83 168 215 168s214 -74 214 -168c0 -53 -25 -94 -62 -122c76 -34 126 -97 126 -185c0 -121 -98 -223 -278 -223s-279 102 -279 223c0 88 49 151 126 184zM303 441c40 0 63 29 63 59s-23 58 -63 58c-41 0 -64 -28 -64 -58
s23 -59 64 -59zM303 131c67 0 105 43 105 96s-38 95 -105 95s-106 -42 -106 -95c0 -56 39 -96 106 -96z" />
    <glyph glyph-name="nine" unicode="9" horiz-adv-x="612" 
d="M290 202c-166 -8 -266 113 -266 236c0 143 120 252 283 252c160 0 279 -109 279 -248c0 -72 -29 -132 -71 -188l-190 -254h-188zM308 542c-65 0 -103 -50 -103 -104c0 -55 37 -105 103 -105c64 0 103 48 103 105c0 54 -39 104 -103 104z" />
    <glyph glyph-name="colon" unicode=":" horiz-adv-x="278" 
d="M139 267c-53 0 -100 40 -100 98s47 98 100 98c52 0 100 -40 100 -98s-48 -98 -100 -98zM139 -10c-53 0 -100 40 -100 98s47 98 100 98c52 0 100 -40 100 -98s-48 -98 -100 -98z" />
    <glyph glyph-name="semicolon" unicode=";" horiz-adv-x="278" 
d="M139 267c-53 0 -100 40 -100 98s47 98 100 98c52 0 100 -40 100 -98s-48 -98 -100 -98zM64 -113l34 117c-37 12 -59 46 -59 87c0 57 46 95 98 95c54 0 102 -38 102 -95c0 -35 -16 -65 -39 -103l-60 -101h-76z" />
    <glyph glyph-name="semicolon" unicode="&#x37e;" horiz-adv-x="278" 
d="M139 267c-53 0 -100 40 -100 98s47 98 100 98c52 0 100 -40 100 -98s-48 -98 -100 -98zM64 -113l34 117c-37 12 -59 46 -59 87c0 57 46 95 98 95c54 0 102 -38 102 -95c0 -35 -16 -65 -39 -103l-60 -101h-76z" />
    <glyph glyph-name="less" unicode="&#x3c;" horiz-adv-x="418" 
d="M391 96l-364 210c-9 5 -9 11 0 16l364 210v-159l-122 -59l122 -59v-159z" />
    <glyph glyph-name="equal" unicode="=" horiz-adv-x="423" 
d="M27 346v145h369v-145h-369zM27 146v145h369v-145h-369z" />
    <glyph glyph-name="greater" unicode="&#x3e;" horiz-adv-x="418" 
d="M27 532l364 -210c9 -5 9 -11 0 -16l-364 -210v159l122 59l-122 59v159z" />
    <glyph glyph-name="question" unicode="?" horiz-adv-x="519" 
d="M158 230v176h74c56 0 82 26 82 69c0 40 -28 63 -70 63c-45 0 -72 -22 -92 -59l-141 77c35 73 117 132 241 132c148 0 245 -81 245 -195c0 -113 -54 -178 -171 -201v-62h-168zM241 -10c-53 0 -100 40 -100 98s47 98 100 98c52 0 100 -40 100 -98s-48 -98 -100 -98z" />
    <glyph glyph-name="at" unicode="@" horiz-adv-x="770" 
d="M404 -24c-213 0 -381 134 -381 356c0 210 169 356 367 356c209 0 357 -136 357 -329c0 -140 -73 -210 -163 -210c-59 0 -103 17 -125 53c-30 -39 -66 -53 -120 -53c-89 0 -166 76 -166 179c0 104 77 180 166 180c50 0 76 -13 94 -35v26h148v-192c0 -38 11 -53 30 -53
c22 0 48 24 48 103c0 162 -98 250 -272 250c-164 0 -272 -113 -272 -275s106 -274 286 -274c49 0 99 8 140 29l40 -72c-50 -29 -111 -39 -177 -39zM380 272c30 0 54 21 54 56c0 34 -24 57 -54 57c-31 0 -56 -23 -56 -57c0 -35 25 -56 56 -56z" />
    <glyph glyph-name="A" unicode="A" horiz-adv-x="681" 
d="M207 58l-25 -58h-178l331 692c3 7 9 7 12 0l330 -692h-188l-26 58c1 0 -256 0 -256 0zM403 194l-70 158l-68 -158h138z" />
    <glyph glyph-name="B" unicode="B" horiz-adv-x="638" 
d="M59 0v680h278c135 0 223 -62 223 -166c0 -76 -34 -111 -78 -132c74 -21 137 -74 137 -178c0 -130 -101 -204 -270 -204h-290zM235 429h88c40 0 58 20 58 52s-16 55 -56 55h-90v-107zM235 144h110c70 0 92 30 92 77s-23 76 -92 76h-110v-153z" />
    <glyph glyph-name="C" unicode="C" horiz-adv-x="690" 
d="M679 153c-67 -113 -161 -162 -299 -162c-191 0 -354 144 -354 349s162 348 344 348c147 0 237 -62 294 -146l-137 -93c-26 40 -68 81 -154 81c-100 0 -161 -83 -161 -190s63 -191 167 -191c88 0 131 40 160 94z" />
    <glyph glyph-name="D" unicode="D" horiz-adv-x="688" 
d="M59 0v680h263c196 0 344 -129 344 -340s-148 -340 -344 -340h-263zM241 154h61c110 0 178 73 178 186s-68 186 -178 186h-61v-372z" />
    <glyph glyph-name="E" unicode="E" horiz-adv-x="579" 
d="M59 0v680h477v-153h-295v-158h246v-145h-246v-71h309v-153h-491z" />
    <glyph glyph-name="F" unicode="F" horiz-adv-x="552" 
d="M59 0v680h462v-153h-280v-158h247v-153h-247v-216h-182z" />
    <glyph glyph-name="G" unicode="G" horiz-adv-x="720" 
d="M526 171v58h-135v140h297v-284c-63 -52 -145 -94 -296 -94c-200 0 -366 144 -366 349s166 348 362 348c120 0 214 -45 273 -121l-127 -110c-34 44 -82 73 -150 73c-111 0 -172 -83 -172 -190s62 -196 182 -196c66 0 103 13 132 27z" />
    <glyph glyph-name="H" unicode="H" horiz-adv-x="718" 
d="M477 369v311h182v-680h-182v216h-236v-216h-182v680h182v-311h236z" />
    <glyph glyph-name="I" unicode="I" horiz-adv-x="308" 
d="M63 0v680h182v-680h-182z" />
    <glyph glyph-name="J" unicode="J" horiz-adv-x="486" 
d="M432 680v-489c0 -128 -77 -201 -208 -201c-115 0 -183 47 -218 113l137 88c14 -24 29 -45 60 -45c29 0 47 16 47 58v476h182z" />
    <glyph glyph-name="K" unicode="K" horiz-adv-x="682" 
d="M241 398l210 282h197l-226 -295l253 -385h-215l-162 247c1 0 -38 -47 -57 -70v-177h-182v680h182v-282z" />
    <glyph glyph-name="L" unicode="L" horiz-adv-x="555" 
d="M59 0v680h182v-527h289v-153h-471z" />
    <glyph glyph-name="M" unicode="M" horiz-adv-x="827" 
d="M41 0l40 687c1 7 5 6 9 1l326 -366l321 366c4 5 8 6 9 -1l40 -687h-179l-16 290l-170 -197c-3 -3 -6 -3 -9 0l-177 198l-16 -291h-178z" />
    <glyph glyph-name="N" unicode="N" horiz-adv-x="730" 
d="M657 -12l-427 351v-339h-171v689c0 6 3 11 14 2l427 -352v341h171v-690c0 -8 -3 -11 -14 -2z" />
    <glyph glyph-name="O" unicode="O" horiz-adv-x="782" 
d="M391 -9c-196 0 -365 144 -365 349s169 348 365 348s365 -143 365 -348s-169 -349 -365 -349zM391 149c114 0 179 84 179 191s-65 190 -179 190s-179 -83 -179 -190s65 -191 179 -191z" />
    <glyph glyph-name="P" unicode="P" horiz-adv-x="628" 
d="M241 147v-147h-182v680h258c183 0 286 -116 286 -267s-103 -266 -286 -266h-76zM241 301h67c82 0 112 46 112 112s-30 113 -112 113h-67v-225z" />
    <glyph glyph-name="Q" unicode="Q" horiz-adv-x="782" 
d="M466 -2v-122h-150v122c-162 32 -290 164 -290 342c0 205 169 348 365 348s365 -143 365 -348c0 -178 -128 -310 -290 -342zM316 158v121h150v-121c67 27 104 94 104 182c0 107 -65 190 -179 190s-179 -83 -179 -190c0 -88 37 -155 104 -182z" />
    <glyph glyph-name="R" unicode="R" horiz-adv-x="629" 
d="M480 193l121 -193h-197l-95 156h-68v-156h-182v680h258c183 0 286 -116 286 -267c0 -98 -43 -176 -123 -220zM241 301h67c82 0 112 46 112 112s-30 113 -112 113h-67v-225z" />
    <glyph glyph-name="S" unicode="S" horiz-adv-x="568" 
d="M286 -10c-153 0 -240 70 -282 126l132 99c33 -41 74 -74 142 -74c54 0 86 16 86 54c0 29 -22 43 -67 58l-80 27c-99 33 -169 93 -169 205c0 134 111 203 232 203c120 0 186 -43 226 -90l-104 -109c-28 29 -58 49 -112 49c-44 0 -66 -20 -66 -47c0 -26 15 -39 48 -50
l90 -30c136 -45 182 -110 182 -206c0 -125 -78 -215 -258 -215z" />
    <glyph glyph-name="T" unicode="T" horiz-adv-x="588" 
d="M203 0v527h-180v153h542v-153h-180v-527h-182z" />
    <glyph glyph-name="U" unicode="U" horiz-adv-x="694" 
d="M347 -10c-170 0 -295 90 -295 273v417h182v-415c0 -77 36 -121 113 -121s113 44 113 121v415h182v-417c0 -183 -125 -273 -295 -273z" />
    <glyph glyph-name="V" unicode="V" horiz-adv-x="661" 
d="M657 680l-321 -687c-3 -6 -9 -6 -12 0l-320 687h194l139 -317l135 317h185z" />
    <glyph glyph-name="W" unicode="W" horiz-adv-x="936" 
d="M469 357l-168 -365c-3 -7 -9 -7 -12 0l-285 688h191l127 -319l146 332c2 5 6 5 8 0l153 -332l121 319h182l-281 -688c-3 -8 -8 -8 -12 0z" />
    <glyph glyph-name="X" unicode="X" horiz-adv-x="687" 
d="M244 365l-198 315h203l101 -172l102 172h189l-197 -307l234 -373h-203l-137 230l-140 -230h-189z" />
    <glyph glyph-name="Y" unicode="Y" horiz-adv-x="706" 
d="M264 235l-260 445h200l154 -277l153 277h191l-256 -440v-240h-182v235z" />
    <glyph glyph-name="Z" unicode="Z" horiz-adv-x="613" 
d="M14 0c-6 0 -8 2 -3 10l301 517h-250v153h529c6 0 8 -2 3 -10l-301 -517h276v-153h-555z" />
    <glyph glyph-name="bracketleft" unicode="[" horiz-adv-x="358" 
d="M59 0v680h265v-144h-93v-392h93v-144h-265z" />
    <glyph glyph-name="backslash" unicode="\" horiz-adv-x="491" 
d="M472 0h-166l-287 680h166z" />
    <glyph glyph-name="bracketright" unicode="]" horiz-adv-x="358" 
d="M299 680v-680h-265v144h93v392h-93v144h265z" />
    <glyph glyph-name="asciicircum" unicode="^" horiz-adv-x="316" 
d="M36 214v145h244v-145h-244z" />
    <glyph glyph-name="underscore" unicode="_" horiz-adv-x="350" 
d="M-2 -184v147h354v-147h-354z" />
    <glyph glyph-name="quoteleft" unicode="&#x2018;" 
d="M214 680l-37 -105c37 -12 59 -46 59 -87c0 -57 -46 -95 -98 -95c-54 0 -102 38 -102 95c0 35 14 68 39 103l63 89h76z" />
    <glyph glyph-name="a" unicode="a" horiz-adv-x="681" 
d="M207 58l-25 -58h-178l331 692c3 7 9 7 12 0l330 -692h-188l-26 58c1 0 -256 0 -256 0zM403 194l-70 158l-68 -158h138z" />
    <glyph glyph-name="b" unicode="b" horiz-adv-x="638" 
d="M59 0v680h278c135 0 223 -62 223 -166c0 -76 -34 -111 -78 -132c74 -21 137 -74 137 -178c0 -130 -101 -204 -270 -204h-290zM235 429h88c40 0 58 20 58 52s-16 55 -56 55h-90v-107zM235 144h110c70 0 92 30 92 77s-23 76 -92 76h-110v-153z" />
    <glyph glyph-name="c" unicode="c" horiz-adv-x="690" 
d="M679 153c-67 -113 -161 -162 -299 -162c-191 0 -354 144 -354 349s162 348 344 348c147 0 237 -62 294 -146l-137 -93c-26 40 -68 81 -154 81c-100 0 -161 -83 -161 -190s63 -191 167 -191c88 0 131 40 160 94z" />
    <glyph glyph-name="d" unicode="d" horiz-adv-x="688" 
d="M59 0v680h263c196 0 344 -129 344 -340s-148 -340 -344 -340h-263zM241 154h61c110 0 178 73 178 186s-68 186 -178 186h-61v-372z" />
    <glyph glyph-name="e" unicode="e" horiz-adv-x="579" 
d="M59 0v680h477v-153h-295v-158h246v-145h-246v-71h309v-153h-491z" />
    <glyph glyph-name="f" unicode="f" horiz-adv-x="552" 
d="M59 0v680h462v-153h-280v-158h247v-153h-247v-216h-182z" />
    <glyph glyph-name="g" unicode="g" horiz-adv-x="741" 
d="M524 229h-131v140h321c0 -4 1 -15 1 -29c0 -232 -133 -350 -334 -350c-193 0 -355 145 -355 350s160 348 352 348c131 0 235 -58 288 -153l-145 -88c-26 46 -70 83 -146 83c-108 0 -163 -83 -163 -190s58 -192 170 -192c83 0 121 30 142 81z" />
    <glyph glyph-name="h" unicode="h" horiz-adv-x="718" 
d="M477 369v311h182v-680h-182v216h-236v-216h-182v680h182v-311h236z" />
    <glyph glyph-name="i" unicode="i" horiz-adv-x="308" 
d="M63 0v680h182v-680h-182z" />
    <glyph glyph-name="j" unicode="j" horiz-adv-x="486" 
d="M432 680v-489c0 -128 -77 -201 -208 -201c-115 0 -183 47 -218 113l137 88c14 -24 29 -45 60 -45c29 0 47 16 47 58v476h182z" />
    <glyph glyph-name="k" unicode="k" horiz-adv-x="671" 
d="M241 370l209 310h202s-268 -382 -269 -382l282 -298h-236l-188 205v-205h-182v680h182v-310z" />
    <glyph glyph-name="l" unicode="l" horiz-adv-x="555" 
d="M59 0v680h182v-527h289v-153h-471z" />
    <glyph glyph-name="m" unicode="m" horiz-adv-x="830" 
d="M59 0v692c0 6 4 7 9 2l349 -337l345 337c4 4 9 3 9 -2v-692h-182v313l-171 -169c-4 -4 -5 -4 -9 0l-168 169v-313h-182z" />
    <glyph glyph-name="n" unicode="n" horiz-adv-x="730" 
d="M657 -12l-427 351v-339h-171v689c0 6 3 11 14 2l427 -352v341h171v-690c0 -8 -3 -11 -14 -2z" />
    <glyph glyph-name="o" unicode="o" horiz-adv-x="782" 
d="M391 -9c-196 0 -365 144 -365 349s169 348 365 348s365 -143 365 -348s-169 -349 -365 -349zM391 149c114 0 179 84 179 191s-65 190 -179 190s-179 -83 -179 -190s65 -191 179 -191z" />
    <glyph glyph-name="p" unicode="p" horiz-adv-x="628" 
d="M241 147v-147h-182v680h258c183 0 286 -116 286 -267s-103 -266 -286 -266h-76zM241 301h67c82 0 112 46 112 112s-30 113 -112 113h-67v-225z" />
    <glyph glyph-name="q" unicode="q" horiz-adv-x="782" 
d="M674 121l81 -81l-105 -105l-94 94c-50 -24 -107 -38 -165 -38c-196 0 -365 144 -365 349s169 348 365 348s365 -143 365 -348c0 -85 -31 -160 -82 -219zM437 149l-63 63l106 105l72 -73c12 28 18 60 18 96c0 107 -65 190 -179 190s-179 -83 -179 -190
c0 -116 65 -196 179 -196c16 0 32 2 46 5z" />
    <glyph glyph-name="r" unicode="r" horiz-adv-x="629" 
d="M480 193l121 -193h-197l-95 156h-68v-156h-182v680h258c183 0 286 -116 286 -267c0 -98 -43 -176 -123 -220zM241 301h67c82 0 112 46 112 112s-30 113 -112 113h-67v-225z" />
    <glyph glyph-name="s" unicode="s" horiz-adv-x="568" 
d="M286 -10c-153 0 -240 70 -282 126l132 99c33 -41 74 -74 142 -74c54 0 86 16 86 54c0 29 -22 43 -67 58l-80 27c-99 33 -169 93 -169 205c0 134 111 203 232 203c120 0 186 -43 226 -90l-104 -109c-28 29 -58 49 -112 49c-44 0 -66 -20 -66 -47c0 -26 15 -39 48 -50
l90 -30c136 -45 182 -110 182 -206c0 -125 -78 -215 -258 -215z" />
    <glyph glyph-name="t" unicode="t" horiz-adv-x="588" 
d="M203 0v527h-180v153h542v-153h-180v-527h-182z" />
    <glyph glyph-name="u" unicode="u" horiz-adv-x="694" 
d="M347 -10c-170 0 -295 90 -295 273v417h182v-415c0 -77 36 -121 113 -121s113 44 113 121v415h182v-417c0 -183 -125 -273 -295 -273z" />
    <glyph glyph-name="v" unicode="v" horiz-adv-x="661" 
d="M657 680l-321 -687c-3 -6 -9 -6 -12 0l-320 687h194l139 -317l135 317h185z" />
    <glyph glyph-name="w" unicode="w" horiz-adv-x="936" 
d="M469 357l-168 -365c-3 -7 -9 -7 -12 0l-285 688h191l127 -319l146 332c2 5 6 5 8 0l153 -332l121 319h182l-281 -688c-3 -8 -8 -8 -12 0z" />
    <glyph glyph-name="x" unicode="x" horiz-adv-x="676" 
d="M244 365l-198 315h203l101 -172l102 172h189l-197 -307l234 -373h-203l-137 230l-140 -230h-189z" />
    <glyph glyph-name="y" unicode="y" horiz-adv-x="706" 
d="M264 235l-260 445h200l154 -277l153 277h191l-256 -440v-240h-182v235z" />
    <glyph glyph-name="z" unicode="z" horiz-adv-x="613" 
d="M14 0c-6 0 -8 2 -3 10l301 517h-250v153h529c6 0 8 -2 3 -10l-301 -517h276v-153h-555z" />
    <glyph glyph-name="braceleft" unicode="{" horiz-adv-x="414" 
d="M259 0c-71 0 -144 35 -144 134v81c0 36 -15 53 -48 53h-40v144h40c33 0 48 17 48 53v81c0 99 73 134 144 134h121v-144h-63c-19 0 -30 -7 -30 -32v-79c0 -57 -30 -78 -68 -85c38 -7 68 -30 68 -85v-79c0 -25 11 -32 30 -32h63v-144h-121z" />
    <glyph glyph-name="bar" unicode="|" horiz-adv-x="254" 
d="M50 -70v820h154v-820h-154z" />
    <glyph glyph-name="braceright" unicode="}" horiz-adv-x="414" 
d="M155 0h-121v144h63c19 0 30 7 30 32v79c0 55 30 78 68 85c-38 7 -68 28 -68 85v79c0 25 -11 32 -30 32h-63v144h121c71 0 144 -35 144 -134v-81c0 -36 15 -53 48 -53h40v-144h-40c-33 0 -48 -17 -48 -53v-81c0 -99 -73 -134 -144 -134z" />
    <glyph glyph-name="asciitilde" unicode="~" horiz-adv-x="484" 
d="M314 186c-66 0 -100 40 -128 40c-19 0 -29 -13 -35 -36l-129 17c15 109 80 175 148 175c66 0 100 -40 128 -40c19 0 29 13 35 36l129 -17c-15 -109 -80 -175 -148 -175z" />
    <glyph glyph-name="exclamdown" unicode="&#xa1;" horiz-adv-x="302" 
d="M151 690c53 0 100 -40 100 -98s-47 -98 -100 -98c-52 0 -100 40 -100 98s48 98 100 98zM225 450l20 -450h-188l20 450h148z" />
    <glyph glyph-name="cent" unicode="&#xa2;" horiz-adv-x="497" 
d="M319 97v-97h-73v97c-126 15 -220 111 -220 238s94 224 220 238v106h73v-106c73 -8 124 -40 159 -85l-113 -96c-10 14 -24 28 -46 35c0 1 0 -187 0 -187c24 7 38 20 50 32l114 -95c-39 -44 -92 -73 -164 -80zM246 243v182c-33 -14 -54 -46 -54 -90c0 -45 20 -78 54 -92z
" />
    <glyph glyph-name="sterling" unicode="&#xa3;" horiz-adv-x="635" 
d="M195 273h-113v123h53c-12 28 -20 58 -20 91c0 99 79 201 239 201c116 0 186 -55 222 -125l-138 -87c-21 37 -39 58 -84 58c-41 0 -62 -24 -62 -56c0 -25 7 -52 17 -82h163v-123h-120c10 -32 16 -64 16 -96v-12c26 -14 47 -19 79 -19c47 0 68 10 93 34l98 -115
c-50 -56 -106 -75 -178 -75c-65 0 -112 23 -154 51c-38 -33 -89 -51 -144 -51c-74 0 -150 37 -150 125c0 83 65 125 128 125c30 0 51 -4 71 -9c-4 14 -10 28 -16 42zM213 117c-20 12 -37 20 -53 20c-22 0 -33 -10 -33 -22s11 -22 32 -22c24 0 40 10 54 24z" />
    <glyph glyph-name="fraction" unicode="&#x2044;" horiz-adv-x="469" 
d="M-45 0l407 680h152l-407 -680h-152z" />
    <glyph glyph-name="fraction" unicode="&#x2215;" horiz-adv-x="469" 
d="M-45 0l407 680h152l-407 -680h-152z" />
    <glyph glyph-name="yen" unicode="&#xa5;" horiz-adv-x="724" 
d="M201 370l-188 310h196l159 -284l157 284h186l-187 -310h126v-124h-198v-44h198v-124h-198v-78h-178v78h-192v124h192v44h-192v124h119z" />
    <glyph glyph-name="florin" unicode="&#x192;" horiz-adv-x="450" 
d="M88 238h-60v132h75l16 136c15 130 86 182 181 182c76 0 120 -29 148 -61l-90 -102c-8 11 -18 17 -34 17c-17 0 -31 -9 -35 -41l-15 -131h89v-132h-104l-41 -362h-171z" />
    <glyph glyph-name="section" unicode="&#xa7;" horiz-adv-x="591" 
d="M122 386c-26 31 -41 69 -41 114c0 98 73 188 216 188c112 0 173 -47 211 -108l-126 -88c-20 26 -41 44 -81 44c-27 0 -46 -8 -46 -31c0 -18 19 -29 40 -35l108 -31c127 -36 160 -101 160 -185c0 -57 -29 -93 -85 -125c21 -31 33 -67 33 -108c0 -104 -92 -171 -231 -171
c-105 0 -182 29 -239 90l113 108c23 -23 65 -45 114 -45c44 0 63 8 63 31c0 16 -13 23 -41 30l-98 26c-130 34 -164 91 -164 166c0 66 47 108 94 130zM386 204c12 4 21 15 21 32c0 22 -9 36 -43 45l-123 33c-14 4 -28 9 -40 14c-12 -7 -17 -17 -17 -35c0 -21 15 -34 43 -41
l115 -32c15 -4 30 -10 44 -16z" />
    <glyph glyph-name="quotesingle" unicode="'" horiz-adv-x="218" 
d="M41 443l-17 237h170l-17 -237h-136z" />
    <glyph glyph-name="quotedblleft" unicode="&#x201c;" horiz-adv-x="512" 
d="M454 680l-37 -105c37 -12 59 -46 59 -87c0 -57 -46 -95 -98 -95c-54 0 -102 38 -102 95c0 35 14 68 39 103l63 89h76zM214 680l-37 -105c37 -12 59 -46 59 -87c0 -57 -46 -95 -98 -95c-54 0 -102 38 -102 95c0 35 14 68 39 103l63 89h76z" />
    <glyph glyph-name="guillemotleft" unicode="&#xab;" horiz-adv-x="511" 
d="M328 69l-82 176c-1 3 -1 5 0 8l82 174h168l-83 -178l83 -180h-168zM101 69l-82 176c-1 3 -1 5 0 8l82 174h168l-83 -178l83 -180h-168z" />
    <glyph glyph-name="guilsinglleft" unicode="&#x2039;" horiz-adv-x="284" 
d="M101 69l-82 176c-1 3 -1 5 0 8l82 174h168l-83 -178l83 -180h-168z" />
    <glyph glyph-name="guilsinglright" unicode="&#x203a;" horiz-adv-x="284" 
d="M183 427l82 -176c1 -3 1 -5 0 -8l-82 -174h-168l83 178l-83 180h168z" />
    <glyph glyph-name="fi" unicode="&#xfb01;" horiz-adv-x="864" 
d="M619 0v680h182v-680h-182zM59 0v680h462v-153h-280v-158h247v-153h-247v-216h-182z" />
    <glyph glyph-name="fl" unicode="&#xfb02;" horiz-adv-x="1111" 
d="M615 0v680h182v-527h289v-153h-471zM59 0v680h462v-153h-280v-158h247v-153h-247v-216h-182z" />
    <glyph glyph-name="endash" unicode="&#x2013;" horiz-adv-x="406" 
d="M36 224v125h334v-125h-334z" />
    <glyph glyph-name="dagger" unicode="&#x2020;" horiz-adv-x="345" 
d="M95 446h-78v136h78v98h155v-98h78v-136h-78v-202h-155v202z" />
    <glyph glyph-name="daggerdbl" unicode="&#x2021;" horiz-adv-x="345" 
d="M95 317h-78v126h78v38h-78v126h78v73h155v-73h78v-126h-78v-38h78v-126h-78v-73h-155v73z" />
    <glyph glyph-name="periodcentered" unicode="&#xb7;" 
d="M136 210c-53 0 -100 40 -100 98s47 98 100 98c52 0 100 -40 100 -98s-48 -98 -100 -98z" />
    <glyph glyph-name="periodcentered" unicode="&#x2219;" 
d="M136 210c-53 0 -100 40 -100 98s47 98 100 98c52 0 100 -40 100 -98s-48 -98 -100 -98z" />
    <glyph glyph-name="paragraph" unicode="&#xb6;" horiz-adv-x="671" 
d="M244 264h-8c-126 0 -214 98 -214 208s88 208 214 208h376v-680h-157v537h-54v-537h-157v264z" />
    <glyph glyph-name="bullet" unicode="&#x2022;" horiz-adv-x="316" 
d="M158 167c-70 0 -133 58 -133 133c0 76 63 133 133 133s133 -57 133 -133c0 -75 -63 -133 -133 -133z" />
    <glyph glyph-name="quotesinglbase" unicode="&#x201a;" 
d="M58 -101l37 105c-37 12 -59 46 -59 87c0 57 46 95 98 95c54 0 102 -38 102 -95c0 -35 -14 -68 -39 -103l-63 -89h-76z" />
    <glyph glyph-name="quotedblbase" unicode="&#x201e;" horiz-adv-x="512" 
d="M298 -101l37 105c-37 12 -59 46 -59 87c0 57 46 95 98 95c54 0 102 -38 102 -95c0 -35 -14 -68 -39 -103l-63 -89h-76zM58 -101l37 105c-37 12 -59 46 -59 87c0 57 46 95 98 95c54 0 102 -38 102 -95c0 -35 -14 -68 -39 -103l-63 -89h-76z" />
    <glyph glyph-name="quotedblright" unicode="&#x201d;" horiz-adv-x="512" 
d="M298 401l37 105c-37 12 -59 46 -59 87c0 57 46 95 98 95c54 0 102 -38 102 -95c0 -35 -14 -68 -39 -103l-63 -89h-76zM58 401l37 105c-37 12 -59 46 -59 87c0 57 46 95 98 95c54 0 102 -38 102 -95c0 -35 -14 -68 -39 -103l-63 -89h-76z" />
    <glyph glyph-name="guillemotright" unicode="&#xbb;" horiz-adv-x="511" 
d="M410 427l82 -176c1 -3 1 -5 0 -8l-82 -174h-168l83 178l-83 180h168zM183 427l82 -176c1 -3 1 -5 0 -8l-82 -174h-168l83 178l-83 180h168z" />
    <glyph glyph-name="ellipsis" unicode="&#x2026;" horiz-adv-x="772" 
d="M636 -10c-53 0 -100 40 -100 98s47 98 100 98c52 0 100 -40 100 -98s-48 -98 -100 -98zM386 -10c-53 0 -100 40 -100 98s47 98 100 98c52 0 100 -40 100 -98s-48 -98 -100 -98zM136 -10c-53 0 -100 40 -100 98s47 98 100 98c52 0 100 -40 100 -98s-48 -98 -100 -98z" />
    <glyph glyph-name="perthousand" unicode="&#x2030;" horiz-adv-x="1413" 
d="M433 488c0 -116 -96 -200 -207 -200s-206 84 -206 200s95 200 206 200s207 -84 207 -200zM205 0l427 680h132l-427 -680h-132zM1393 190c0 -116 -96 -200 -207 -200s-206 84 -206 200s95 200 206 200s207 -84 207 -200zM949 190c0 -116 -96 -200 -207 -200
s-206 84 -206 200s95 200 206 200s207 -84 207 -200zM160 488c0 -43 27 -73 66 -73s67 30 67 73c0 44 -28 73 -67 73s-66 -29 -66 -73zM1120 190c0 -43 27 -73 66 -73s67 30 67 73c0 44 -28 73 -67 73s-66 -29 -66 -73zM676 190c0 -43 27 -73 66 -73s67 30 67 73
c0 44 -28 73 -67 73s-66 -29 -66 -73z" />
    <glyph glyph-name="questiondown" unicode="&#xbf;" horiz-adv-x="519" 
d="M278 688c53 0 100 -40 100 -98s-47 -98 -100 -98c-52 0 -100 40 -100 98s48 98 100 98zM361 448v-176h-74c-56 0 -82 -26 -82 -69c0 -40 28 -63 70 -63c45 0 72 22 92 59l141 -77c-35 -73 -117 -132 -241 -132c-148 0 -245 81 -245 195c0 113 54 178 171 201v62h168z" />
    <glyph glyph-name="grave" unicode="`" horiz-adv-x="500" 
d="M203 722l-95 182h188l40 -182h-133z" />
    <glyph glyph-name="acute" unicode="&#xb4;" horiz-adv-x="500" 
d="M297 722h-133l40 182h188z" />
    <glyph glyph-name="circumflex" unicode="&#x2c6;" horiz-adv-x="500" 
d="M85 722l160 210c3 4 6 4 9 0l160 -210h-127l-37 39l-38 -39h-127z" />
    <glyph glyph-name="tilde" unicode="&#x2dc;" horiz-adv-x="500" 
d="M311 717c-50 0 -86 39 -107 39c-17 0 -24 -12 -30 -34l-110 14c14 104 69 150 125 150c50 0 86 -39 107 -39c17 0 24 12 30 34l110 -14c-13 -102 -69 -150 -125 -150z" />
    <glyph glyph-name="macron" unicode="&#xaf;" horiz-adv-x="500" 
d="M128 722v126h244v-126h-244z" />
    <glyph glyph-name="macron" unicode="&#x2c9;" horiz-adv-x="500" 
d="M128 722v126h244v-126h-244z" />
    <glyph glyph-name="breve" unicode="&#x2d8;" horiz-adv-x="500" 
d="M250 715c-100 0 -152 71 -161 138l114 10c4 -16 19 -31 47 -31s43 15 47 31l114 -10c-9 -67 -61 -138 -161 -138z" />
    <glyph glyph-name="dotaccent" unicode="&#x2d9;" horiz-adv-x="500" 
d="M250 717c-41 0 -80 35 -80 80s39 80 80 80c42 0 79 -35 79 -80s-37 -80 -79 -80z" />
    <glyph glyph-name="dieresis" unicode="&#xa8;" horiz-adv-x="500" 
d="M346 717c-40 0 -79 35 -79 80s39 80 79 80c42 0 80 -35 80 -80s-38 -80 -80 -80zM154 717c-41 0 -80 35 -80 80s39 80 80 80c42 0 79 -35 79 -80s-37 -80 -79 -80z" />
    <glyph glyph-name="ring" unicode="&#x2da;" horiz-adv-x="500" 
d="M250 716c-79 0 -137 58 -137 125c0 68 58 126 137 126s137 -58 137 -126c0 -67 -58 -125 -137 -125zM250 799c22 0 39 17 39 42s-17 42 -39 42s-39 -17 -39 -42s17 -42 39 -42z" />
    <glyph glyph-name="cedilla" unicode="&#xb8;" horiz-adv-x="500" 
d="M254 -232c-61 0 -99 20 -124 60l71 47c7 -13 19 -24 37 -24c15 0 29 6 29 25c0 16 -12 26 -36 26h-35v98h82v-32c48 -8 87 -43 87 -102c0 -61 -57 -98 -111 -98z" />
    <glyph glyph-name="hungarumlaut" unicode="&#x2dd;" horiz-adv-x="500" 
d="M424 722h-133l40 182h174zM220 722h-133l40 182h174z" />
    <glyph glyph-name="ogonek" unicode="&#x2db;" horiz-adv-x="500" 
d="M231 -232c-72 0 -118 37 -118 98c0 66 50 110 86 134h100c-51 -44 -84 -81 -84 -120c0 -16 12 -23 25 -23c17 0 31 13 39 25l71 -52c-25 -40 -60 -62 -119 -62z" />
    <glyph glyph-name="caron" unicode="&#x2c7;" horiz-adv-x="500" 
d="M415 923l-160 -210c-3 -4 -6 -4 -9 0l-160 210h127l37 -39l38 39h127z" />
    <glyph glyph-name="emdash" unicode="&#x2014;" horiz-adv-x="706" 
d="M36 224v125h634v-125h-634z" />
    <glyph glyph-name="AE" unicode="&#xc6;" horiz-adv-x="975" 
d="M457 59h-217l-43 -59h-196l509 680h422v-153h-295v-158h246v-153h-246v-63h309v-153h-489v59zM337 192h120v163s-119 -163 -120 -163z" />
    <glyph glyph-name="ordfeminine" unicode="&#xaa;" horiz-adv-x="460" 
d="M161 295c1 0 -13 -32 -13 -32h-140l217 418c3 6 8 6 11 0l216 -418h-146l-14 32h-131zM254 384l-28 65l-27 -65h55z" />
    <glyph glyph-name="Lslash" unicode="&#x141;" horiz-adv-x="555" 
d="M241 238v-85h289v-153h-471v173l-58 -21v155l58 21v352h182v-287l151 54v-155z" />
    <glyph glyph-name="Oslash" unicode="&#xd8;" horiz-adv-x="782" 
d="M692 540c40 -55 64 -123 64 -200c0 -205 -169 -349 -365 -349c-75 0 -146 21 -205 59l-72 -70l-95 90l71 69c-40 55 -64 124 -64 201c0 205 169 348 365 348c75 0 146 -21 205 -59l72 70l95 -90s-71 -68 -71 -69zM222 266l255 247c-24 11 -53 17 -86 17
c-114 0 -179 -83 -179 -190c0 -27 3 -51 10 -74zM560 413l-255 -247c24 -11 53 -17 86 -17c114 0 179 84 179 191c0 26 -3 51 -10 73z" />
    <glyph glyph-name="OE" unicode="&#x152;" horiz-adv-x="969" 
d="M926 680v-153h-295v-158h246v-153h-246v-63h309v-153h-570c-196 0 -344 129 -344 340s148 340 344 340h556zM451 526h-61c-110 0 -178 -73 -178 -186s68 -186 178 -186h61v372z" />
    <glyph glyph-name="ordmasculine" unicode="&#xba;" horiz-adv-x="492" 
d="M246 255c-122 0 -228 90 -228 217s106 216 228 216c121 0 228 -89 228 -216s-107 -217 -228 -217zM246 383c53 0 83 39 83 89c0 49 -30 88 -83 88s-83 -39 -83 -88c0 -50 30 -89 83 -89z" />
    <glyph glyph-name="ae" unicode="&#xe6;" horiz-adv-x="937" 
d="M465 62h-261l-25 -62h-175l315 680h391v-153h-284l75 -158h290v-153h-217l30 -63h308v-153h-420zM258 195h148l-77 174z" />
    <glyph glyph-name="dotlessi" unicode="&#x131;" horiz-adv-x="308" 
d="M63 0v680h182v-680h-182z" />
    <glyph glyph-name="lslash" unicode="&#x142;" horiz-adv-x="555" 
d="M241 238v-85h289v-153h-471v173l-58 -21v155l58 21v352h182v-287l151 54v-155z" />
    <glyph glyph-name="oslash" unicode="&#xf8;" horiz-adv-x="782" 
d="M692 540c40 -55 64 -123 64 -200c0 -205 -169 -349 -365 -349c-75 0 -146 21 -205 59l-72 -70l-95 90l71 69c-40 55 -64 124 -64 201c0 205 169 348 365 348c75 0 146 -21 205 -59l72 70l95 -90s-71 -68 -71 -69zM222 266l255 247c-24 11 -53 17 -86 17
c-114 0 -179 -83 -179 -190c0 -27 3 -51 10 -74zM560 413l-255 -247c24 -11 53 -17 86 -17c114 0 179 84 179 191c0 26 -3 51 -10 73z" />
    <glyph glyph-name="oe" unicode="&#x153;" horiz-adv-x="969" 
d="M926 680v-153h-295v-158h246v-153h-246v-63h309v-153h-570c-196 0 -344 129 -344 340s148 340 344 340h556zM451 526h-61c-110 0 -178 -73 -178 -186s68 -186 178 -186h61v372z" />
    <glyph glyph-name="germandbls" unicode="&#xdf;" horiz-adv-x="1136" 
d="M854 -10c-153 0 -236 65 -282 126l132 99c33 -41 74 -73 141 -73c59 0 87 15 87 53c0 29 -17 41 -67 58l-80 27c-99 33 -169 93 -169 205c0 134 111 203 232 203c120 0 186 -43 226 -90l-104 -109c-28 29 -58 48 -114 48c-43 0 -64 -17 -64 -46c0 -26 15 -39 48 -50
l90 -30c136 -45 182 -110 182 -206c0 -125 -78 -215 -258 -215zM286 -10c-153 0 -236 65 -282 126l132 99c33 -41 74 -73 141 -73c59 0 87 15 87 53c0 29 -17 41 -67 58l-80 27c-99 33 -169 93 -169 205c0 134 111 203 232 203c120 0 186 -43 226 -90l-104 -109
c-28 29 -58 48 -114 48c-43 0 -64 -17 -64 -46c0 -26 15 -39 48 -50l90 -30c136 -45 182 -110 182 -206c0 -125 -78 -215 -258 -215z" />
    <glyph glyph-name="onesuperior" unicode="&#xb9;" 
d="M136 210c-53 0 -100 40 -100 98s47 98 100 98c52 0 100 -40 100 -98s-48 -98 -100 -98z" />
    <glyph glyph-name="logicalnot" unicode="&#xac;" 
d="M136 210c-53 0 -100 40 -100 98s47 98 100 98c52 0 100 -40 100 -98s-48 -98 -100 -98z" />
    <glyph glyph-name="mu" unicode="&#xb5;" 
d="M136 210c-53 0 -100 40 -100 98s47 98 100 98c52 0 100 -40 100 -98s-48 -98 -100 -98z" />
    <glyph glyph-name="mu" unicode="&#x3bc;" 
d="M136 210c-53 0 -100 40 -100 98s47 98 100 98c52 0 100 -40 100 -98s-48 -98 -100 -98z" />
    <glyph glyph-name="trademark" unicode="&#x2122;" horiz-adv-x="552" 
d="M252 452v227c0 8 5 8 11 2l117 -116l116 116c6 6 11 6 11 -2v-227h-81v64l-42 -43c-3 -3 -4 -3 -7 0l-43 43v-64h-82zM77 604h-58v76h200v-76h-56v-152h-86v152z" />
    <glyph glyph-name="Eth" unicode="&#xd0;" horiz-adv-x="688" 
d="M59 222h-53v147h53v311h263c196 0 344 -129 344 -340s-148 -340 -344 -340h-263v222zM241 369h128v-147h-128v-68h61c110 0 178 73 178 186s-68 186 -178 186h-61v-157z" />
    <glyph glyph-name="onehalf" unicode="&#xbd;" 
d="M136 210c-53 0 -100 40 -100 98s47 98 100 98c52 0 100 -40 100 -98s-48 -98 -100 -98z" />
    <glyph glyph-name="Thorn" unicode="&#xde;" horiz-adv-x="628" 
d="M241 78v-78h-182v680h182v-69h76c183 0 286 -116 286 -267s-103 -266 -286 -266h-76zM241 457v-225h67c82 0 112 46 112 112s-30 113 -112 113h-67z" />
    <glyph glyph-name="onequarter" unicode="&#xbc;" 
d="M136 210c-53 0 -100 40 -100 98s47 98 100 98c52 0 100 -40 100 -98s-48 -98 -100 -98z" />
    <glyph glyph-name="divide" unicode="&#xf7;" 
d="M136 210c-53 0 -100 40 -100 98s47 98 100 98c52 0 100 -40 100 -98s-48 -98 -100 -98z" />
    <glyph glyph-name="brokenbar" unicode="&#xa6;" 
d="M136 210c-53 0 -100 40 -100 98s47 98 100 98c52 0 100 -40 100 -98s-48 -98 -100 -98z" />
    <glyph glyph-name="degree" unicode="&#xb0;" horiz-adv-x="341" 
d="M171 401c-85 0 -153 65 -153 144c0 81 68 143 153 143s152 -62 152 -143c0 -79 -67 -144 -152 -144zM171 494c28 0 48 20 48 51c0 29 -20 50 -48 50c-29 0 -49 -21 -49 -50c0 -31 20 -51 49 -51z" />
    <glyph glyph-name="thorn" unicode="&#xfe;" horiz-adv-x="628" 
d="M241 78v-78h-182v680h182v-69h76c183 0 286 -116 286 -267s-103 -266 -286 -266h-76zM241 457v-225h67c82 0 112 46 112 112s-30 113 -112 113h-67z" />
    <glyph glyph-name="threequarters" unicode="&#xbe;" 
d="M136 210c-53 0 -100 40 -100 98s47 98 100 98c52 0 100 -40 100 -98s-48 -98 -100 -98z" />
    <glyph glyph-name="twosuperior" unicode="&#xb2;" 
d="M136 210c-53 0 -100 40 -100 98s47 98 100 98c52 0 100 -40 100 -98s-48 -98 -100 -98z" />
    <glyph glyph-name="registered" unicode="&#xae;" horiz-adv-x="391" 
d="M195 356c-93 0 -169 70 -169 166c0 98 76 167 169 167c94 0 170 -69 170 -167c0 -96 -76 -166 -170 -166zM195 393c75 0 131 54 131 129c0 78 -56 131 -131 131s-129 -53 -129 -131c0 -75 54 -129 129 -129zM246 490l30 -55h-61l-23 43h-10v-43h-57v178h73
c50 0 80 -34 80 -66c0 -25 -12 -45 -32 -57zM182 524h15c10 0 23 2 23 20c0 15 -13 19 -23 19h-15v-39z" />
    <glyph glyph-name="minus" unicode="&#x2212;" 
d="M136 210c-53 0 -100 40 -100 98s47 98 100 98c52 0 100 -40 100 -98s-48 -98 -100 -98z" />
    <glyph glyph-name="eth" unicode="&#xf0;" horiz-adv-x="688" 
d="M59 222h-53v147h53v311h263c196 0 344 -129 344 -340s-148 -340 -344 -340h-263v222zM241 369h128v-147h-128v-68h61c110 0 178 73 178 186s-68 186 -178 186h-61v-157z" />
    <glyph glyph-name="multiply" unicode="&#xd7;" 
d="M136 210c-53 0 -100 40 -100 98s47 98 100 98c52 0 100 -40 100 -98s-48 -98 -100 -98z" />
    <glyph glyph-name="threesuperior" unicode="&#xb3;" 
d="M136 210c-53 0 -100 40 -100 98s47 98 100 98c52 0 100 -40 100 -98s-48 -98 -100 -98z" />
    <glyph glyph-name="copyright" unicode="&#xa9;" horiz-adv-x="758" 
d="M379 -8c-188 0 -349 147 -349 348s161 348 349 348s349 -147 349 -348s-161 -348 -349 -348zM379 61c153 0 277 118 277 279s-124 279 -277 279s-277 -118 -277 -279s124 -279 277 -279zM381 127c-117 0 -216 89 -216 213s99 215 216 215c75 0 129 -29 166 -82l-110 -89
c-13 18 -28 29 -53 29c-42 0 -67 -30 -67 -73c0 -42 26 -71 68 -71c29 0 45 14 57 30l113 -85c-36 -54 -94 -87 -174 -87z" />
    <glyph glyph-name="Aacute" unicode="&#xc1;" horiz-adv-x="681" 
d="M207 58l-25 -58h-178l331 692c3 7 9 7 12 0l330 -692h-188l-26 58c1 0 -256 0 -256 0zM403 194l-70 158l-68 -158h138zM407 722h-133l40 182h188z" />
    <glyph glyph-name="Acircumflex" unicode="&#xc2;" horiz-adv-x="681" 
d="M207 58l-25 -58h-178l331 692c3 7 9 7 12 0l330 -692h-188l-26 58c1 0 -256 0 -256 0zM403 194l-70 158l-68 -158h138zM175 722l160 210c3 4 6 4 9 0l160 -210h-127l-37 39l-38 -39h-127z" />
    <glyph glyph-name="Adieresis" unicode="&#xc4;" horiz-adv-x="681" 
d="M536 528c-40 0 -79 35 -79 80s39 80 79 80c42 0 80 -35 80 -80s-38 -80 -80 -80zM144 528c-41 0 -80 35 -80 80s39 80 80 80c42 0 79 -35 79 -80s-37 -80 -79 -80zM207 58l-25 -58h-178l331 692c3 7 9 7 12 0l330 -692h-188l-26 58c1 0 -256 0 -256 0zM403 194l-70 158
l-68 -158h138z" />
    <glyph glyph-name="Agrave" unicode="&#xc0;" horiz-adv-x="681" 
d="M207 58l-25 -58h-178l331 692c3 7 9 7 12 0l330 -692h-188l-26 58c1 0 -256 0 -256 0zM403 194l-70 158l-68 -158h138zM273 722l-95 182h188l40 -182h-133z" />
    <glyph glyph-name="Aring" unicode="&#xc5;" horiz-adv-x="681" 
d="M207 58l-25 -58h-178l297 622c-58 15 -98 64 -98 120c0 68 58 126 137 126s137 -58 137 -126c0 -55 -39 -104 -97 -120l297 -622h-188l-26 58c1 0 -256 0 -256 0zM340 700c22 0 39 17 39 42s-17 42 -39 42s-39 -17 -39 -42s17 -42 39 -42zM403 194l-70 158l-68 -158h138z
" />
    <glyph glyph-name="Atilde" unicode="&#xc3;" horiz-adv-x="681" 
d="M207 58l-25 -58h-178l331 692c3 7 9 7 12 0l330 -692h-188l-26 58c1 0 -256 0 -256 0zM403 194l-70 158l-68 -158h138zM401 717c-50 0 -86 39 -107 39c-17 0 -24 -12 -30 -34l-110 14c14 104 69 150 125 150c50 0 86 -39 107 -39c17 0 24 12 30 34l110 -14
c-13 -102 -69 -150 -125 -150z" />
    <glyph glyph-name="Ccedilla" unicode="&#xc7;" horiz-adv-x="686" 
d="M298 0c-153 35 -272 165 -272 340c0 205 162 348 344 348c147 0 237 -62 294 -146l-137 -93c-26 40 -68 81 -154 81c-100 0 -161 -83 -161 -190s63 -191 167 -191c88 0 131 40 160 94l140 -90c-67 -113 -161 -162 -299 -162h-9v-23c48 -8 87 -43 87 -102
c0 -61 -57 -98 -111 -98c-61 0 -99 20 -124 60l71 47c7 -13 19 -24 37 -24c15 0 29 6 29 25c0 16 -12 26 -36 26h-35v98h9z" />
    <glyph glyph-name="Eacute" unicode="&#xc9;" horiz-adv-x="579" 
d="M59 0v680h477v-153h-295v-158h246v-145h-246v-71h309v-153h-491zM334 722h-133l40 182h188z" />
    <glyph glyph-name="Ecircumflex" unicode="&#xca;" horiz-adv-x="579" 
d="M59 0v680h477v-153h-295v-158h246v-145h-246v-71h309v-153h-491zM122 722l160 210c3 4 6 4 9 0l160 -210h-127l-37 39l-38 -39h-127z" />
    <glyph glyph-name="Edieresis" unicode="&#xcb;" horiz-adv-x="579" 
d="M59 0v680h477v-153h-295v-158h246v-145h-246v-71h309v-153h-491zM383 717c-40 0 -79 35 -79 80s39 80 79 80c42 0 80 -35 80 -80s-38 -80 -80 -80zM191 717c-41 0 -80 35 -80 80s39 80 80 80c42 0 79 -35 79 -80s-37 -80 -79 -80z" />
    <glyph glyph-name="Egrave" unicode="&#xc8;" horiz-adv-x="579" 
d="M59 0v680h477v-153h-295v-158h246v-145h-246v-71h309v-153h-491zM240 722l-95 182h188l40 -182h-133z" />
    <glyph glyph-name="Iacute" unicode="&#xcd;" horiz-adv-x="308" 
d="M63 0v680h182v-680h-182zM201 722h-133l40 182h188z" />
    <glyph glyph-name="Icircumflex" unicode="&#xce;" horiz-adv-x="308" 
d="M63 0v680h182v-680h-182zM-11 722l160 210c3 4 6 4 9 0l160 -210h-127l-37 39l-38 -39h-127z" />
    <glyph glyph-name="Idieresis" unicode="&#xcf;" horiz-adv-x="308" 
d="M63 0v680h182v-680h-182zM250 717c-40 0 -79 35 -79 80s39 80 79 80c42 0 80 -35 80 -80s-38 -80 -80 -80zM58 717c-41 0 -80 35 -80 80s39 80 80 80c42 0 79 -35 79 -80s-37 -80 -79 -80z" />
    <glyph glyph-name="Igrave" unicode="&#xcc;" horiz-adv-x="308" 
d="M63 0v680h182v-680h-182zM107 722l-95 182h188l40 -182h-133z" />
    <glyph glyph-name="Ntilde" unicode="&#xd1;" horiz-adv-x="730" 
d="M657 -12l-427 351v-339h-171v689c0 6 3 11 14 2l427 -352v341h171v-690c0 -8 -3 -11 -14 -2zM426 717c-50 0 -86 39 -107 39c-17 0 -24 -12 -30 -34l-110 14c14 104 69 150 125 150c50 0 86 -39 107 -39c17 0 24 12 30 34l110 -14c-13 -102 -69 -150 -125 -150z" />
    <glyph glyph-name="Oacute" unicode="&#xd3;" horiz-adv-x="782" 
d="M391 -9c-196 0 -365 144 -365 349s169 348 365 348s365 -143 365 -348s-169 -349 -365 -349zM391 149c114 0 179 84 179 191s-65 190 -179 190s-179 -83 -179 -190s65 -191 179 -191zM434 722h-133l40 182h188z" />
    <glyph glyph-name="Ocircumflex" unicode="&#xd4;" horiz-adv-x="782" 
d="M391 -9c-196 0 -365 144 -365 349s169 348 365 348s365 -143 365 -348s-169 -349 -365 -349zM391 149c114 0 179 84 179 191s-65 190 -179 190s-179 -83 -179 -190s65 -191 179 -191zM222 722l160 210c3 4 6 4 9 0l160 -210h-127l-37 39l-38 -39h-127z" />
    <glyph glyph-name="Odieresis" unicode="&#xd6;" horiz-adv-x="774" 
d="M483 717c-40 0 -79 35 -79 80s39 80 79 80c42 0 80 -35 80 -80s-38 -80 -80 -80zM291 717c-41 0 -80 35 -80 80s39 80 80 80c42 0 79 -35 79 -80s-37 -80 -79 -80zM391 -9c-196 0 -365 144 -365 349s169 348 365 348s365 -143 365 -348s-169 -349 -365 -349zM391 149
c114 0 179 84 179 191s-65 190 -179 190s-179 -83 -179 -190s65 -191 179 -191z" />
    <glyph glyph-name="Ograve" unicode="&#xd2;" horiz-adv-x="782" 
d="M391 -9c-196 0 -365 144 -365 349s169 348 365 348s365 -143 365 -348s-169 -349 -365 -349zM391 149c114 0 179 84 179 191s-65 190 -179 190s-179 -83 -179 -190s65 -191 179 -191zM340 722l-95 182h188l40 -182h-133z" />
    <glyph glyph-name="Otilde" unicode="&#xd5;" horiz-adv-x="782" 
d="M391 -9c-196 0 -365 144 -365 349s169 348 365 348s365 -143 365 -348s-169 -349 -365 -349zM391 149c114 0 179 84 179 191s-65 190 -179 190s-179 -83 -179 -190s65 -191 179 -191zM448 717c-50 0 -86 39 -107 39c-17 0 -24 -12 -30 -34l-110 14c14 104 69 150 125 150
c50 0 86 -39 107 -39c17 0 24 12 30 34l110 -14c-13 -102 -69 -150 -125 -150z" />
    <glyph glyph-name="Scaron" unicode="&#x160;" horiz-adv-x="568" 
d="M286 -10c-153 0 -240 70 -282 126l132 99c33 -41 74 -74 142 -74c54 0 86 16 86 54c0 29 -22 43 -67 58l-80 27c-99 33 -169 93 -169 205c0 134 111 203 232 203c120 0 186 -43 226 -90l-104 -109c-28 29 -58 49 -112 49c-44 0 -66 -20 -66 -47c0 -26 15 -39 48 -50
l90 -30c136 -45 182 -110 182 -206c0 -125 -78 -215 -258 -215zM460 923l-160 -210c-3 -4 -6 -4 -9 0l-160 210h127l37 -39l38 39h127z" />
    <glyph glyph-name="Uacute" unicode="&#xda;" horiz-adv-x="694" 
d="M347 -10c-170 0 -295 90 -295 273v417h182v-415c0 -77 36 -121 113 -121s113 44 113 121v415h182v-417c0 -183 -125 -273 -295 -273zM394 722h-133l40 182h188z" />
    <glyph glyph-name="Ucircumflex" unicode="&#xdb;" horiz-adv-x="694" 
d="M347 -10c-170 0 -295 90 -295 273v417h182v-415c0 -77 36 -121 113 -121s113 44 113 121v415h182v-417c0 -183 -125 -273 -295 -273zM182 722l160 210c3 4 6 4 9 0l160 -210h-127l-37 39l-38 -39h-127z" />
    <glyph glyph-name="Udieresis" unicode="&#xdc;" horiz-adv-x="694" 
d="M443 717c-40 0 -79 35 -79 80s39 80 79 80c42 0 80 -35 80 -80s-38 -80 -80 -80zM251 717c-41 0 -80 35 -80 80s39 80 80 80c42 0 79 -35 79 -80s-37 -80 -79 -80zM347 -10c-170 0 -295 90 -295 273v417h182v-415c0 -77 36 -121 113 -121s113 44 113 121v415h182v-417
c0 -183 -125 -273 -295 -273z" />
    <glyph glyph-name="Ugrave" unicode="&#xd9;" horiz-adv-x="694" 
d="M347 -10c-170 0 -295 90 -295 273v417h182v-415c0 -77 36 -121 113 -121s113 44 113 121v415h182v-417c0 -183 -125 -273 -295 -273zM300 722l-95 182h188l40 -182h-133z" />
    <glyph glyph-name="Yacute" unicode="&#xdd;" horiz-adv-x="706" 
d="M264 235l-260 445h200l154 -277l153 277h191l-256 -440v-240h-182v235zM409 722h-133l40 182h188z" />
    <glyph glyph-name="Ydieresis" unicode="&#x178;" horiz-adv-x="724" 
d="M458 717c-40 0 -79 35 -79 80s39 80 79 80c42 0 80 -35 80 -80s-38 -80 -80 -80zM266 717c-41 0 -80 35 -80 80s39 80 80 80c42 0 79 -35 79 -80s-37 -80 -79 -80zM264 235l-260 445h200l154 -277l153 277h191l-256 -440v-240h-182v235z" />
    <glyph glyph-name="Zcaron" unicode="&#x17d;" horiz-adv-x="613" 
d="M14 0c-6 0 -8 2 -3 10l301 517h-250v153h529c6 0 8 -2 3 -10l-301 -517h276v-153h-555zM471 923l-160 -210c-3 -4 -6 -4 -9 0l-160 210h127l37 -39l38 39h127z" />
    <glyph glyph-name="aacute" unicode="&#xe1;" horiz-adv-x="681" 
d="M207 58l-25 -58h-178l331 692c3 7 9 7 12 0l330 -692h-188l-26 58c1 0 -256 0 -256 0zM403 194l-70 158l-68 -158h138zM407 722h-133l40 182h188z" />
    <glyph glyph-name="acircumflex" unicode="&#xe2;" horiz-adv-x="681" 
d="M207 58l-25 -58h-178l331 692c3 7 9 7 12 0l330 -692h-188l-26 58c1 0 -256 0 -256 0zM403 194l-70 158l-68 -158h138zM175 722l160 210c3 4 6 4 9 0l160 -210h-127l-37 39l-38 -39h-127z" />
    <glyph glyph-name="adieresis" unicode="&#xe4;" horiz-adv-x="681" 
d="M536 528c-40 0 -79 35 -79 80s39 80 79 80c42 0 80 -35 80 -80s-38 -80 -80 -80zM144 528c-41 0 -80 35 -80 80s39 80 80 80c42 0 79 -35 79 -80s-37 -80 -79 -80zM207 58l-25 -58h-178l331 692c3 7 9 7 12 0l330 -692h-188l-26 58c1 0 -256 0 -256 0zM403 194l-70 158
l-68 -158h138z" />
    <glyph glyph-name="agrave" unicode="&#xe0;" horiz-adv-x="681" 
d="M207 58l-25 -58h-178l331 692c3 7 9 7 12 0l330 -692h-188l-26 58c1 0 -256 0 -256 0zM403 194l-70 158l-68 -158h138zM273 722l-95 182h188l40 -182h-133z" />
    <glyph glyph-name="aring" unicode="&#xe5;" horiz-adv-x="681" 
d="M207 58l-25 -58h-178l331 692c3 7 9 7 12 0l330 -692h-188l-26 58c1 0 -256 0 -256 0zM403 194l-70 158l-68 -158h138zM340 617c-79 0 -137 58 -137 125c0 68 58 126 137 126s137 -58 137 -126c0 -67 -58 -125 -137 -125zM340 700c22 0 39 17 39 42s-17 42 -39 42
s-39 -17 -39 -42s17 -42 39 -42z" />
    <glyph glyph-name="atilde" unicode="&#xe3;" horiz-adv-x="681" 
d="M207 58l-25 -58h-178l331 692c3 7 9 7 12 0l330 -692h-188l-26 58c1 0 -256 0 -256 0zM403 194l-70 158l-68 -158h138zM401 717c-50 0 -86 39 -107 39c-17 0 -24 -12 -30 -34l-110 14c14 104 69 150 125 150c50 0 86 -39 107 -39c17 0 24 12 30 34l110 -14
c-13 -102 -69 -150 -125 -150z" />
    <glyph glyph-name="ccedilla" unicode="&#xe7;" horiz-adv-x="686" 
d="M298 0c-153 35 -272 165 -272 340c0 205 162 348 344 348c147 0 237 -62 294 -146l-137 -93c-26 40 -68 81 -154 81c-100 0 -161 -83 -161 -190s63 -191 167 -191c88 0 131 40 160 94l140 -90c-67 -113 -161 -162 -299 -162h-9v-23c48 -8 87 -43 87 -102
c0 -61 -57 -98 -111 -98c-61 0 -99 20 -124 60l71 47c7 -13 19 -24 37 -24c15 0 29 6 29 25c0 16 -12 26 -36 26h-35v98h9z" />
    <glyph glyph-name="eacute" unicode="&#xe9;" horiz-adv-x="579" 
d="M59 0v680h477v-153h-295v-158h246v-145h-246v-71h309v-153h-491zM334 722h-133l40 182h188z" />
    <glyph glyph-name="ecircumflex" unicode="&#xea;" horiz-adv-x="579" 
d="M59 0v680h477v-153h-295v-158h246v-145h-246v-71h309v-153h-491zM122 722l160 210c3 4 6 4 9 0l160 -210h-127l-37 39l-38 -39h-127z" />
    <glyph glyph-name="edieresis" unicode="&#xeb;" horiz-adv-x="579" 
d="M59 0v680h477v-153h-295v-158h246v-145h-246v-71h309v-153h-491zM383 717c-40 0 -79 35 -79 80s39 80 79 80c42 0 80 -35 80 -80s-38 -80 -80 -80zM191 717c-41 0 -80 35 -80 80s39 80 80 80c42 0 79 -35 79 -80s-37 -80 -79 -80z" />
    <glyph glyph-name="egrave" unicode="&#xe8;" horiz-adv-x="579" 
d="M59 0v680h477v-153h-295v-158h246v-145h-246v-71h309v-153h-491zM240 722l-95 182h188l40 -182h-133z" />
    <glyph glyph-name="iacute" unicode="&#xed;" horiz-adv-x="308" 
d="M63 0v680h182v-680h-182zM201 722h-133l40 182h188z" />
    <glyph glyph-name="icircumflex" unicode="&#xee;" horiz-adv-x="308" 
d="M63 0v680h182v-680h-182zM-11 722l160 210c3 4 6 4 9 0l160 -210h-127l-37 39l-38 -39h-127z" />
    <glyph glyph-name="idieresis" unicode="&#xef;" horiz-adv-x="308" 
d="M63 0v680h182v-680h-182zM250 717c-40 0 -79 35 -79 80s39 80 79 80c42 0 80 -35 80 -80s-38 -80 -80 -80zM58 717c-41 0 -80 35 -80 80s39 80 80 80c42 0 79 -35 79 -80s-37 -80 -79 -80z" />
    <glyph glyph-name="igrave" unicode="&#xec;" horiz-adv-x="308" 
d="M63 0v680h182v-680h-182zM107 722l-95 182h188l40 -182h-133z" />
    <glyph glyph-name="ntilde" unicode="&#xf1;" horiz-adv-x="730" 
d="M657 -12l-427 351v-339h-171v689c0 6 3 11 14 2l427 -352v341h171v-690c0 -8 -3 -11 -14 -2zM426 717c-50 0 -86 39 -107 39c-17 0 -24 -12 -30 -34l-110 14c14 104 69 150 125 150c50 0 86 -39 107 -39c17 0 24 12 30 34l110 -14c-13 -102 -69 -150 -125 -150z" />
    <glyph glyph-name="oacute" unicode="&#xf3;" horiz-adv-x="782" 
d="M391 -9c-196 0 -365 144 -365 349s169 348 365 348s365 -143 365 -348s-169 -349 -365 -349zM391 149c114 0 179 84 179 191s-65 190 -179 190s-179 -83 -179 -190s65 -191 179 -191zM434 722h-133l40 182h188z" />
    <glyph glyph-name="ocircumflex" unicode="&#xf4;" horiz-adv-x="782" 
d="M391 -9c-196 0 -365 144 -365 349s169 348 365 348s365 -143 365 -348s-169 -349 -365 -349zM391 149c114 0 179 84 179 191s-65 190 -179 190s-179 -83 -179 -190s65 -191 179 -191zM222 722l160 210c3 4 6 4 9 0l160 -210h-127l-37 39l-38 -39h-127z" />
    <glyph glyph-name="odieresis" unicode="&#xf6;" horiz-adv-x="782" 
d="M391 -9c-196 0 -365 144 -365 349s169 348 365 348s365 -143 365 -348s-169 -349 -365 -349zM391 149c114 0 179 84 179 191s-65 190 -179 190s-179 -83 -179 -190s65 -191 179 -191zM483 717c-40 0 -79 35 -79 80s39 80 79 80c42 0 80 -35 80 -80s-38 -80 -80 -80z
M291 717c-41 0 -80 35 -80 80s39 80 80 80c42 0 79 -35 79 -80s-37 -80 -79 -80z" />
    <glyph glyph-name="ograve" unicode="&#xf2;" horiz-adv-x="782" 
d="M391 -9c-196 0 -365 144 -365 349s169 348 365 348s365 -143 365 -348s-169 -349 -365 -349zM391 149c114 0 179 84 179 191s-65 190 -179 190s-179 -83 -179 -190s65 -191 179 -191zM340 722l-95 182h188l40 -182h-133z" />
    <glyph glyph-name="otilde" unicode="&#xf5;" horiz-adv-x="782" 
d="M391 -9c-196 0 -365 144 -365 349s169 348 365 348s365 -143 365 -348s-169 -349 -365 -349zM391 149c114 0 179 84 179 191s-65 190 -179 190s-179 -83 -179 -190s65 -191 179 -191zM448 717c-50 0 -86 39 -107 39c-17 0 -24 -12 -30 -34l-110 14c14 104 69 150 125 150
c50 0 86 -39 107 -39c17 0 24 12 30 34l110 -14c-13 -102 -69 -150 -125 -150z" />
    <glyph glyph-name="scaron" unicode="&#x161;" horiz-adv-x="568" 
d="M286 -10c-153 0 -240 70 -282 126l132 99c33 -41 74 -74 142 -74c54 0 86 16 86 54c0 29 -22 43 -67 58l-80 27c-99 33 -169 93 -169 205c0 134 111 203 232 203c120 0 186 -43 226 -90l-104 -109c-28 29 -58 49 -112 49c-44 0 -66 -20 -66 -47c0 -26 15 -39 48 -50
l90 -30c136 -45 182 -110 182 -206c0 -125 -78 -215 -258 -215zM460 923l-160 -210c-3 -4 -6 -4 -9 0l-160 210h127l37 -39l38 39h127z" />
    <glyph glyph-name="uacute" unicode="&#xfa;" horiz-adv-x="694" 
d="M347 -10c-170 0 -295 90 -295 273v417h182v-415c0 -77 36 -121 113 -121s113 44 113 121v415h182v-417c0 -183 -125 -273 -295 -273zM394 722h-133l40 182h188z" />
    <glyph glyph-name="ucircumflex" unicode="&#xfb;" horiz-adv-x="694" 
d="M347 -10c-170 0 -295 90 -295 273v417h182v-415c0 -77 36 -121 113 -121s113 44 113 121v415h182v-417c0 -183 -125 -273 -295 -273zM182 722l160 210c3 4 6 4 9 0l160 -210h-127l-37 39l-38 -39h-127z" />
    <glyph glyph-name="udieresis" unicode="&#xfc;" horiz-adv-x="694" 
d="M347 -10c-170 0 -295 90 -295 273v417h182v-415c0 -77 36 -121 113 -121s113 44 113 121v415h182v-417c0 -183 -125 -273 -295 -273zM443 717c-40 0 -79 35 -79 80s39 80 79 80c42 0 80 -35 80 -80s-38 -80 -80 -80zM251 717c-41 0 -80 35 -80 80s39 80 80 80
c42 0 79 -35 79 -80s-37 -80 -79 -80z" />
    <glyph glyph-name="ugrave" unicode="&#xf9;" horiz-adv-x="694" 
d="M347 -10c-170 0 -295 90 -295 273v417h182v-415c0 -77 36 -121 113 -121s113 44 113 121v415h182v-417c0 -183 -125 -273 -295 -273zM300 722l-95 182h188l40 -182h-133z" />
    <glyph glyph-name="yacute" unicode="&#xfd;" horiz-adv-x="706" 
d="M264 235l-260 445h200l154 -277l153 277h191l-256 -440v-240h-182v235zM409 722h-133l40 182h188z" />
    <glyph glyph-name="ydieresis" unicode="&#xff;" horiz-adv-x="706" 
d="M264 235l-260 445h200l154 -277l153 277h191l-256 -440v-240h-182v235zM458 717c-40 0 -79 35 -79 80s39 80 79 80c42 0 80 -35 80 -80s-38 -80 -80 -80zM266 717c-41 0 -80 35 -80 80s39 80 80 80c42 0 79 -35 79 -80s-37 -80 -79 -80z" />
    <glyph glyph-name="zcaron" unicode="&#x17e;" horiz-adv-x="613" 
d="M14 0c-6 0 -8 2 -3 10l301 517h-250v153h529c6 0 8 -2 3 -10l-301 -517h276v-153h-555zM471 923l-160 -210c-3 -4 -6 -4 -9 0l-160 210h127l37 -39l38 39h127z" />
    <glyph glyph-name="ff" unicode="&#xfb00;" horiz-adv-x="1112" 
d="M615 0v680h462v-153h-280v-158h247v-153h-247v-216h-182zM59 0v680h462v-153h-280v-158h247v-153h-247v-216h-182z" />
    <glyph glyph-name="ffi" unicode="&#xfb03;" horiz-adv-x="1420" 
d="M1175 0v680h182v-680h-182zM615 0v680h462v-153h-280v-158h247v-153h-247v-216h-182zM59 0v680h462v-153h-280v-158h247v-153h-247v-216h-182z" />
    <glyph glyph-name="ffl" unicode="&#xfb04;" horiz-adv-x="1667" 
d="M1171 0v680h182v-527h289v-153h-471zM615 0v680h462v-153h-280v-158h247v-153h-247v-216h-182zM59 0v680h462v-153h-280v-158h247v-153h-247v-216h-182z" />
    <glyph glyph-name=".null" horiz-adv-x="0" 
 />
    <glyph glyph-name="CR" unicode="&#xd;" horiz-adv-x="242" 
 />
    <glyph glyph-name="lessequal" unicode="&#x2264;" 
d="M136 210c-53 0 -100 40 -100 98s47 98 100 98c52 0 100 -40 100 -98s-48 -98 -100 -98z" />
    <glyph glyph-name="greaterequal" unicode="&#x2265;" 
d="M136 210c-53 0 -100 40 -100 98s47 98 100 98c52 0 100 -40 100 -98s-48 -98 -100 -98z" />
    <glyph glyph-name="partialdiff" unicode="&#x2202;" 
d="M136 210c-53 0 -100 40 -100 98s47 98 100 98c52 0 100 -40 100 -98s-48 -98 -100 -98z" />
    <glyph glyph-name="Q.alt" horiz-adv-x="782" 
d="M485 16c28 -25 59 -43 100 -43c35 0 61 14 81 31l89 -112c-32 -34 -85 -66 -170 -66c-105 0 -177 49 -229 97c-45 42 -85 81 -131 81c-39 0 -65 -24 -87 -55l-120 103c23 34 53 62 87 81c-49 57 -79 129 -79 207c0 205 169 348 365 348s365 -143 365 -348
c0 -173 -110 -291 -271 -324zM391 144c114 0 179 80 179 196c0 107 -65 190 -179 190s-179 -83 -179 -190c0 -116 65 -196 179 -196z" />
    <glyph glyph-name="product" unicode="&#x220f;" 
d="M136 210c-53 0 -100 40 -100 98s47 98 100 98c52 0 100 -40 100 -98s-48 -98 -100 -98z" />
    <glyph glyph-name="pi" unicode="&#x3c0;" 
d="M136 210c-53 0 -100 40 -100 98s47 98 100 98c52 0 100 -40 100 -98s-48 -98 -100 -98z" />
    <glyph glyph-name="integral" unicode="&#x222b;" 
d="M136 210c-53 0 -100 40 -100 98s47 98 100 98c52 0 100 -40 100 -98s-48 -98 -100 -98z" />
    <glyph glyph-name="Omega" unicode="&#x3a9;" 
d="M136 210c-53 0 -100 40 -100 98s47 98 100 98c52 0 100 -40 100 -98s-48 -98 -100 -98z" />
    <glyph glyph-name="Omega" unicode="&#x2126;" 
d="M136 210c-53 0 -100 40 -100 98s47 98 100 98c52 0 100 -40 100 -98s-48 -98 -100 -98z" />
    <glyph glyph-name="radical" unicode="&#x221a;" 
d="M136 210c-53 0 -100 40 -100 98s47 98 100 98c52 0 100 -40 100 -98s-48 -98 -100 -98z" />
    <glyph glyph-name="approxequal" unicode="&#x2248;" 
d="M136 210c-53 0 -100 40 -100 98s47 98 100 98c52 0 100 -40 100 -98s-48 -98 -100 -98z" />
    <glyph glyph-name="Delta" unicode="&#x394;" 
d="M136 210c-53 0 -100 40 -100 98s47 98 100 98c52 0 100 -40 100 -98s-48 -98 -100 -98z" />
    <glyph glyph-name="Delta" unicode="&#x2206;" 
d="M136 210c-53 0 -100 40 -100 98s47 98 100 98c52 0 100 -40 100 -98s-48 -98 -100 -98z" />
    <glyph glyph-name="nbspace" unicode="&#xa0;" horiz-adv-x="207" 
 />
    <glyph glyph-name="lozenge" unicode="&#x25ca;" 
d="M136 210c-53 0 -100 40 -100 98s47 98 100 98c52 0 100 -40 100 -98s-48 -98 -100 -98z" />
    <glyph glyph-name="Euro" unicode="&#x20ac;" horiz-adv-x="764" 
d="M102 358h-72v98h90c47 141 179 232 325 232c149 0 235 -60 293 -146l-137 -93c-25 42 -66 81 -154 81c-59 0 -105 -29 -134 -74h209v-98h-239v-18c0 -10 1 -19 1 -28h238v-98h-201c30 -40 75 -65 132 -65c88 0 131 40 160 94l140 -90c-67 -113 -161 -162 -298 -162
c-145 0 -278 87 -330 223h-95v98h73c-1 9 -1 19 -1 28v18z" />
    <glyph glyph-name="apple" 
d="M136 210c-53 0 -100 40 -100 98s47 98 100 98c52 0 100 -40 100 -98s-48 -98 -100 -98z" />
    <glyph glyph-name="LA" horiz-adv-x="1193" 
d="M719 58l-25 -58h-178l331 692c3 7 9 7 12 0l330 -692h-188l-26 58c1 0 -256 0 -256 0zM59 0v680h182v-527h273l-73 -153h-382zM915 194l-70 158l-68 -158h138z" />
    <glyph glyph-name="endash.up" horiz-adv-x="406" 
d="M36 224v125h334v-125h-334z" />
    <glyph glyph-name="emdash.up" horiz-adv-x="706" 
d="M36 224v125h634v-125h-634z" />
    <glyph glyph-name="Abreve" unicode="&#x102;" horiz-adv-x="681" 
d="M340 715c-100 0 -152 71 -161 138l114 10c4 -16 19 -31 47 -31s43 15 47 31l114 -10c-9 -67 -61 -138 -161 -138zM207 58l-25 -58h-178l331 692c3 7 9 7 12 0l330 -692h-188l-26 58c1 0 -256 0 -256 0zM403 194l-70 158l-68 -158h138z" />
    <glyph glyph-name="Amacron" unicode="&#x100;" horiz-adv-x="681" 
d="M218 722v126h244v-126h-244zM207 58l-25 -58h-178l331 692c3 7 9 7 12 0l330 -692h-188l-26 58c1 0 -256 0 -256 0zM403 194l-70 158l-68 -158h138z" />
    <glyph glyph-name="Aogonek" unicode="&#x104;" horiz-adv-x="681" 
d="M207 58l-25 -58h-178l331 692c3 7 9 7 12 0l330 -692h-27c-51 -44 -84 -81 -84 -120c0 -16 12 -23 25 -23c17 0 31 13 39 25l71 -52c-25 -40 -60 -62 -119 -62c-72 0 -118 37 -118 98c0 66 50 110 86 134h-61l-26 58c1 0 -256 0 -256 0zM403 194l-70 158l-68 -158h138z
" />
    <glyph glyph-name="Cacute" unicode="&#x106;" horiz-adv-x="690" 
d="M429 722h-133l40 182h188zM679 153c-67 -113 -161 -162 -299 -162c-191 0 -354 144 -354 349s162 348 344 348c147 0 237 -62 294 -146l-137 -93c-26 40 -68 81 -154 81c-100 0 -161 -83 -161 -190s63 -191 167 -191c88 0 131 40 160 94z" />
    <glyph glyph-name="Ccaron" unicode="&#x10c;" horiz-adv-x="690" 
d="M526 923l-160 -210c-3 -4 -6 -4 -9 0l-160 210h127l37 -39l38 39h127zM679 153c-67 -113 -161 -162 -299 -162c-191 0 -354 144 -354 349s162 348 344 348c147 0 237 -62 294 -146l-137 -93c-26 40 -68 81 -154 81c-100 0 -161 -83 -161 -190s63 -191 167 -191
c88 0 131 40 160 94z" />
    <glyph glyph-name="Ccircumflex" unicode="&#x108;" horiz-adv-x="690" 
d="M198 722l160 210c3 4 6 4 9 0l160 -210h-127l-37 39l-38 -39h-127zM679 153c-67 -113 -161 -162 -299 -162c-191 0 -354 144 -354 349s162 348 344 348c147 0 237 -62 294 -146l-137 -93c-26 40 -68 81 -154 81c-100 0 -161 -83 -161 -190s63 -191 167 -191
c88 0 131 40 160 94z" />
    <glyph glyph-name="Dcaron" unicode="&#x10e;" horiz-adv-x="688" 
d="M452 923l-160 -210c-3 -4 -6 -4 -9 0l-160 210h127l37 -39l38 39h127zM59 0v680h263c196 0 344 -129 344 -340s-148 -340 -344 -340h-263zM241 154h61c110 0 178 73 178 186s-68 186 -178 186h-61v-372z" />
    <glyph glyph-name="Dcroat" unicode="&#x110;" horiz-adv-x="688" 
d="M59 222h-53v147h53v311h263c196 0 344 -129 344 -340s-148 -340 -344 -340h-263v222zM241 369h128v-147h-128v-68h61c110 0 178 73 178 186s-68 186 -178 186h-61v-157z" />
    <glyph glyph-name="Ecaron" unicode="&#x11a;" horiz-adv-x="579" 
d="M460 923l-160 -210c-3 -4 -6 -4 -9 0l-160 210h127l37 -39l38 39h127zM59 0v680h477v-153h-295v-158h246v-145h-246v-71h309v-153h-491z" />
    <glyph glyph-name="Edotaccent" unicode="&#x116;" horiz-adv-x="579" 
d="M301 717c-41 0 -80 35 -80 80s39 80 80 80c42 0 79 -35 79 -80s-37 -80 -79 -80zM59 0v680h477v-153h-295v-158h246v-145h-246v-71h309v-153h-491z" />
    <glyph glyph-name="Emacron" unicode="&#x112;" horiz-adv-x="579" 
d="M172 722v126h244v-126h-244zM59 0v680h477v-153h-295v-158h246v-145h-246v-71h309v-153h-491z" />
    <glyph glyph-name="Eogonek" unicode="&#x118;" horiz-adv-x="579" 
d="M59 0v680h477v-153h-295v-158h246v-145h-246v-71h309v-153h-29c-51 -44 -84 -81 -84 -120c0 -16 12 -23 25 -23c17 0 31 13 39 25l71 -52c-25 -40 -60 -62 -119 -62c-72 0 -118 37 -118 98c0 66 50 110 86 134h-362z" />
    <glyph glyph-name="Gbreve" unicode="&#x11e;" horiz-adv-x="720" 
d="M381 715c-100 0 -152 71 -161 138l114 10c4 -16 19 -31 47 -31s43 15 47 31l114 -10c-9 -67 -61 -138 -161 -138zM526 171v58h-135v140h297v-284c-63 -52 -145 -94 -296 -94c-200 0 -366 144 -366 349s166 348 362 348c120 0 214 -45 273 -121l-127 -110
c-34 44 -82 73 -150 73c-111 0 -172 -83 -172 -190s62 -196 182 -196c66 0 103 13 132 27z" />
    <glyph glyph-name="Gcircumflex" unicode="&#x11c;" horiz-adv-x="720" 
d="M207 722l160 210c3 4 6 4 9 0l160 -210h-127l-37 39l-38 -39h-127zM526 171v58h-135v140h297v-284c-63 -52 -145 -94 -296 -94c-200 0 -366 144 -366 349s166 348 362 348c120 0 214 -45 273 -121l-127 -110c-34 44 -82 73 -150 73c-111 0 -172 -83 -172 -190
s62 -196 182 -196c66 0 103 13 132 27z" />
    <glyph glyph-name="Gcommaaccent" unicode="&#x122;" horiz-adv-x="720" 
d="M526 171v58h-135v140h297v-284c-63 -52 -145 -94 -296 -94c-200 0 -366 144 -366 349s166 348 362 348c120 0 214 -45 273 -121l-127 -110c-34 44 -82 73 -150 73c-111 0 -172 -83 -172 -190s62 -196 182 -196c66 0 103 13 132 27zM314 -295l32 92c-29 11 -49 40 -49 76
c0 50 40 83 86 83c47 0 89 -33 89 -83c0 -31 -13 -60 -34 -90l-55 -78h-69z" />
    <glyph glyph-name="Hcircumflex" unicode="&#x124;" horiz-adv-x="718" 
d="M194 722l160 210c3 4 6 4 9 0l160 -210h-127l-37 39l-38 -39h-127zM477 369v311h182v-680h-182v216h-236v-216h-182v680h182v-311h236z" />
    <glyph glyph-name="Idotaccent" unicode="&#x130;" horiz-adv-x="308" 
d="M154 717c-41 0 -80 35 -80 80s39 80 80 80c42 0 79 -35 79 -80s-37 -80 -79 -80zM63 0v680h182v-680h-182z" />
    <glyph glyph-name="Imacron" unicode="&#x12a;" horiz-adv-x="308" 
d="M32 722v126h244v-126h-244zM63 0v680h182v-680h-182z" />
    <glyph glyph-name="Iogonek" unicode="&#x12e;" horiz-adv-x="308" 
d="M63 0v680h182v-680h-27c-51 -44 -84 -81 -84 -120c0 -16 12 -23 25 -23c17 0 31 13 39 25l71 -52c-25 -40 -60 -62 -119 -62c-72 0 -118 37 -118 98c0 66 50 110 86 134h-55z" />
    <glyph glyph-name="Jcircumflex" unicode="&#x134;" horiz-adv-x="486" 
d="M168 722l160 210c3 4 6 4 9 0l160 -210h-127l-37 39l-38 -39h-127zM432 680v-489c0 -128 -77 -201 -208 -201c-115 0 -183 47 -218 113l137 88c14 -24 29 -45 60 -45c29 0 47 16 47 58v476h182z" />
    <glyph glyph-name="Kcommaaccent" unicode="&#x136;" horiz-adv-x="682" 
d="M241 398l210 282h197l-226 -295l253 -385h-215l-162 247c1 0 -38 -47 -57 -70v-177h-182v680h182v-282zM265 -295l32 92c-29 11 -49 40 -49 76c0 50 40 83 86 83c47 0 89 -33 89 -83c0 -31 -13 -60 -34 -90l-55 -78h-69z" />
    <glyph glyph-name="Lacute" unicode="&#x139;" horiz-adv-x="555" 
d="M207 722h-133l40 182h188zM59 0v680h182v-527h289v-153h-471z" />
    <glyph glyph-name="Lcaron" unicode="&#x13d;" horiz-adv-x="555" 
d="M347 401l37 105c-37 12 -59 46 -59 87c0 57 46 95 98 95c54 0 102 -38 102 -95c0 -35 -14 -68 -39 -103l-63 -89h-76zM59 0v680h182v-527h289v-153h-471z" />
    <glyph glyph-name="Lcommaaccent" unicode="&#x13b;" horiz-adv-x="555" 
d="M59 0v680h182v-527h289v-153h-471zM214 -295l32 92c-29 11 -49 40 -49 76c0 50 40 83 86 83c47 0 89 -33 89 -83c0 -31 -13 -60 -34 -90l-55 -78h-69z" />
    <glyph glyph-name="Nacute" unicode="&#x143;" horiz-adv-x="730" 
d="M404 722h-133l40 182h188zM657 -12l-427 351v-339h-171v689c0 6 3 11 14 2l427 -352v341h171v-690c0 -8 -3 -11 -14 -2z" />
    <glyph glyph-name="Ncaron" unicode="&#x147;" horiz-adv-x="730" 
d="M514 923l-160 -210c-3 -4 -6 -4 -9 0l-160 210h127l37 -39l38 39h127zM657 -12l-427 351v-339h-171v689c0 6 3 11 14 2l427 -352v341h171v-690c0 -8 -3 -11 -14 -2z" />
    <glyph glyph-name="Ncommaaccent" unicode="&#x145;" horiz-adv-x="730" 
d="M657 -12l-427 351v-339h-171v689c0 6 3 11 14 2l427 -352v341h171v-690c0 -8 -3 -11 -14 -2zM311 -295l32 92c-29 11 -49 40 -49 76c0 50 40 83 86 83c47 0 89 -33 89 -83c0 -31 -13 -60 -34 -90l-55 -78h-69z" />
    <glyph glyph-name="Ohungarumlaut" unicode="&#x150;" horiz-adv-x="782" 
d="M555 722h-133l40 182h174zM351 722h-133l40 182h174zM391 -9c-196 0 -365 144 -365 349s169 348 365 348s365 -143 365 -348s-169 -349 -365 -349zM391 149c114 0 179 84 179 191s-65 190 -179 190s-179 -83 -179 -190s65 -191 179 -191z" />
    <glyph glyph-name="Omacron" unicode="&#x14c;" horiz-adv-x="782" 
d="M269 722v126h244v-126h-244zM391 -9c-196 0 -365 144 -365 349s169 348 365 348s365 -143 365 -348s-169 -349 -365 -349zM391 149c114 0 179 84 179 191s-65 190 -179 190s-179 -83 -179 -190s65 -191 179 -191z" />
    <glyph glyph-name="Racute" unicode="&#x154;" horiz-adv-x="629" 
d="M353 722h-133l40 182h188zM480 193l121 -193h-197l-95 156h-68v-156h-182v680h258c183 0 286 -116 286 -267c0 -98 -43 -176 -123 -220zM241 301h67c82 0 112 46 112 112s-30 113 -112 113h-67v-225z" />
    <glyph glyph-name="Rcaron" unicode="&#x158;" horiz-adv-x="629" 
d="M462 923l-160 -210c-3 -4 -6 -4 -9 0l-160 210h127l37 -39l38 39h127zM480 193l121 -193h-197l-95 156h-68v-156h-182v680h258c183 0 286 -116 286 -267c0 -98 -43 -176 -123 -220zM241 301h67c82 0 112 46 112 112s-30 113 -112 113h-67v-225z" />
    <glyph glyph-name="Rcommaaccent" unicode="&#x156;" horiz-adv-x="629" 
d="M480 193l121 -193h-197l-95 156h-68v-156h-182v680h258c183 0 286 -116 286 -267c0 -98 -43 -176 -123 -220zM247 -295l32 92c-29 11 -49 40 -49 76c0 50 40 83 86 83c47 0 89 -33 89 -83c0 -31 -13 -60 -34 -90l-55 -78h-69zM241 301h67c82 0 112 46 112 112
s-30 113 -112 113h-67v-225z" />
    <glyph glyph-name="Sacute" unicode="&#x15a;" horiz-adv-x="568" 
d="M342 722h-133l40 182h188zM286 -10c-153 0 -240 70 -282 126l132 99c33 -41 74 -74 142 -74c54 0 86 16 86 54c0 29 -22 43 -67 58l-80 27c-99 33 -169 93 -169 205c0 134 111 203 232 203c120 0 186 -43 226 -90l-104 -109c-28 29 -58 49 -112 49c-44 0 -66 -20 -66 -47
c0 -26 15 -39 48 -50l90 -30c136 -45 182 -110 182 -206c0 -125 -78 -215 -258 -215z" />
    <glyph glyph-name="Scircumflex" unicode="&#x15c;" horiz-adv-x="568" 
d="M112 722l160 210c3 4 6 4 9 0l160 -210h-127l-37 39l-38 -39h-127zM286 -10c-153 0 -240 70 -282 126l132 99c33 -41 74 -74 142 -74c54 0 86 16 86 54c0 29 -22 43 -67 58l-80 27c-99 33 -169 93 -169 205c0 134 111 203 232 203c120 0 186 -43 226 -90l-104 -109
c-28 29 -58 49 -112 49c-44 0 -66 -20 -66 -47c0 -26 15 -39 48 -50l90 -30c136 -45 182 -110 182 -206c0 -125 -78 -215 -258 -215z" />
    <glyph glyph-name="Scommaaccent" unicode="&#x218;" horiz-adv-x="568" 
d="M286 -10c-153 0 -240 70 -282 126l132 99c33 -41 74 -74 142 -74c54 0 86 16 86 54c0 29 -22 43 -67 58l-80 27c-99 33 -169 93 -169 205c0 134 111 203 232 203c120 0 186 -43 226 -90l-104 -109c-28 29 -58 49 -112 49c-44 0 -66 -20 -66 -47c0 -26 15 -39 48 -50
l90 -30c136 -45 182 -110 182 -206c0 -125 -78 -215 -258 -215zM219 -295l32 92c-29 11 -49 40 -49 76c0 50 40 83 86 83c47 0 89 -33 89 -83c0 -31 -13 -60 -34 -90l-55 -78h-69z" />
    <glyph glyph-name="Tcaron" unicode="&#x164;" horiz-adv-x="588" 
d="M459 923l-160 -210c-3 -4 -6 -4 -9 0l-160 210h127l37 -39l38 39h127zM203 0v527h-180v153h542v-153h-180v-527h-182z" />
    <glyph glyph-name="Tcommaaccent" unicode="&#x162;" horiz-adv-x="588" 
d="M203 0v527h-180v153h542v-153h-180v-527h-182zM223 -295l32 92c-29 11 -49 40 -49 76c0 50 40 83 86 83c47 0 89 -33 89 -83c0 -31 -13 -60 -34 -90l-55 -78h-69z" />
    <glyph glyph-name="Tcommaaccent" unicode="&#x21a;" horiz-adv-x="588" 
d="M203 0v527h-180v153h542v-153h-180v-527h-182zM223 -295l32 92c-29 11 -49 40 -49 76c0 50 40 83 86 83c47 0 89 -33 89 -83c0 -31 -13 -60 -34 -90l-55 -78h-69z" />
    <glyph glyph-name="Ubreve" unicode="&#x16c;" horiz-adv-x="694" 
d="M347 715c-100 0 -152 71 -161 138l114 10c4 -16 19 -31 47 -31s43 15 47 31l114 -10c-9 -67 -61 -138 -161 -138zM347 -10c-170 0 -295 90 -295 273v417h182v-415c0 -77 36 -121 113 -121s113 44 113 121v415h182v-417c0 -183 -125 -273 -295 -273z" />
    <glyph glyph-name="Uhungarumlaut" unicode="&#x170;" horiz-adv-x="694" 
d="M510 722h-133l40 182h174zM306 722h-133l40 182h174zM347 -10c-170 0 -295 90 -295 273v417h182v-415c0 -77 36 -121 113 -121s113 44 113 121v415h182v-417c0 -183 -125 -273 -295 -273z" />
    <glyph glyph-name="Umacron" unicode="&#x16a;" horiz-adv-x="694" 
d="M225 722v126h244v-126h-244zM347 -10c-170 0 -295 90 -295 273v417h182v-415c0 -77 36 -121 113 -121s113 44 113 121v415h182v-417c0 -183 -125 -273 -295 -273z" />
    <glyph glyph-name="Uogonek" unicode="&#x172;" horiz-adv-x="694" 
d="M313 -9c-152 11 -261 101 -261 272v417h182v-415c0 -77 36 -121 113 -121s113 44 113 121v415h182v-417c0 -155 -90 -243 -220 -267c-49 -42 -80 -78 -80 -116c0 -16 12 -23 25 -23c17 0 31 13 39 25l71 -52c-25 -40 -60 -62 -119 -62c-72 0 -118 37 -118 98
c0 59 39 100 73 125z" />
    <glyph glyph-name="Uring" unicode="&#x16e;" horiz-adv-x="694" 
d="M347 716c-79 0 -137 58 -137 125c0 68 58 126 137 126s137 -58 137 -126c0 -67 -58 -125 -137 -125zM347 -10c-170 0 -295 90 -295 273v417h182v-415c0 -77 36 -121 113 -121s113 44 113 121v415h182v-417c0 -183 -125 -273 -295 -273zM347 799c22 0 39 17 39 42
s-17 42 -39 42s-39 -17 -39 -42s17 -42 39 -42z" />
    <glyph glyph-name="Zacute" unicode="&#x179;" horiz-adv-x="613" 
d="M378 722h-133l40 182h188zM14 0c-6 0 -8 2 -3 10l301 517h-250v153h529c6 0 8 -2 3 -10l-301 -517h276v-153h-555z" />
    <glyph glyph-name="Zdotaccent" unicode="&#x17b;" horiz-adv-x="613" 
d="M310 717c-41 0 -80 35 -80 80s39 80 80 80c42 0 79 -35 79 -80s-37 -80 -79 -80zM14 0c-6 0 -8 2 -3 10l301 517h-250v153h529c6 0 8 -2 3 -10l-301 -517h276v-153h-555z" />
    <glyph glyph-name="abreve" unicode="&#x103;" horiz-adv-x="681" 
d="M340 715c-100 0 -152 71 -161 138l114 10c4 -16 19 -31 47 -31s43 15 47 31l114 -10c-9 -67 -61 -138 -161 -138zM207 58l-25 -58h-178l331 692c3 7 9 7 12 0l330 -692h-188l-26 58c1 0 -256 0 -256 0zM403 194l-70 158l-68 -158h138z" />
    <glyph glyph-name="amacron" unicode="&#x101;" horiz-adv-x="681" 
d="M218 722v126h244v-126h-244zM207 58l-25 -58h-178l331 692c3 7 9 7 12 0l330 -692h-188l-26 58c1 0 -256 0 -256 0zM403 194l-70 158l-68 -158h138z" />
    <glyph glyph-name="aogonek" unicode="&#x105;" horiz-adv-x="681" 
d="M207 58l-25 -58h-178l331 692c3 7 9 7 12 0l330 -692h-27c-51 -44 -84 -81 -84 -120c0 -16 12 -23 25 -23c17 0 31 13 39 25l71 -52c-25 -40 -60 -62 -119 -62c-72 0 -118 37 -118 98c0 66 50 110 86 134h-61l-26 58c1 0 -256 0 -256 0zM403 194l-70 158l-68 -158h138z
" />
    <glyph glyph-name="cacute" unicode="&#x107;" horiz-adv-x="690" 
d="M429 722h-133l40 182h188zM679 153c-67 -113 -161 -162 -299 -162c-191 0 -354 144 -354 349s162 348 344 348c147 0 237 -62 294 -146l-137 -93c-26 40 -68 81 -154 81c-100 0 -161 -83 -161 -190s63 -191 167 -191c88 0 131 40 160 94z" />
    <glyph glyph-name="ccaron" unicode="&#x10d;" horiz-adv-x="690" 
d="M526 923l-160 -210c-3 -4 -6 -4 -9 0l-160 210h127l37 -39l38 39h127zM679 153c-67 -113 -161 -162 -299 -162c-191 0 -354 144 -354 349s162 348 344 348c147 0 237 -62 294 -146l-137 -93c-26 40 -68 81 -154 81c-100 0 -161 -83 -161 -190s63 -191 167 -191
c88 0 131 40 160 94z" />
    <glyph glyph-name="ccircumflex" unicode="&#x109;" horiz-adv-x="690" 
d="M198 722l160 210c3 4 6 4 9 0l160 -210h-127l-37 39l-38 -39h-127zM679 153c-67 -113 -161 -162 -299 -162c-191 0 -354 144 -354 349s162 348 344 348c147 0 237 -62 294 -146l-137 -93c-26 40 -68 81 -154 81c-100 0 -161 -83 -161 -190s63 -191 167 -191
c88 0 131 40 160 94z" />
    <glyph glyph-name="dcaron" unicode="&#x10f;" horiz-adv-x="688" 
d="M452 923l-160 -210c-3 -4 -6 -4 -9 0l-160 210h127l37 -39l38 39h127zM59 0v680h263c196 0 344 -129 344 -340s-148 -340 -344 -340h-263zM241 154h61c110 0 178 73 178 186s-68 186 -178 186h-61v-372z" />
    <glyph glyph-name="dcroat" unicode="&#x111;" horiz-adv-x="688" 
d="M59 222h-53v147h53v311h263c196 0 344 -129 344 -340s-148 -340 -344 -340h-263v222zM241 369h128v-147h-128v-68h61c110 0 178 73 178 186s-68 186 -178 186h-61v-157z" />
    <glyph glyph-name="ecaron" unicode="&#x11b;" horiz-adv-x="579" 
d="M460 923l-160 -210c-3 -4 -6 -4 -9 0l-160 210h127l37 -39l38 39h127zM59 0v680h477v-153h-295v-158h246v-145h-246v-71h309v-153h-491z" />
    <glyph glyph-name="edotaccent" unicode="&#x117;" horiz-adv-x="579" 
d="M301 717c-41 0 -80 35 -80 80s39 80 80 80c42 0 79 -35 79 -80s-37 -80 -79 -80zM59 0v680h477v-153h-295v-158h246v-145h-246v-71h309v-153h-491z" />
    <glyph glyph-name="emacron" unicode="&#x113;" horiz-adv-x="579" 
d="M172 722v126h244v-126h-244zM59 0v680h477v-153h-295v-158h246v-145h-246v-71h309v-153h-491z" />
    <glyph glyph-name="eogonek" unicode="&#x119;" horiz-adv-x="579" 
d="M59 0v680h477v-153h-295v-158h246v-145h-246v-71h309v-153h-29c-51 -44 -84 -81 -84 -120c0 -16 12 -23 25 -23c17 0 31 13 39 25l71 -52c-25 -40 -60 -62 -119 -62c-72 0 -118 37 -118 98c0 66 50 110 86 134h-362z" />
    <glyph glyph-name="gbreve" unicode="&#x11f;" horiz-adv-x="741" 
d="M370 715c-100 0 -152 71 -161 138l114 10c4 -16 19 -31 47 -31s43 15 47 31l114 -10c-9 -67 -61 -138 -161 -138zM524 229h-131v140h321c0 -4 1 -15 1 -29c0 -232 -133 -350 -334 -350c-193 0 -355 145 -355 350s160 348 352 348c131 0 235 -58 288 -153l-145 -88
c-26 46 -70 83 -146 83c-108 0 -163 -83 -163 -190s58 -192 170 -192c83 0 121 30 142 81z" />
    <glyph glyph-name="gcircumflex" unicode="&#x11d;" horiz-adv-x="741" 
d="M198 722l160 210c3 4 6 4 9 0l160 -210h-127l-37 39l-38 -39h-127zM524 229h-131v140h321c0 -4 1 -15 1 -29c0 -232 -133 -350 -334 -350c-193 0 -355 145 -355 350s160 348 352 348c131 0 235 -58 288 -153l-145 -88c-26 46 -70 83 -146 83c-108 0 -163 -83 -163 -190
s58 -192 170 -192c83 0 121 30 142 81z" />
    <glyph glyph-name="gcommaaccent" unicode="&#x123;" horiz-adv-x="741" 
d="M524 229h-131v140h321c0 -4 1 -15 1 -29c0 -232 -133 -350 -334 -350c-193 0 -355 145 -355 350s160 348 352 348c131 0 235 -58 288 -153l-145 -88c-26 46 -70 83 -146 83c-108 0 -163 -83 -163 -190s58 -192 170 -192c83 0 121 30 142 81zM307 -295l32 92
c-29 11 -49 40 -49 76c0 50 40 83 86 83c47 0 89 -33 89 -83c0 -31 -13 -60 -34 -90l-55 -78h-69z" />
    <glyph glyph-name="hcircumflex" unicode="&#x125;" horiz-adv-x="718" 
d="M194 722l160 210c3 4 6 4 9 0l160 -210h-127l-37 39l-38 -39h-127zM477 369v311h182v-680h-182v216h-236v-216h-182v680h182v-311h236z" />
    <glyph glyph-name="imacron" unicode="&#x12b;" horiz-adv-x="308" 
d="M32 722v126h244v-126h-244zM63 0v680h182v-680h-182z" />
    <glyph glyph-name="iogonek" unicode="&#x12f;" horiz-adv-x="308" 
d="M63 0v680h182v-680h-27c-51 -44 -84 -81 -84 -120c0 -16 12 -23 25 -23c17 0 31 13 39 25l71 -52c-25 -40 -60 -62 -119 -62c-72 0 -118 37 -118 98c0 66 50 110 86 134h-55z" />
    <glyph glyph-name="jcircumflex" unicode="&#x135;" horiz-adv-x="486" 
d="M168 722l160 210c3 4 6 4 9 0l160 -210h-127l-37 39l-38 -39h-127zM432 680v-489c0 -128 -77 -201 -208 -201c-115 0 -183 47 -218 113l137 88c14 -24 29 -45 60 -45c29 0 47 16 47 58v476h182z" />
    <glyph glyph-name="kcommaaccent" unicode="&#x137;" horiz-adv-x="671" 
d="M241 370l209 310h202s-268 -382 -269 -382l282 -298h-236l-188 205v-205h-182v680h182v-310zM256 -295l32 92c-29 11 -49 40 -49 76c0 50 40 83 86 83c47 0 89 -33 89 -83c0 -31 -13 -60 -34 -90l-55 -78h-69z" />
    <glyph glyph-name="lacute" unicode="&#x13a;" horiz-adv-x="555" 
d="M207 722h-133l40 182h188zM59 0v680h182v-527h289v-153h-471z" />
    <glyph glyph-name="lcaron" unicode="&#x13e;" horiz-adv-x="555" 
d="M347 401l37 105c-37 12 -59 46 -59 87c0 57 46 95 98 95c54 0 102 -38 102 -95c0 -35 -14 -68 -39 -103l-63 -89h-76zM59 0v680h182v-527h289v-153h-471z" />
    <glyph glyph-name="lcommaaccent" unicode="&#x13c;" horiz-adv-x="555" 
d="M59 0v680h182v-527h289v-153h-471zM214 -295l32 92c-29 11 -49 40 -49 76c0 50 40 83 86 83c47 0 89 -33 89 -83c0 -31 -13 -60 -34 -90l-55 -78h-69z" />
    <glyph glyph-name="nacute" unicode="&#x144;" horiz-adv-x="730" 
d="M404 722h-133l40 182h188zM657 -12l-427 351v-339h-171v689c0 6 3 11 14 2l427 -352v341h171v-690c0 -8 -3 -11 -14 -2z" />
    <glyph glyph-name="ncaron" unicode="&#x148;" horiz-adv-x="730" 
d="M530 923l-160 -210c-3 -4 -6 -4 -9 0l-160 210h127l37 -39l38 39h127zM657 -12l-427 351v-339h-171v689c0 6 3 11 14 2l427 -352v341h171v-690c0 -8 -3 -11 -14 -2z" />
    <glyph glyph-name="ncommaaccent" unicode="&#x146;" horiz-adv-x="730" 
d="M657 -12l-427 351v-339h-171v689c0 6 3 11 14 2l427 -352v341h171v-690c0 -8 -3 -11 -14 -2zM311 -295l32 92c-29 11 -49 40 -49 76c0 50 40 83 86 83c47 0 89 -33 89 -83c0 -31 -13 -60 -34 -90l-55 -78h-69z" />
    <glyph glyph-name="ohungarumlaut" unicode="&#x151;" horiz-adv-x="782" 
d="M555 722h-133l40 182h174zM351 722h-133l40 182h174zM391 -9c-196 0 -365 144 -365 349s169 348 365 348s365 -143 365 -348s-169 -349 -365 -349zM391 149c114 0 179 84 179 191s-65 190 -179 190s-179 -83 -179 -190s65 -191 179 -191z" />
    <glyph glyph-name="omacron" unicode="&#x14d;" horiz-adv-x="782" 
d="M269 722v126h244v-126h-244zM391 -9c-196 0 -365 144 -365 349s169 348 365 348s365 -143 365 -348s-169 -349 -365 -349zM391 149c114 0 179 84 179 191s-65 190 -179 190s-179 -83 -179 -190s65 -191 179 -191z" />
    <glyph glyph-name="racute" unicode="&#x155;" horiz-adv-x="629" 
d="M353 722h-133l40 182h188zM480 193l121 -193h-197l-95 156h-68v-156h-182v680h258c183 0 286 -116 286 -267c0 -98 -43 -176 -123 -220zM241 301h67c82 0 112 46 112 112s-30 113 -112 113h-67v-225z" />
    <glyph glyph-name="rcaron" unicode="&#x159;" horiz-adv-x="629" 
d="M462 923l-160 -210c-3 -4 -6 -4 -9 0l-160 210h127l37 -39l38 39h127zM480 193l121 -193h-197l-95 156h-68v-156h-182v680h258c183 0 286 -116 286 -267c0 -98 -43 -176 -123 -220zM241 301h67c82 0 112 46 112 112s-30 113 -112 113h-67v-225z" />
    <glyph glyph-name="rcommaaccent" unicode="&#x157;" horiz-adv-x="629" 
d="M480 193l121 -193h-197l-95 156h-68v-156h-182v680h258c183 0 286 -116 286 -267c0 -98 -43 -176 -123 -220zM247 -295l32 92c-29 11 -49 40 -49 76c0 50 40 83 86 83c47 0 89 -33 89 -83c0 -31 -13 -60 -34 -90l-55 -78h-69zM241 301h67c82 0 112 46 112 112
s-30 113 -112 113h-67v-225z" />
    <glyph glyph-name="sacute" unicode="&#x15b;" horiz-adv-x="568" 
d="M342 722h-133l40 182h188zM286 -10c-153 0 -240 70 -282 126l132 99c33 -41 74 -74 142 -74c54 0 86 16 86 54c0 29 -22 43 -67 58l-80 27c-99 33 -169 93 -169 205c0 134 111 203 232 203c120 0 186 -43 226 -90l-104 -109c-28 29 -58 49 -112 49c-44 0 -66 -20 -66 -47
c0 -26 15 -39 48 -50l90 -30c136 -45 182 -110 182 -206c0 -125 -78 -215 -258 -215z" />
    <glyph glyph-name="scircumflex" unicode="&#x15d;" horiz-adv-x="568" 
d="M112 722l160 210c3 4 6 4 9 0l160 -210h-127l-37 39l-38 -39h-127zM286 -10c-153 0 -240 70 -282 126l132 99c33 -41 74 -74 142 -74c54 0 86 16 86 54c0 29 -22 43 -67 58l-80 27c-99 33 -169 93 -169 205c0 134 111 203 232 203c120 0 186 -43 226 -90l-104 -109
c-28 29 -58 49 -112 49c-44 0 -66 -20 -66 -47c0 -26 15 -39 48 -50l90 -30c136 -45 182 -110 182 -206c0 -125 -78 -215 -258 -215z" />
    <glyph glyph-name="scommaaccent" unicode="&#x219;" horiz-adv-x="568" 
d="M286 -10c-153 0 -240 70 -282 126l132 99c33 -41 74 -74 142 -74c54 0 86 16 86 54c0 29 -22 43 -67 58l-80 27c-99 33 -169 93 -169 205c0 134 111 203 232 203c120 0 186 -43 226 -90l-104 -109c-28 29 -58 49 -112 49c-44 0 -66 -20 -66 -47c0 -26 15 -39 48 -50
l90 -30c136 -45 182 -110 182 -206c0 -125 -78 -215 -258 -215zM219 -295l32 92c-29 11 -49 40 -49 76c0 50 40 83 86 83c47 0 89 -33 89 -83c0 -31 -13 -60 -34 -90l-55 -78h-69z" />
    <glyph glyph-name="tcaron" unicode="&#x165;" horiz-adv-x="588" 
d="M459 923l-160 -210c-3 -4 -6 -4 -9 0l-160 210h127l37 -39l38 39h127zM203 0v527h-180v153h542v-153h-180v-527h-182z" />
    <glyph glyph-name="tcommaaccent" unicode="&#x163;" horiz-adv-x="588" 
d="M203 0v527h-180v153h542v-153h-180v-527h-182zM223 -295l32 92c-29 11 -49 40 -49 76c0 50 40 83 86 83c47 0 89 -33 89 -83c0 -31 -13 -60 -34 -90l-55 -78h-69z" />
    <glyph glyph-name="tcommaaccent" unicode="&#x21b;" horiz-adv-x="588" 
d="M203 0v527h-180v153h542v-153h-180v-527h-182zM223 -295l32 92c-29 11 -49 40 -49 76c0 50 40 83 86 83c47 0 89 -33 89 -83c0 -31 -13 -60 -34 -90l-55 -78h-69z" />
    <glyph glyph-name="ubreve" unicode="&#x16d;" horiz-adv-x="694" 
d="M347 715c-100 0 -152 71 -161 138l114 10c4 -16 19 -31 47 -31s43 15 47 31l114 -10c-9 -67 -61 -138 -161 -138zM347 -10c-170 0 -295 90 -295 273v417h182v-415c0 -77 36 -121 113 -121s113 44 113 121v415h182v-417c0 -183 -125 -273 -295 -273z" />
    <glyph glyph-name="uhungarumlaut" unicode="&#x171;" horiz-adv-x="694" 
d="M510 722h-133l40 182h174zM306 722h-133l40 182h174zM347 -10c-170 0 -295 90 -295 273v417h182v-415c0 -77 36 -121 113 -121s113 44 113 121v415h182v-417c0 -183 -125 -273 -295 -273z" />
    <glyph glyph-name="umacron" unicode="&#x16b;" horiz-adv-x="694" 
d="M225 722v126h244v-126h-244zM347 -10c-170 0 -295 90 -295 273v417h182v-415c0 -77 36 -121 113 -121s113 44 113 121v415h182v-417c0 -183 -125 -273 -295 -273z" />
    <glyph glyph-name="uogonek" unicode="&#x173;" horiz-adv-x="694" 
d="M313 -9c-152 11 -261 101 -261 272v417h182v-415c0 -77 36 -121 113 -121s113 44 113 121v415h182v-417c0 -155 -90 -243 -220 -267c-49 -42 -80 -78 -80 -116c0 -16 12 -23 25 -23c17 0 31 13 39 25l71 -52c-25 -40 -60 -62 -119 -62c-72 0 -118 37 -118 98
c0 59 39 100 73 125z" />
    <glyph glyph-name="uring" unicode="&#x16f;" horiz-adv-x="694" 
d="M347 716c-79 0 -137 58 -137 125c0 68 58 126 137 126s137 -58 137 -126c0 -67 -58 -125 -137 -125zM347 -10c-170 0 -295 90 -295 273v417h182v-415c0 -77 36 -121 113 -121s113 44 113 121v415h182v-417c0 -183 -125 -273 -295 -273zM347 799c22 0 39 17 39 42
s-17 42 -39 42s-39 -17 -39 -42s17 -42 39 -42z" />
    <glyph glyph-name="zacute" unicode="&#x17a;" horiz-adv-x="613" 
d="M378 722h-133l40 182h188zM14 0c-6 0 -8 2 -3 10l301 517h-250v153h529c6 0 8 -2 3 -10l-301 -517h276v-153h-555z" />
    <glyph glyph-name="zdotaccent" unicode="&#x17c;" horiz-adv-x="613" 
d="M310 717c-41 0 -80 35 -80 80s39 80 80 80c42 0 79 -35 79 -80s-37 -80 -79 -80zM14 0c-6 0 -8 2 -3 10l301 517h-250v153h529c6 0 8 -2 3 -10l-301 -517h276v-153h-555z" />
    <glyph glyph-name="idotaccent" horiz-adv-x="308" 
d="M63 0v680h182v-680h-182z" />
    <glyph glyph-name="summation" unicode="&#x2211;" horiz-adv-x="600" 
d="M313 527l146 -209c3 -4 3 -6 0 -10l-125 -155h237v-153h-549c-5 0 -7 4 -2 10l248 302l-253 358c-4 5 -3 10 2 10h536v-153h-240z" />
    </font>
</defs>
</svg>
