<?xml version="1.0" standalone="no"?>
<!DOCTYPE svg PUBLIC "-//W3C//DTD SVG 1.1//EN" "http://www.w3.org/Graphics/SVG/1.1/DTD/svg11.dtd" >
<svg xmlns="http://www.w3.org/2000/svg">
<metadata></metadata>
<defs>
<font id="brooklyn_samuelsno4_medium" horiz-adv-x="978" >
<font-face units-per-em="2048" ascent="1556" descent="-492" />
<missing-glyph horiz-adv-x="342" />
<glyph unicode="&#xfb01;" horiz-adv-x="1005" d="M10 883v102q0 12 9.5 20.5t21.5 8.5h98q10 0 16.5 6.5t6.5 15.5v103q0 140 92 227.5t276 87.5q165 0 297 -78q9 -6 14 -17t-1 -26l-68 -119q-5 -9 -16.5 -13.5t-22.5 1.5q-89 49 -176 49q-68 0 -105.5 -32t-37.5 -93v-90q0 -9 5.5 -15.5t14.5 -6.5h449q13 0 21.5 -8.5 t8.5 -20.5v-956q0 -12 -8.5 -20.5t-21.5 -8.5h-193q-11 0 -19.5 8.5t-8.5 20.5v805q0 8 -6 13t-15 5h-207q-20 0 -20 -21v-802q0 -12 -9 -20.5t-22 -8.5h-193q-11 0 -19.5 8.5t-8.5 20.5v802q0 21 -23 21h-98q-12 0 -21.5 9.5t-9.5 21.5z" />
<glyph unicode="&#xfb02;" horiz-adv-x="1013" d="M10 883v102q0 12 9.5 20.5t21.5 8.5h98q10 0 16.5 6.5t6.5 15.5v109q0 131 73.5 199.5t210.5 68.5q109 0 197 -47q7 -5 17 -0.5t10 14.5v37q0 12 8.5 20.5t21.5 8.5h193q11 0 20 -8.5t9 -20.5v-1388q0 -12 -9 -20.5t-20 -8.5h-193q-13 0 -21.5 8.5t-8.5 20.5v1130 q0 21 -19 31q-40 29 -116 29q-56 0 -88.5 -27t-32.5 -76v-80q0 -9 5.5 -15.5t14.5 -6.5h137q11 0 20 -8.5t9 -20.5v-102q0 -12 -9 -21.5t-20 -9.5h-137q-20 0 -20 -21v-802q0 -12 -9 -20.5t-22 -8.5h-193q-11 0 -19.5 8.5t-8.5 20.5v802q0 21 -23 21h-98q-12 0 -21.5 9.5 t-9.5 21.5z" />
<glyph unicode="&#xfb03;" horiz-adv-x="1507" d="M10 883v102q0 12 9 20.5t22 8.5h92q9 0 15 6.5t6 15.5v156q0 124 75.5 191t212.5 67q113 0 201 -41q11 -5 16 -16t0 -23l-57 -125q-4 -10 -16.5 -14.5t-22.5 0.5q-32 14 -71 14q-38 0 -62 -20.5t-24 -59.5v-129q0 -9 6 -15.5t14 -6.5h229q9 0 15 6.5t6 15.5v103 q0 140 92 227.5t276 87.5q165 0 297 -78q9 -6 14 -17t-1 -26l-68 -119q-5 -9 -16.5 -13.5t-22.5 1.5q-89 49 -176 49q-68 0 -105.5 -32t-37.5 -93v-90q0 -9 5.5 -15.5t14.5 -6.5h436q13 0 22 -8.5t9 -20.5v-956q0 -12 -9 -20.5t-22 -8.5h-192q-11 0 -20 8.5t-9 20.5v805 q0 18 -20 18h-195q-20 0 -20 -21v-802q0 -12 -9 -20.5t-22 -8.5h-192q-11 0 -20 8.5t-9 20.5v802q0 21 -23 21h-227q-8 0 -14 -6t-6 -15v-802q0 -12 -9 -20.5t-22 -8.5h-193q-11 0 -19.5 8.5t-8.5 20.5v802q0 9 -6 15t-15 6h-92q-13 0 -22 9.5t-9 21.5z" />
<glyph unicode="&#xfb04;" horiz-adv-x="1527" d="M10 883v102q0 12 9 20.5t22 8.5h92q9 0 15 6.5t6 15.5v156q0 124 75.5 191t212.5 67q115 0 207 -45q11 -5 17 -16.5t0 -22.5l-60 -125q-4 -10 -15.5 -14.5t-21.5 0.5q-41 18 -77 18q-38 0 -62 -20.5t-24 -59.5v-129q0 -9 6 -15.5t14 -6.5h227q10 0 16.5 6.5t6.5 15.5v109 q0 131 74 199.5t211 68.5q108 0 196 -47q7 -5 17 -0.5t10 14.5v37q0 12 8.5 20.5t21.5 8.5h193q11 0 20 -8.5t9 -20.5v-1388q0 -12 -9 -20.5t-20 -8.5h-193q-13 0 -21.5 8.5t-8.5 20.5v1130q0 21 -19 31q-40 29 -116 29q-56 0 -88.5 -27t-32.5 -76v-80q0 -9 5.5 -15.5 t14.5 -6.5h137q11 0 20 -8.5t9 -20.5v-102q0 -12 -9 -21.5t-20 -9.5h-137q-20 0 -20 -21v-802q0 -12 -9 -20.5t-22 -8.5h-192q-11 0 -20 8.5t-9 20.5v802q0 21 -23 21h-227q-8 0 -14 -6t-6 -15v-802q0 -12 -9 -20.5t-22 -8.5h-193q-11 0 -19.5 8.5t-8.5 20.5v802q0 9 -6 15 t-15 6h-92q-13 0 -22 9.5t-9 21.5z" />
<glyph horiz-adv-x="0" />
<glyph horiz-adv-x="682" />
<glyph unicode=" "  horiz-adv-x="342" />
<glyph unicode="&#x09;" horiz-adv-x="342" />
<glyph unicode="&#xa0;" horiz-adv-x="342" />
<glyph unicode="!" horiz-adv-x="522" d="M117 133q0 61 42 102t101 41q61 0 103.5 -41t42.5 -102q0 -60 -43 -100.5t-103 -40.5q-59 0 -101 41t-42 100zM135 1417q0 11 8.5 20t20.5 9h192q12 0 20.5 -8.5t8.5 -20.5v-950q0 -12 -9.5 -21.5t-21.5 -9.5h-188q-12 0 -20.5 9.5t-8.5 21.5z" />
<glyph unicode="&#x22;" horiz-adv-x="702" d="M61 1333q0 53 36 88t89 35t88 -34.5t35 -88.5q0 -21 -18 -82l-70 -215q-6 -22 -28 -22h-13q-21 0 -30 22l-68 215q-21 61 -21 82zM395 1333q0 53 35.5 88t87.5 35q53 0 88 -34.5t35 -88.5q0 -21 -18 -82l-68 -215q-9 -22 -31 -22h-12q-8 0 -17 6t-12 16l-69 215 q-19 55 -19 82z" />
<glyph unicode="#" horiz-adv-x="1099" d="M92 377v121q0 11 9.5 19.5t21.5 8.5h119q7 0 13.5 6.5t6.5 14.5v354q0 7 -6 13t-14 6h-119q-12 0 -21.5 9t-9.5 21v121q0 11 9.5 20t21.5 9h119q8 0 14 6t6 14v234q0 12 9.5 21t21.5 9h121q12 0 20 -9t8 -21v-234q0 -7 6.5 -13.5t14.5 -6.5h176q7 0 13.5 6t6.5 14v234 q0 12 9 21t20 9h121q12 0 21.5 -9t9.5 -21v-234q0 -8 6.5 -14t15.5 -6h117q12 0 20.5 -9t8.5 -20v-123q0 -11 -8.5 -19.5t-20.5 -8.5h-117q-9 0 -15.5 -5.5t-6.5 -13.5v-354q0 -8 6.5 -14.5t15.5 -6.5h117q12 0 20.5 -8.5t8.5 -19.5v-121q0 -12 -8.5 -21.5t-20.5 -9.5h-117 q-9 0 -15.5 -5.5t-6.5 -14.5v-234q0 -11 -9.5 -20t-21.5 -9h-121q-10 0 -19.5 9.5t-9.5 19.5v234q0 8 -6.5 14t-13.5 6h-176q-8 0 -14.5 -6.5t-6.5 -13.5v-234q0 -11 -8 -20t-20 -9h-121q-12 0 -21.5 9t-9.5 20v234q0 9 -6 14.5t-14 5.5h-119q-12 0 -21.5 10t-9.5 21z M442 547q0 -7 7 -14t14 -7h176q7 0 13.5 6.5t6.5 14.5v352q0 6 -6.5 13.5t-13.5 7.5h-176q-7 0 -14 -7.5t-7 -13.5v-352z" />
<glyph unicode="$" horiz-adv-x="954" d="M67 119.5q-3 12.5 3 21.5l96 148q6 9 19 12t24 -4q99 -74 223 -74q94 0 143.5 42t49.5 112v14q0 24 -4 44t-8 35t-20 34t-24 29t-36.5 31.5t-42 31.5t-57 39.5t-64.5 44.5q-13 9 -46.5 32.5t-45 32t-39.5 29.5t-38 32t-30.5 32.5t-28.5 37t-20.5 39.5t-17.5 47t-9 52.5 t-4 62.5v15q0 152 91.5 251.5t250.5 116.5v277q0 11 8.5 19.5t20.5 8.5h49q13 0 22 -8.5t9 -19.5v-277q133 -14 250 -94q25 -16 10 -43l-94 -145q-6 -11 -19.5 -13.5t-25.5 4.5q-74 52 -156 52q-74 0 -117 -37t-43 -94v-9q0 -75 42.5 -119.5t191.5 -140.5 q170 -103 237.5 -194t67.5 -234v-12q0 -160 -91.5 -264t-252.5 -127v-279q0 -13 -8.5 -21.5t-22.5 -8.5h-49q-12 0 -20.5 8.5t-8.5 21.5v273q-194 5 -352 116q-10 7 -13 19.5z" />
<glyph unicode="%" horiz-adv-x="1720" d="M100 1040v121q0 130 91.5 213.5t228.5 83.5q135 0 226 -83.5t91 -213.5v-121q0 -132 -90.5 -216.5t-226.5 -84.5q-137 0 -228.5 84.5t-91.5 216.5zM289 1040q0 -66 34.5 -101.5t96.5 -35.5q61 0 96 36t35 101v121q0 63 -35.5 99t-95.5 36q-62 0 -96.5 -35.5t-34.5 -99.5 v-121zM342 47l795 1366q17 33 61 33h154q20 0 28 -16t-2 -31l-792 -1366q-20 -33 -64 -33h-153q-18 0 -26.5 15.5t-0.5 31.5zM983 289v121q0 131 91 215t226 84q136 0 228 -84t92 -215v-121q0 -132 -91.5 -215.5t-228.5 -83.5t-227 83.5t-90 215.5zM1169 289 q0 -64 35.5 -100.5t95.5 -36.5q62 0 97 36.5t35 100.5v121q0 64 -35.5 99.5t-96.5 35.5t-96 -35.5t-35 -99.5v-121z" />
<glyph unicode="&#x26;" horiz-adv-x="1251" d="M164 358v172q0 209 168 304q29 16 2 40q-86 80 -86 203v41q0 157 106.5 252.5t274.5 95.5h18q165 0 272 -96t107 -252v-41q0 -77 -30 -138.5t-81 -100t-112 -61t-131 -29.5l-62 -7q-89 -7 -137.5 -60t-48.5 -134v-160q0 -82 56.5 -129t146.5 -47h24q145 0 205 145 q12 27 -12 41l-109 64q-11 7 -12.5 21.5t6.5 23.5l88 100q6 7 18 9t21 -3l483 -278q11 -6 13.5 -20t-6.5 -25l-91 -101q-6 -6 -19 -7.5t-22 3.5l-122 72q-26 14 -41 -12q-135 -264 -416 -264h-31q-195 0 -317.5 107t-122.5 271zM492 1059q0 -61 38 -100t97 -39h18 q59 0 98 39t39 100v39q0 71 -38 109t-99 38h-14q-62 0 -100.5 -38t-38.5 -109v-39z" />
<glyph unicode="'" horiz-adv-x="370" d="M61 1333q0 53 35.5 88t87.5 35q53 0 89 -35t36 -88q0 -21 -18 -82l-70 -215q-9 -22 -28 -22h-13q-24 0 -30 22l-70 215q-19 55 -19 82z" />
<glyph unicode="(" horiz-adv-x="659" d="M143 723q0 314 68 565.5t207 480.5q12 23 35 13l143 -53q13 -4 17.5 -16.5t-3.5 -24.5q-112 -221 -165.5 -435t-53.5 -530q0 -318 54 -532t167 -433q6 -12 2.5 -24.5t-16.5 -18.5l-141 -53q-25 -8 -39 12q-138 230 -206.5 483.5t-68.5 565.5z" />
<glyph unicode=")" horiz-adv-x="659" d="M46 -266.5q-4 12.5 1 24.5q113 219 167 433t54 532t-53.5 532t-165.5 433q-6 12 -2 24.5t16 16.5l144 53q11 4 21.5 0t15.5 -13q137 -229 204.5 -481t67.5 -565q0 -314 -68 -567.5t-206 -481.5q-13 -20 -37 -12l-142 53q-13 6 -17 18.5z" />
<glyph unicode="*" horiz-adv-x="890" d="M72 1053.5q3 13.5 14 19.5l186 101q9 5 8.5 13t-8.5 13l-186 100q-9 5 -12.5 17.5t2.5 23.5l51 89q6 10 19 14t22 -2l180 -115q9 -5 17 -0.5t8 14.5l-8 213q0 12 9 21.5t21 9.5h103q11 0 19.5 -9.5t8.5 -21.5l-6 -213q0 -10 9 -14.5t16 0.5l178 113q9 6 23 3t20 -13 l51 -87q6 -12 3 -24.5t-15 -18.5l-184 -100q-9 -6 -10.5 -13.5t7.5 -12.5l189 -101q23 -17 8 -43l-51 -88q-6 -11 -18 -14t-23 4l-178 110q-9 6 -17 2t-8 -16l6 -209q1 -12 -8 -21.5t-20 -9.5h-103q-12 0 -21 9.5t-9 21.5l8 209q0 11 -9.5 15t-17.5 -1l-176 -110 q-9 -5 -23 -2.5t-20 12.5l-51 88q-7 10 -4 23.5z" />
<glyph unicode="+" horiz-adv-x="1173" d="M102 664v120q0 11 9 20t22 9h342q9 0 16 6.5t7 14.5v344q0 12 8.5 21t19.5 9h123q11 0 20 -9t9 -21v-344q0 -8 6.5 -14.5t15.5 -6.5h342q10 0 19.5 -9.5t9.5 -19.5v-122q0 -10 -9.5 -19.5t-19.5 -9.5h-342q-9 0 -15.5 -6.5t-6.5 -14.5v-344q0 -12 -9 -20t-20 -8h-123 q-11 0 -19.5 8t-8.5 20v344q0 8 -7 14.5t-16 6.5h-342q-13 0 -22 9.5t-9 21.5z" />
<glyph unicode="," horiz-adv-x="452" d="M80.5 -196q-3.5 14 5.5 28q59 77 59 129q0 49 -28 88q-33 45 -33 92q0 58 40.5 99t102.5 41q61 0 101.5 -41t40.5 -99q0 -88 -56 -182t-141 -168q-13 -10 -29.5 -13.5t-25.5 1.5l-21 6q-12 5 -15.5 19z" />
<glyph unicode="-" horiz-adv-x="659" d="M76 444v131q0 11 9 20t19 9h449q12 0 21.5 -9t9.5 -20v-131q0 -11 -9.5 -19.5t-21.5 -8.5h-449q-10 0 -19 9t-9 19z" />
<glyph unicode="." horiz-adv-x="452" d="M84 131q0 60 41.5 100.5t101.5 40.5q59 0 100.5 -40.5t41.5 -100.5q0 -59 -41.5 -99t-100.5 -40q-60 0 -101.5 39.5t-41.5 99.5z" />
<glyph unicode="/" horiz-adv-x="872" d="M14 -281l625 2018q9 28 41 28h149q17 0 25.5 -12t3.5 -27l-622 -2017q-9 -28 -43 -28h-148q-17 0 -26.5 11.5t-4.5 26.5z" />
<glyph unicode="0" horiz-adv-x="1003" d="M88 397v652q0 197 114.5 305t299.5 108q184 0 298.5 -108.5t114.5 -304.5v-652q0 -196 -114.5 -304.5t-298.5 -108.5t-299 108.5t-115 304.5zM340 403q0 -99 40.5 -153.5t121.5 -54.5q162 0 162 208v641q0 94 -39 150.5t-123 56.5q-85 0 -123.5 -55.5t-38.5 -148.5v-644z " />
<glyph unicode="1" horiz-adv-x="538" d="M57 1251l111 181q8 14 29 14h176q13 0 20.5 -8.5t7.5 -20.5v-1388q0 -12 -8 -20.5t-20 -8.5h-195q-11 0 -19.5 8.5t-8.5 20.5v1155q0 22 -21 22h-45q-16 0 -26 14.5t-1 30.5z" />
<glyph unicode="2" horiz-adv-x="882" d="M39 29v108q0 22 14 43l412 617q47 72 69.5 127t22.5 110v25q0 84 -53 134t-146 50q-97 0 -168 -39q-12 -6 -23.5 -1.5t-16.5 16.5l-56 135q-10 28 12 39q126 69 285 69q190 0 305 -104.5t115 -276.5v-39q0 -82 -38.5 -168t-108.5 -190l-299 -442q-5 -8 -1 -15.5t13 -7.5 h381q11 0 19.5 -8.5t8.5 -20.5v-161q0 -12 -8.5 -20.5t-19.5 -8.5h-690q-12 0 -20.5 8.5t-8.5 20.5z" />
<glyph unicode="3" horiz-adv-x="856" d="M57 92l56 135q4 12 17.5 16.5t25.5 -1.5q73 -39 161 -39q101 0 161.5 57t60.5 150v28q0 93 -56.5 146t-152.5 53q-68 0 -133 -21q-9 -3 -20 0.5t-15 12.5l-17 30q-11 21 0 39l310 498q6 9 1.5 20t-16.5 11h-325q-13 0 -22 8.5t-9 19.5v162q0 12 9 20.5t22 8.5h626 q12 0 21.5 -8.5t9.5 -20.5v-108q0 -25 -18 -54l-273 -419q-6 -7 -3.5 -16.5t11.5 -10.5q142 -15 223 -109.5t81 -253.5v-47q0 -177 -125.5 -296t-321.5 -119q-146 0 -274 69q-25 15 -15 39z" />
<glyph unicode="4" horiz-adv-x="948" d="M47 385v117q0 20 8 33l477 888q13 23 41 23h175q12 0 20 -8.5t8 -20.5v-852q0 -9 7 -14.5t16 -5.5h71q12 0 21.5 -9.5t9.5 -21.5v-129q0 -12 -9.5 -21.5t-21.5 -9.5h-71q-9 0 -16 -6t-7 -14v-305q0 -12 -8 -20.5t-20 -8.5h-195q-13 0 -21 8.5t-8 20.5v305q0 8 -6.5 14 t-15.5 6h-426q-12 0 -20.5 9.5t-8.5 21.5zM297 563q-3 -6 1 -12t11 -6h193q9 0 15.5 5.5t6.5 14.5v371q0 9 -10 11t-14 -7z" />
<glyph unicode="5" horiz-adv-x="858" d="M68 92l55 135q5 12 17 16.5t24 -1.5q77 -41 162 -41q101 0 161 59t60 152v22q0 94 -56 146.5t-157 52.5q-98 0 -184 -53q-14 -9 -30 -1t-16 25v813q0 12 9.5 20.5t21.5 8.5h586q12 0 21.5 -8.5t9.5 -20.5v-162q0 -11 -9.5 -19.5t-21.5 -8.5h-354q-9 0 -16 -6.5t-7 -16.5 v-379q0 -9 6.5 -14t16.5 -2q33 10 73 10q167 0 264 -99.5t97 -277.5v-41q0 -178 -126.5 -297.5t-320.5 -119.5q-148 0 -274 69q-23 13 -12 39z" />
<glyph unicode="6" horiz-adv-x="972" d="M88 377v647q0 199 126.5 318.5t334.5 119.5q127 0 258 -67q10 -4 14.5 -15.5t-0.5 -21.5l-55 -137q-5 -11 -17 -16t-26 1q-76 37 -158 37q-105 0 -165 -59t-60 -164v-275q0 -10 9 -13t16 3q87 74 204 74q161 0 255 -102t94 -273v-57q0 -173 -118.5 -283t-303.5 -110 q-183 0 -295.5 108t-112.5 285zM338 385q0 -89 42.5 -139.5t119.5 -50.5q78 0 122 51t44 139v43q0 87 -43 135.5t-117 48.5q-75 0 -121.5 -48.5t-46.5 -135.5v-43z" />
<glyph unicode="7" horiz-adv-x="817" d="M37 1255v162q0 12 9.5 20.5t21.5 8.5h692q12 0 20 -8.5t8 -20.5v-90q0 -46 -10 -80l-375 -1220q-9 -27 -34 -27h-222q-11 0 -17.5 10.5t-2.5 22.5l379 1165q4 12 -3.5 20.5t-19.5 8.5h-415q-12 0 -21.5 8.5t-9.5 19.5z" />
<glyph unicode="8" horiz-adv-x="993" d="M80 358v183q0 182 149 272q7 5 7 13t-7 14q-116 97 -116 237v33q0 161 104 256.5t279 95.5q177 0 281 -95.5t104 -256.5v-33q0 -137 -115 -237q-6 -6 -5.5 -14.5t7.5 -12.5q143 -89 143 -272v-183q0 -169 -110.5 -272.5t-304.5 -103.5q-195 0 -305.5 103.5t-110.5 272.5z M336 369q0 -80 43.5 -128t116.5 -48t116 48t43 128v190q0 80 -41.5 127t-115.5 47q-77 0 -119.5 -46.5t-42.5 -127.5v-190zM354 1055q0 -69 39 -112.5t105 -43.5q63 0 101 43.5t38 112.5v39q0 75 -37.5 116t-103.5 41t-104 -41t-38 -116v-39z" />
<glyph unicode="9" horiz-adv-x="974" d="M57 1012v55q0 174 118 284.5t302 110.5t296 -108t112 -287v-649q0 -198 -125 -316t-336 -118q-133 0 -258 67q-24 12 -12 41l55 131q5 11 17 16t26 -1q72 -35 158 -35q106 0 164.5 57.5t58.5 163.5v276q0 10 -7.5 13.5t-15.5 -2.5q-87 -74 -204 -74q-161 0 -255 102.5 t-94 272.5zM309 1018q0 -87 42.5 -135.5t115.5 -48.5q77 0 123.5 48.5t46.5 135.5v43q0 89 -42.5 139.5t-119.5 50.5q-78 0 -122 -51t-44 -139v-43z" />
<glyph unicode=":" horiz-adv-x="452" d="M84 233q0 60 41.5 101t101.5 41q59 0 100.5 -41t41.5 -101q0 -59 -41.5 -99t-100.5 -40q-60 0 -101.5 39.5t-41.5 99.5zM84 786q0 60 41.5 101t101.5 41q59 0 100.5 -41t41.5 -101t-41.5 -100.5t-100.5 -40.5q-60 0 -101.5 40.5t-41.5 100.5z" />
<glyph unicode=";" horiz-adv-x="454" d="M79.5 -102q-3.5 14 6.5 28q61 85 61 127q0 53 -30 90q-31 42 -31 90q0 60 39.5 101t101.5 41t103 -41.5t41 -100.5q0 -87 -57 -179.5t-142 -168.5q-12 -11 -29.5 -14.5t-25.5 0.5l-23 8q-11 5 -14.5 19zM86 786q0 60 40.5 101t100.5 41t102 -41t42 -101t-42 -100.5 t-102 -40.5t-100.5 40.5t-40.5 100.5z" />
<glyph unicode="&#x3c;" horiz-adv-x="1204" d="M102 690v66q0 24 25 35l940 376q12 5 23.5 -3t11.5 -21v-121q0 -28 -25 -37l-639 -250q-10 -3 -10 -12t10 -12l639 -250q25 -6 25 -37v-119q0 -13 -11.5 -21t-23.5 -5l-940 376q-25 11 -25 35z" />
<glyph unicode="=" horiz-adv-x="1173" d="M102 483v121q0 11 9 20t22 9h909q10 0 19.5 -9.5t9.5 -19.5v-123q0 -10 -9 -19t-20 -9h-909q-13 0 -22 9.5t-9 20.5zM102 844v121q0 11 9 19.5t22 8.5h909q11 0 20 -9t9 -19v-123q0 -10 -9.5 -19.5t-19.5 -9.5h-909q-13 0 -22 9.5t-9 21.5z" />
<glyph unicode="&#x3e;" horiz-adv-x="1204" d="M102 305v119q0 12 7.5 23t19.5 14l637 250q10 3 10 12t-10 12l-637 250q-12 4 -19.5 15t-7.5 22v121q0 13 11.5 21t23.5 3l942 -376q23 -10 23 -35v-66q0 -25 -23 -35l-942 -376q-12 -3 -23.5 5t-11.5 21z" />
<glyph unicode="?" horiz-adv-x="862" d="M62 1333q2 13 12 19q150 116 338 116q187 0 300 -101t113 -267v-31q0 -107 -46.5 -181.5t-139.5 -148.5q-71 -65 -100 -118t-29 -127v-29q0 -11 -9.5 -20t-21.5 -9h-178q-12 0 -20.5 9.5t-8.5 21.5v29q0 119 41 197t127 153q70 59 99.5 105.5t29.5 109.5v18 q0 71 -44 111.5t-128 40.5q-102 0 -180 -64q-24 -18 -43 4l-106 140q-8 9 -6 22zM248 133q0 61 42 102t101 41q61 0 103.5 -41t42.5 -102q0 -60 -43 -100.5t-103 -40.5q-59 0 -101 41t-42 100z" />
<glyph unicode="@" horiz-adv-x="2320" d="M104 272q0 145 50.5 290t139 269.5t211.5 232.5t264 184t301.5 119.5t318.5 43.5q243 0 429 -76.5t293 -229.5t107 -364q0 -124 -47.5 -242.5t-125 -208.5t-172.5 -159t-193.5 -105t-184.5 -36q-125 0 -172 96q-5 8 -15 8t-16 -8q-98 -98 -243 -98q-151 -2 -242.5 103.5 t-91.5 285.5v258q0 179 96 285t244 106q73 0 125 -21.5t102 -66.5q6 -6 12.5 -4t8.5 8l12 49q10 23 33 23h159q11 0 20 -8.5t9 -20.5v-778q0 -39 25 -55.5t61 -10.5q81 13 163 66.5t147 132t106 183.5t41 212q0 259 -185.5 412t-502.5 153q-144 0 -287.5 -37.5t-269.5 -104 t-235.5 -161t-187.5 -205t-122.5 -241.5t-44.5 -264q0 -169 87 -299.5t242.5 -200.5t354.5 -70q216 0 409 84q10 5 23.5 1t17.5 -17l19 -51q5 -12 1 -23t-14 -16q-93 -41 -214.5 -68.5t-239.5 -27.5q-238 0 -423 77t-294 231t-109 365zM958 385q0 -89 45 -139.5t125 -50.5 q71 0 129 49q27 20 27 55v414q0 35 -27 55q-58 49 -133 49q-76 0 -121 -50t-45 -138v-244z" />
<glyph unicode="A" horiz-adv-x="1118" d="M23 37l469 1386q7 23 32 23h78q26 0 33 -23l461 -1386q1 -4 1 -8q-1 -9 -7 -17q-10 -12 -23 -12h-186q-31 0 -37 25l-60 184q-5 12 -16 20.5t-23 8.5h-366q-29 0 -39 -29l-57 -184q-9 -25 -37 -25h-195q-14 0 -23 11q-6 8 -6 17q0 4 1 9zM414 446q-1 -2 -1 -5q-1 -5 3 -9 q4 -6 12 -6h268q10 0 14 6q3 4 2 8q0 3 -1 6l-136 424q-3 11 -12 11q-11 0 -14 -11z" />
<glyph unicode="B" horiz-adv-x="1060" d="M115 29v1388q0 10 8 19.5t20 9.5h420q163 0 257.5 -92t94.5 -242v-78q0 -125 -100 -209q-10 -9 -9 -21t13 -18q84 -38 135.5 -113t51.5 -169v-107q0 -111 -42 -199t-127 -141.5t-202 -56.5h-492q-13 0 -20.5 8.5t-7.5 20.5zM367 246q0 -8 5.5 -14.5t14.5 -6.5h172 q85 0 130.5 44t45.5 126v99q0 73 -41.5 115t-128.5 42h-178q-20 0 -20 -22v-383zM367 862q0 -8 5.5 -15t14.5 -7h125q67 3 108.5 43.5t41.5 111.5v74q0 72 -41.5 112t-116.5 40h-117q-9 0 -14.5 -6.5t-5.5 -14.5v-338z" />
<glyph unicode="C" horiz-adv-x="983" d="M82 510v430q0 235 146.5 378.5t379.5 143.5q171 0 310 -92q12 -6 14 -18.5t-4 -22.5l-92 -143q-6 -10 -18 -13.5t-23 3.5q-83 53 -183 53q-126 0 -200 -78t-74 -211v-430q0 -139 73 -217t201 -78q100 0 185 57q24 15 41 -10l94 -145q4 -6 4 -14q0 -3 -1 -7 q-3 -12 -13 -20q-137 -92 -310 -92q-238 0 -384 142.5t-146 383.5z" />
<glyph unicode="D" horiz-adv-x="1140" d="M115 29v1388q0 11 8 20t20 9h394q239 0 380.5 -134.5t141.5 -371.5v-436q0 -156 -68.5 -271.5t-185 -174t-264.5 -58.5h-398q-12 0 -20 8.5t-8 20.5zM367 246q0 -21 20 -21h150q123 0 194.5 74t71.5 205v436q0 131 -72.5 206t-198.5 75h-145q-9 0 -14.5 -6.5t-5.5 -14.5 v-954z" />
<glyph unicode="E" horiz-adv-x="948" d="M115 29v1388q0 11 8 20t20 9h715q12 0 21.5 -9t9.5 -20v-168q0 -12 -9.5 -20t-21.5 -8h-471q-9 0 -14.5 -6.5t-5.5 -14.5v-358q0 -8 5.5 -13.5t14.5 -5.5h315q13 0 22 -9t9 -21v-148q0 -12 -9 -20.5t-22 -8.5h-315q-9 0 -14.5 -6.5t-5.5 -15.5v-348q0 -21 20 -21h471 q12 0 21.5 -8.5t9.5 -19.5v-168q0 -12 -9.5 -20.5t-21.5 -8.5h-715q-12 0 -20 8.5t-8 20.5z" />
<glyph unicode="F" horiz-adv-x="935" d="M115 29v1388q0 11 8 20t20 9h731q12 0 20.5 -9t8.5 -20v-168q0 -12 -8.5 -20t-20.5 -8h-487q-9 0 -14.5 -6.5t-5.5 -14.5v-432q0 -20 20 -20h330q12 0 21.5 -9t9.5 -20v-148q0 -13 -9.5 -21.5t-21.5 -8.5h-330q-9 0 -14.5 -6.5t-5.5 -14.5v-491q0 -12 -9.5 -20.5 t-21.5 -8.5h-193q-12 0 -20 8.5t-8 20.5z" />
<glyph unicode="G" horiz-adv-x="1144" d="M82 504v436q0 235 149 378.5t383 143.5q172 0 314 -94q12 -6 15 -18.5t-3 -22.5l-94 -143q-17 -25 -41 -10q-82 55 -189 55q-126 0 -202 -77.5t-76 -211.5v-434q0 -134 73 -212.5t195 -78.5q92 0 170 47q21 12 21 41v225q0 8 -6 14.5t-15 6.5h-149q-12 0 -21.5 9t-9.5 20 v131q0 12 9.5 20t21.5 8h393q12 0 20.5 -8t8.5 -20v-680q0 -11 -8.5 -20t-20.5 -9h-27q-18 0 -37 16l-67 66q-14 14 -31 0q-121 -98 -295 -98q-97 0 -184 35t-153 99.5t-105 164t-39 221.5z" />
<glyph unicode="H" horiz-adv-x="1179" d="M115 29v1388q0 11 8.5 20t21.5 9h193q10 0 19.5 -9t9.5 -20v-573q0 -21 22 -21h404q20 0 20 21v573q0 11 9.5 20t21.5 9h192q12 0 20.5 -9t8.5 -20v-1388q0 -12 -8.5 -20.5t-20.5 -8.5h-192q-12 0 -21.5 8.5t-9.5 20.5v565q0 9 -5.5 15.5t-14.5 6.5h-404q-22 0 -22 -22 v-565q0 -12 -9 -20.5t-20 -8.5h-195q-12 0 -20 8.5t-8 20.5z" />
<glyph unicode="I" horiz-adv-x="479" d="M115 29v1388q0 11 8 20t20 9h195q10 0 19.5 -9t9.5 -20v-1388q0 -12 -9 -20.5t-20 -8.5h-195q-12 0 -20 8.5t-8 20.5z" />
<glyph unicode="J" horiz-adv-x="714" d="M26 67q-1 4 -1 9q0 7 4 14l75 131q14 25 41 12q42 -22 93 -22q58 0 89 34t31 89v1083q0 11 8.5 20t20.5 9h195q12 0 20 -9t8 -20v-1091q0 -141 -87 -238.5t-242 -97.5q-139 0 -240 59q-11 6 -15 18z" />
<glyph unicode="K" horiz-adv-x="1095" d="M115 29v1388q0 11 8 20t20 9h193q12 0 20.5 -9t8.5 -20v-688q0 -8 5.5 -14t14.5 -6h10q96 0 174 52.5t121.5 137.5t48.5 184l19 334q0 12 9 20.5t21 8.5h201q12 0 21 -9.5t8 -21.5l-19 -334q-7 -144 -69 -261t-164 -191q-15 -11 -6 -29l293 -557q5 -6 5 -14q0 -5 -4 -13 q-8 -16 -26 -16h-221q-19 0 -29 16l-239 490q-3 9 -12.5 13t-18.5 1q-52 -14 -113 -14h-10q-8 0 -14 -6t-6 -15v-456q0 -12 -8.5 -20.5t-20.5 -8.5h-193q-12 0 -20 8.5t-8 20.5z" />
<glyph unicode="L" horiz-adv-x="897" d="M115 29v1388q0 11 8 20t20 9h195q10 0 19.5 -9t9.5 -20v-1171q0 -21 22 -21h436q12 0 20.5 -8.5t8.5 -19.5v-168q0 -12 -8.5 -20.5t-20.5 -8.5h-680q-13 0 -21.5 8.5t-8.5 20.5z" />
<glyph unicode="M" horiz-adv-x="1372" d="M70 33l145 1388q1 10 9.5 17.5t19.5 7.5h24q16 0 27 -14l379 -631q4 -8 12 -8t12 8l379 631q11 14 27 14h24q11 0 19.5 -7.5t9.5 -17.5l146 -1388q1 -13 -9 -23t-22 -10h-189q-10 0 -18 7t-10 18l-78 749q-2 11 -11.5 13t-15.5 -7l-239 -383q-11 -14 -25 -14 q-17 0 -24 14l-240 383q-6 9 -15.5 7t-11.5 -13l-78 -749q-2 -11 -10 -18t-18 -7h-189q-12 0 -21.5 10t-8.5 23z" />
<glyph unicode="N" horiz-adv-x="1214" d="M115 29v1388q0 11 8 20t20 9h27q18 0 27 -12l626 -791q6 -8 15.5 -5t9.5 13v766q0 11 8.5 20t20.5 9h192q13 0 22 -9t9 -20v-1388q0 -12 -9.5 -20.5t-21.5 -8.5h-29q-20 0 -30 14l-617 791q-6 9 -16 6t-10 -14v-768q0 -12 -8.5 -20.5t-20.5 -8.5h-195q-12 0 -20 8.5 t-8 20.5z" />
<glyph unicode="O" horiz-adv-x="1210" d="M82 508v432q0 236 144.5 379t379.5 143q233 0 377.5 -143t144.5 -379v-432q0 -238 -144.5 -381t-377.5 -143q-235 0 -379.5 143t-144.5 381zM338 508q0 -139 72.5 -216t195.5 -77q122 0 194 77t72 216v432q0 137 -72 213t-194 76q-123 0 -195.5 -76t-72.5 -213v-432z" />
<glyph unicode="P" horiz-adv-x="1064" d="M115 29v1388q0 11 8 20t20 9h490q158 0 266.5 -112t108.5 -275v-121q0 -178 -111.5 -287.5t-271.5 -109.5h-238q-9 0 -15.5 -6.5t-6.5 -14.5v-491q0 -12 -8.5 -20.5t-20.5 -8.5h-193q-13 0 -20.5 8.5t-7.5 20.5zM365 768q0 -9 6.5 -16t15.5 -7h174q77 0 124.5 49 t47.5 128v120q0 84 -48 131.5t-134 47.5h-164q-9 0 -15.5 -7t-6.5 -16v-430z" />
<glyph unicode="Q" horiz-adv-x="1210" d="M82 508v432q0 236 144.5 379t379.5 143q233 0 377.5 -143t144.5 -379v-432q0 -190 -91 -319t-253 -177q-25 -7 -16 -32q33 -104 114 -173.5t205 -76.5q12 -2 20.5 -10.5t8.5 -20.5v-166q0 -12 -8.5 -21.5t-20.5 -9.5q-210 1 -362 127t-205 334q-6 29 -37 35 q-185 34 -293 169.5t-108 340.5zM338 508q0 -139 72.5 -216t195.5 -77q122 0 194 77t72 216v432q0 137 -72 213t-194 76q-123 0 -195.5 -76t-72.5 -213v-432z" />
<glyph unicode="R" horiz-adv-x="1093" d="M115 29v1388q0 11 8.5 20t21.5 9h482q160 0 269.5 -111t109.5 -282v-179q0 -127 -63 -216t-163 -134q-19 -10 -16 -30q23 -127 94 -201.5t193 -83.5q11 -2 18.5 -10.5t7.5 -20.5v-162q0 -11 -8 -19.5t-20 -8.5q-221 0 -354 124t-171 349q-4 22 -24 22h-113 q-9 0 -14.5 -6.5t-5.5 -15.5v-432q0 -12 -9 -20.5t-20 -8.5h-195q-12 0 -20 8.5t-8 20.5zM367 698q0 -9 5.5 -15.5t14.5 -6.5h170q79 0 128.5 49.5t49.5 134.5v178q0 89 -48.5 136t-139.5 47h-160q-9 0 -14.5 -7t-5.5 -16v-500z" />
<glyph unicode="S" horiz-adv-x="935" d="M67 120q-1 4 -1 7q0 8 4 14l96 148q6 9 19 12t24 -4q99 -74 223 -74q94 0 143.5 42t49.5 112v14q0 24 -4 44t-8 35t-20 34t-24 29t-36.5 31.5t-42 31.5t-57 39.5t-64.5 44.5q-13 9 -46.5 32.5t-45 32t-39.5 29.5t-38 32t-30.5 32.5t-28.5 37t-20.5 39.5t-17.5 47t-9 52.5 t-4 62.5v15q0 166 108 268t291 102q161 0 302 -96q25 -16 10 -43l-94 -145q-6 -11 -19.5 -13.5t-25.5 4.5q-74 52 -156 52q-74 0 -117 -37t-43 -94v-9q0 -75 42.5 -119.5t191.5 -140.5q170 -103 237.5 -194t67.5 -234v-12q0 -182 -117 -289.5t-319 -107.5t-369 116 q-10 8 -13 20z" />
<glyph unicode="T" horiz-adv-x="931" d="M27 1249v168q0 11 8.5 20t21.5 9h820q10 0 19 -9t9 -20v-168q0 -12 -8.5 -20t-19.5 -8h-265q-8 0 -14 -7t-6 -16v-1169q0 -12 -9 -20.5t-22 -8.5h-192q-12 0 -20.5 8.5t-8.5 20.5v1169q0 9 -7 16t-16 7h-260q-13 0 -21.5 8t-8.5 20z" />
<glyph unicode="U" horiz-adv-x="1173" d="M109 461v956q0 11 8 20t20 9h195q12 0 20 -9t8 -20v-956q0 -118 58.5 -182t167.5 -64t168 64t59 182v956q0 11 9.5 20t19.5 9h194q12 0 20.5 -9t8.5 -20v-956q0 -218 -131 -347.5t-348 -129.5q-215 0 -346 129.5t-131 347.5z" />
<glyph unicode="V" horiz-adv-x="1114" d="M20 1409q-1 4 -1 8q-1 9 5 17q8 12 21 12h193q12 0 22.5 -7.5t13.5 -19.5l267 -923q4 -11 12 -11q10 0 14 11l267 923q3 12 13.5 19.5t22.5 7.5h197q15 0 23 -12q6 -8 5 -17q0 -4 -1 -8l-437 -1386q-8 -23 -34 -23h-144q-10 0 -20 7t-13 16z" />
<glyph unicode="W" horiz-adv-x="1560" d="M20 1411q-1 4 -1 7q0 9 6 17q8 11 20 11h203q30 0 37 -31l200 -897q3 -11 13.5 -11.5t15.5 9.5l238 567q8 17 24 17h10q17 0 23 -17l240 -567q4 -9 14.5 -8.5t13.5 10.5l199 897q3 13 14 22t23 9h203q13 0 21 -12q6 -8 6 -16q0 -3 -1 -7l-342 -1384q-7 -27 -35 -27h-100 q-25 0 -35 23l-235 563q-3 8 -15 8q-11 0 -14 -8l-234 -563q-10 -23 -34 -23h-103q-28 0 -35 27z" />
<glyph unicode="X" horiz-adv-x="1142" d="M36 14q-4 7 -3 13q0 7 4 14l375 690q14 29 0 55l-332 619q-8 13 -0.5 27t24.5 14h220q24 0 34 -21l195 -383q6 -12 18 -12q13 0 19 12l194 383q10 21 35 21h219q17 0 25 -13.5t0 -27.5l-332 -619q-15 -28 0 -55l375 -690q3 -6 3 -13q1 -7 -3 -14q-8 -14 -23 -14h-223 q-25 0 -35 20l-235 449q-7 10 -19 10q-13 0 -18 -10l-236 -449q-10 -20 -32 -20h-224q-17 0 -25 14z" />
<glyph unicode="Y" horiz-adv-x="1105" d="M16 1407q-3 6 -3 12q0 7 5 15q8 12 23 12h197q25 0 36 -25l261 -626q3 -9 12 -9h2q9 0 12 9l262 626q11 25 37 25h203q15 0 23 -12q4 -7 4 -15q0 -6 -3 -12l-401 -920q-12 -27 -12 -55v-395q0 -15 -11 -26t-26 -11h-178q-15 0 -26 11t-11 26v395q0 32 -10 55z" />
<glyph unicode="Z" horiz-adv-x="1003" d="M41 29v14q0 19 10 39l545 1108q5 9 -0.5 20t-17.5 11h-433q-11 0 -19.5 8t-8.5 20v168q0 11 9 20t19 9h775q13 0 21.5 -9t8.5 -20v-12q0 -19 -8 -35l-541 -1112q-5 -11 1 -22t18 -11h485q12 0 21.5 -8t9.5 -20v-168q0 -12 -9.5 -20.5t-21.5 -8.5h-835q-11 0 -20 8.5 t-9 20.5z" />
<glyph unicode="[" horiz-adv-x="643" d="M154 -289v2026q0 12 9.5 20t20.5 8h367q13 0 22 -8.5t9 -19.5v-160q0 -12 -9 -21.5t-22 -9.5h-133q-8 0 -15.5 -6.5t-7.5 -13.5v-1606q0 -8 7.5 -14t15.5 -6h133q13 0 22 -9t9 -20v-160q0 -13 -8.5 -21.5t-22.5 -8.5h-367q-11 0 -20.5 8.5t-9.5 21.5z" />
<glyph unicode="\" horiz-adv-x="905" d="M31 1726q-5 15 4 27t26 12h150q14 0 25 -7t14 -19l624 -2018q5 -17 -3 -28.5t-25 -11.5h-152q-30 0 -39 28z" />
<glyph unicode="]" horiz-adv-x="643" d="M61 -129q0 11 9.5 20t21.5 9h133q9 0 16 5.5t7 14.5v1606q0 8 -7 14t-16 6h-133q-12 0 -21.5 9.5t-9.5 21.5v160q0 11 9.5 19.5t21.5 8.5h367q12 0 21 -8t9 -20v-2026q0 -13 -9 -21.5t-21 -8.5h-367q-12 0 -21.5 8.5t-9.5 21.5v160z" />
<glyph unicode="^" horiz-adv-x="1040" d="M66 150l387 827q10 24 34 24h66q25 0 35 -24l387 -827q5 -12 -3.5 -23.5t-21.5 -11.5h-119q-24 0 -38 24l-258 576q-5 10 -15 10q-9 0 -14 -10l-258 -576q-14 -24 -37 -24h-119q-15 0 -23.5 11.5t-2.5 23.5z" />
<glyph unicode="_" horiz-adv-x="1173" d="M-29 -274q0 11 8.5 19.5t20.5 8.5h1174q13 0 22.5 -8.5t9.5 -19.5v-132q0 -11 -9.5 -19.5t-22.5 -8.5h-1174q-12 0 -20.5 8.5t-8.5 19.5v132z" />
<glyph unicode="`" horiz-adv-x="409" d="M-19.5 1348.5q0.5 16.5 15.5 25.5l108 64q28 14 50 -4l264 -213q12 -9 11 -24t-13 -23l-74 -46q-26 -11 -49 2l-299 195q-14 7 -13.5 23.5z" />
<glyph unicode="a" d="M66 377v258q0 179 95.5 285t241.5 106q75 0 127.5 -22t102.5 -68q6 -6 12 -4t8 8l13 51q7 23 30 23h160q12 0 20.5 -8.5t8.5 -20.5v-956q0 -12 -8.5 -20.5t-20.5 -8.5h-192q-12 0 -20.5 8.5t-8.5 20.5v39q0 9 -7.5 12t-15.5 -4q-88 -88 -213 -88q-151 0 -242 104.5 t-91 284.5zM309 385q0 -89 45 -139.5t123 -50.5q73 0 131 49q27 20 27 55v412q0 37 -27 57q-62 49 -133 49q-76 0 -121 -50t-45 -138v-244z" />
<glyph unicode="b" horiz-adv-x="980" d="M92 29v1388q0 12 9.5 20.5t21.5 8.5h192q12 0 20.5 -8.5t8.5 -20.5v-465q0 -8 7.5 -11t13.5 3q82 82 206 82q146 0 244 -106t98 -285v-258q0 -180 -99 -284.5t-249 -104.5q-123 0 -219 90q-6 6 -12 4t-8 -10l-13 -52q-6 -20 -30 -20h-160q-12 0 -21.5 8.5t-9.5 20.5z M344 301q0 -38 25 -57q58 -49 131 -49q77 0 123.5 50.5t46.5 139.5v244q0 87 -46 137.5t-124 50.5t-131 -47q-25 -22 -25 -57v-412z" />
<glyph unicode="c" horiz-adv-x="753" d="M66 373v264q0 168 117 281.5t298 113.5q126 0 226 -59q11 -6 15 -18q1 -4 1 -9q0 -7 -4 -14l-68 -131q-5 -10 -16.5 -14t-22.5 1q-53 35 -125 35q-81 0 -128.5 -52.5t-47.5 -135.5v-258q0 -83 47.5 -135t128.5 -52q60 0 125 35q12 6 23 1.5t16 -15.5l66 -131 q11 -26 -12 -39q-100 -59 -224 -59q-183 0 -299 113.5t-116 277.5z" />
<glyph unicode="d" d="M66 377v258q0 181 94 286t241 105q123 0 211 -82q6 -6 14.5 -3.5t8.5 11.5v465q0 12 8.5 20.5t20.5 8.5h192q12 0 20.5 -8.5t8.5 -20.5v-1388q0 -12 -8.5 -20.5t-20.5 -8.5h-162q-22 0 -28 20l-13 54q-1 8 -7.5 9t-12.5 -5q-90 -90 -230 -90q-151 0 -244 106t-93 283z M309 385q0 -90 45 -140t121 -50q75 0 133 49q27 20 27 57v410q0 35 -27 59q-50 47 -129 47t-124.5 -50t-45.5 -138v-244z" />
<glyph unicode="e" horiz-adv-x="937" d="M66 379v256q0 176 114.5 285.5t290.5 109.5q180 0 295 -108t115 -287v-170q0 -12 -9.5 -21.5t-21.5 -9.5h-518q-9 0 -15 -6t-6 -14v-35q0 -90 51 -139.5t144 -49.5q75 0 133 46q20 16 41 2l131 -101q11 -9 11.5 -22.5t-9.5 -22.5q-120 -108 -307 -108q-196 0 -318 110 t-122 285zM311 618q0 -22 21 -22h282q8 0 14.5 6t6.5 16v19q0 89 -41.5 137.5t-118.5 48.5q-79 0 -121.5 -47.5t-42.5 -138.5v-19z" />
<glyph unicode="f" horiz-adv-x="608" d="M10 883v102q0 12 9 20.5t22 8.5h92q9 0 15 6.5t6 15.5v156q0 124 75.5 191t212.5 67q132 0 234 -57q11 -5 15 -17q1 -4 1 -9q0 -7 -4 -15l-65 -119q-5 -9 -17 -13t-24 1q-46 24 -90 24q-38 0 -62 -20.5t-24 -59.5v-129q0 -9 6 -15.5t14 -6.5h170q12 0 20.5 -8.5 t8.5 -20.5v-102q0 -12 -8.5 -21.5t-20.5 -9.5h-170q-8 0 -14 -6t-6 -15v-802q0 -12 -9 -20.5t-22 -8.5h-193q-11 0 -19.5 8.5t-8.5 20.5v802q0 9 -6 15t-15 6h-92q-13 0 -22 9.5t-9 21.5z" />
<glyph unicode="g" d="M66 377v258q0 179 95.5 285t241.5 106q75 0 127.5 -22t102.5 -68q4 -5 11.5 -3.5t8.5 7.5l13 51q7 23 30 23h160q12 0 20.5 -8.5t8.5 -20.5v-1073q0 -182 -119.5 -291.5t-319.5 -109.5q-145 0 -266 67q-25 14 -12 41l61 121q6 11 18 14.5t23 -2.5q73 -39 160 -39 q101 0 153 54t52 151v156q0 8 -8.5 10t-14.5 -4q-89 -92 -213 -92q-151 0 -242 104.5t-91 284.5zM309 385q0 -89 45 -139.5t123 -50.5q75 0 131 47q27 20 27 57v410q0 39 -27 59q-58 49 -133 49q-76 0 -121 -50t-45 -138v-244z" />
<glyph unicode="h" horiz-adv-x="970" d="M92 29v1388q0 12 9.5 20.5t21.5 8.5h192q12 0 20.5 -8.5t8.5 -20.5v-467q0 -9 8.5 -11.5t14.5 3.5q90 84 221 84q141 0 219 -91t78 -261v-645q0 -12 -8.5 -20.5t-20.5 -8.5h-192q-12 0 -20.5 8.5t-8.5 20.5v639q0 73 -36 107t-97 34q-78 0 -133 -49q-25 -21 -25 -51v-680 q0 -12 -8.5 -20.5t-20.5 -8.5h-192q-12 0 -21.5 8.5t-9.5 20.5z" />
<glyph unicode="i" horiz-adv-x="436" d="M88 1286q0 56 38 93.5t93 37.5q54 0 92.5 -38t38.5 -93t-38 -92t-93 -37q-56 0 -93.5 37t-37.5 92zM92 29v956q0 12 9 20.5t20 8.5h192q13 0 22 -8.5t9 -20.5v-956q0 -12 -9 -20.5t-22 -8.5h-192q-11 0 -20 8.5t-9 20.5z" />
<glyph unicode="j" horiz-adv-x="440" d="M-231 -392q-2 6 -2 10q0 8 4 15l69 125q5 9 14.5 13.5t18.5 1.5q55 -19 96 -19q61 0 94 35.5t33 93.5v1102q0 12 8.5 20.5t20.5 8.5h192q12 0 20.5 -8.5t8.5 -20.5v-1100q0 -145 -89 -242.5t-241 -97.5q-124 0 -231 47q-12 4 -16 16zM90 1286q0 55 38.5 93t92.5 38 t92.5 -38t38.5 -93t-38 -92t-93 -37t-93 37t-38 92z" />
<glyph unicode="k" horiz-adv-x="931" d="M92 29v1388q0 12 8.5 20.5t20.5 8.5h192q13 0 22 -8.5t9 -20.5v-842q0 -24 25 -20q100 17 161 86t68 176l12 170q1 13 10.5 20t18.5 7h201q12 0 20.5 -9t7.5 -22l-16 -174q-19 -209 -180 -328q-14 -10 -4 -26l243 -410q6 -8 6 -16q0 -6 -3 -13q-8 -16 -27 -16h-215 q-19 0 -29 16l-180 344q-7 17 -27 13q-30 -9 -74 -13q-7 0 -12.5 -6t-5.5 -14v-311q0 -12 -9 -20.5t-22 -8.5h-192q-12 0 -20.5 8.5t-8.5 20.5z" />
<glyph unicode="l" horiz-adv-x="436" d="M92 29v1388q0 12 9.5 20.5t21.5 8.5h192q12 0 20.5 -8.5t8.5 -20.5v-1388q0 -12 -8.5 -20.5t-20.5 -8.5h-192q-12 0 -21.5 8.5t-9.5 20.5z" />
<glyph unicode="m" horiz-adv-x="1501" d="M92 29v956q0 12 9.5 20.5t21.5 8.5h162q20 0 26 -19l15 -53q2 -6 9 -8t13 4q95 88 227 88q175 0 246 -127q5 -8 13 -8.5t14 6.5q101 129 266 129q143 0 222 -91.5t79 -260.5v-645q0 -12 -8.5 -20.5t-20.5 -8.5h-194q-11 0 -20 8.5t-9 20.5v639q0 72 -35 106.5t-96 34.5 q-74 0 -133 -66q-22 -25 -22 -61v-653q0 -12 -8.5 -20.5t-20.5 -8.5h-193q-12 0 -20 8.5t-8 20.5v639q0 73 -35 107t-96 34q-73 0 -127 -45q-25 -18 -25 -53v-682q0 -12 -8.5 -20.5t-20.5 -8.5h-192q-12 0 -21.5 8.5t-9.5 20.5z" />
<glyph unicode="n" horiz-adv-x="970" d="M92 29v956q0 12 9.5 20.5t21.5 8.5h162q22 0 28 -19l13 -55q2 -6 9 -8t13 4q103 90 236 90q144 0 222.5 -90.5t78.5 -261.5v-645q0 -12 -8.5 -20.5t-20.5 -8.5h-192q-12 0 -20.5 8.5t-8.5 20.5v639q0 73 -36 107t-97 34q-80 0 -133 -47q-25 -21 -25 -53v-680 q0 -12 -8.5 -20.5t-20.5 -8.5h-192q-12 0 -21.5 8.5t-9.5 20.5z" />
<glyph unicode="o" horiz-adv-x="974" d="M66 377v260q0 171 119.5 282t301.5 111t303 -111t121 -282v-260q0 -170 -121 -281.5t-303 -111.5t-301.5 111.5t-119.5 281.5zM311 377q0 -86 47 -136.5t129 -50.5t130.5 50.5t48.5 136.5v260q0 86 -48.5 136t-130.5 50t-129 -50t-47 -136v-260z" />
<glyph unicode="p" horiz-adv-x="980" d="M92 -406v1391q0 12 9 20.5t20 8.5h162q21 0 28 -21l13 -49q1 -7 8.5 -9t13.5 3q88 88 217 88q146 0 248 -107.5t102 -283.5v-258q0 -183 -96 -286t-244 -103q-121 0 -208 80q-6 6 -13.5 2.5t-7.5 -11.5v-465q0 -11 -9 -19.5t-22 -8.5h-192q-11 0 -20 9t-9 19zM344 299 q0 -38 25 -57q59 -47 131 -47q78 0 124 50.5t46 139.5v244q0 88 -46 138t-122 50q-81 0 -133 -49q-25 -22 -25 -57v-412z" />
<glyph unicode="q" d="M66 377v258q0 179 95.5 285t241.5 106q77 0 130.5 -21t99.5 -67q6 -6 12 -4t8 8l13 49q7 23 30 23h160q12 0 20.5 -8.5t8.5 -20.5v-1391q0 -12 -8.5 -20t-20.5 -8h-192q-12 0 -20.5 8t-8.5 20v474q0 9 -7.5 11.5t-15.5 -3.5q-88 -88 -213 -88q-151 0 -242 104.5 t-91 284.5zM309 385q0 -89 45 -139.5t123 -50.5q71 0 131 47q27 20 27 57v414q0 37 -27 57q-56 47 -133 47q-76 0 -121 -50t-45 -138v-244z" />
<glyph unicode="r" horiz-adv-x="710" d="M92 29v956q0 12 9.5 20.5t21.5 8.5h162q22 0 28 -19l13 -49q2 -6 9 -8t13 4q79 82 195 82q73 0 149 -39q9 -5 13 -15q2 -5 2 -10.5t-2 -11.5l-66 -147q-5 -11 -17 -15t-24 2q-48 21 -88 21q-79 0 -139 -51q-27 -20 -27 -60v-669q0 -12 -8.5 -20.5t-20.5 -8.5h-192 q-12 0 -21.5 8.5t-9.5 20.5z" />
<glyph unicode="s" horiz-adv-x="739" d="M50 92v5q0 9 5 18l82 125q6 10 20 12t21 -4q76 -55 160 -55q58 0 87.5 26.5t29.5 65.5v16q0 50 -30.5 76t-113.5 59q-61 23 -100.5 44.5t-76 54.5t-54 79.5t-17.5 108.5v18q0 128 91.5 207.5t234.5 79.5q132 0 236 -74q9 -6 12 -18t-4 -23l-80 -125q-6 -10 -18.5 -12 t-24.5 6q-56 35 -107 35q-43 0 -68.5 -23t-25.5 -57v-14q0 -42 30 -65.5t112 -57.5q40 -16 68 -29t59 -31t51 -39t37.5 -48.5t25.5 -63t8 -78.5v-26q0 -128 -92 -214.5t-248 -86.5q-172 0 -299 90q-9 6 -11 18z" />
<glyph unicode="t" horiz-adv-x="671" d="M2 883v102q0 12 8.5 20.5t20.5 8.5h94q8 0 14 5.5t6 14.5v234q0 12 8.5 21t20.5 9h193q12 0 21 -9t9 -21v-234q0 -20 21 -20h170q12 0 20 -8.5t8 -20.5v-102q0 -12 -8 -21.5t-20 -9.5h-170q-9 0 -15 -6t-6 -15v-552q0 -41 23 -62.5t59 -21.5q38 0 84 24q12 6 24.5 3 t18.5 -13l64 -125q4 -8 4 -15q0 -5 -2 -9q-4 -12 -15 -19q-104 -53 -225 -53q-287 0 -287 260v583q0 9 -6 15t-14 6h-94q-12 0 -20.5 9.5t-8.5 21.5z" />
<glyph unicode="u" horiz-adv-x="962" d="M84 342v643q0 12 9.5 20.5t21.5 8.5h192q12 0 20.5 -8.5t8.5 -20.5v-639q0 -141 131 -141q77 0 127 47q24 21 24 53v680q0 12 9 20.5t20 8.5h193q13 0 21.5 -8.5t8.5 -20.5v-956q0 -12 -8.5 -20.5t-21.5 -8.5h-162q-21 0 -27 18l-14 56q-2 6 -9 8t-12 -4 q-100 -92 -233 -92q-142 0 -220.5 92t-78.5 264z" />
<glyph unicode="v" horiz-adv-x="923" d="M23 979q-2 5 -2 9q0 6 5 14q8 12 21 12h186q12 0 23 -7.5t14 -19.5l179 -645q3 -10 12 -10t12 10l180 645q7 27 35 27h189q13 0 21 -12q5 -7 5 -14q0 -5 -2 -9l-299 -954q-6 -25 -33 -25h-215q-26 0 -32 25z" />
<glyph unicode="w" horiz-adv-x="1292" d="M33 981q-1 4 -1 7q0 9 6 16q8 10 19 10h193q13 0 23.5 -8.5t13.5 -20.5l131 -614q2 -11 11.5 -11.5t12.5 9.5l164 424q3 9 12.5 15.5t20.5 6.5h14q11 0 20.5 -6.5t12.5 -15.5l164 -424q3 -9 12.5 -8t11.5 10l132 614q3 12 13 20.5t23 8.5h193q12 0 20 -10q6 -7 6 -16 q0 -3 -1 -7l-228 -954q-7 -27 -35 -27h-161q-26 0 -35 25l-142 350q-2 8 -14 8q-10 0 -12 -8l-141 -350q-9 -25 -35 -25h-162q-28 0 -35 27z" />
<glyph unicode="x" horiz-adv-x="921" d="M19 12q-3 6 -3 12q0 7 4 13l293 475q7 14 0 27l-260 438q-8 12 -1 24.5t22 12.5h198q26 0 37 -21l137 -254q5 -8 15 -8q9 0 14 8l137 254q10 21 37 21h201q15 0 21.5 -12.5t-1.5 -24.5l-260 -438q-7 -13 0 -27l291 -475q5 -7 5 -14q0 -5 -2 -11q-6 -12 -21 -12h-203 q-25 0 -35 20l-168 295q-5 11 -16 11q-10 0 -17 -11l-165 -295q-10 -20 -37 -20h-201q-15 0 -22 12z" />
<glyph unicode="y" horiz-adv-x="927" d="M20 977q-2 5 -2 10q0 8 5 15q8 12 22 12h186q25 0 37 -25l187 -581q3 -9 12 -9t12 9l187 581q9 25 34 25h183q14 0 21 -11q4 -7 4 -15q0 -4 -1 -9l-465 -1387q-3 -12 -13.5 -19t-22.5 -7h-166q-12 0 -20.5 12t-4.5 25l133 399q8 22 0 45z" />
<glyph unicode="z" horiz-adv-x="819" d="M33 29v8q0 22 8 35l397 725q6 12 0.5 23t-20.5 11h-299q-12 0 -20.5 9t-8.5 20v125q0 12 8.5 20.5t20.5 8.5h631q12 0 20 -8.5t8 -20.5v-8q0 -17 -8 -33l-397 -729q-6 -11 -0.5 -22t18.5 -11h344q12 0 20.5 -8t8.5 -20v-125q0 -12 -8.5 -20.5t-20.5 -8.5h-674 q-12 0 -20 8.5t-8 20.5z" />
<glyph unicode="{" horiz-adv-x="626" d="M104 723.5q0 12.5 9 21.5q40 36 74 96.5t34 135.5v524q0 194 164 283q13 7 27 0l129 -60q13 -6 16 -19.5t-8 -25.5q-84 -81 -84 -217v-485q0 -79 -33.5 -140.5t-73.5 -97.5q-6 -6 -5.5 -16t7.5 -14q105 -105 105 -240v-485q0 -139 84 -217q11 -9 8 -24.5t-16 -21.5 l-121 -57q-8 -4 -18.5 -4t-16.5 4q-164 90 -164 281v524q0 131 -108 233q-9 9 -9 21.5z" />
<glyph unicode="|" horiz-adv-x="473" d="M174 -289v2026q0 11 8.5 19.5t20.5 8.5h67q12 0 21.5 -8.5t9.5 -19.5v-2026q0 -13 -9.5 -21.5t-21.5 -8.5h-67q-11 0 -20 8.5t-9 21.5z" />
<glyph unicode="}" horiz-adv-x="626" d="M69 1703q3 15 15 21l123 58q18 10 35 0q161 -88 161 -281v-524q0 -129 111 -234q8 -9 8 -21.5t-8 -21.5q-42 -37 -76.5 -96.5t-34.5 -134.5v-524q0 -196 -161 -283q-14 -7 -29 0l-129 59q-11 6 -14.5 20t6.5 26q86 77 86 215v487q0 79 32.5 140t73.5 98q13 18 -2 30 q-104 99 -104 240v485q0 137 -86 217q-10 9 -7 24z" />
<glyph unicode="~" horiz-adv-x="1095" d="M70 500q-20 33 4 57q116 127 276 127q53 0 101.5 -13.5t69 -24.5t67.5 -38q45 -27 81 -40t83 -13q96 0 176 80q13 13 34 11t31 -19l33 -49q7 -12 6 -29t-10 -29q-133 -133 -289 -133q-28 0 -55 4t-44.5 8t-41.5 15t-33 15.5t-34 19t-29 16.5q-86 51 -162 51 q-91 0 -170 -74q-10 -11 -31.5 -7.5t-30.5 18.5z" />
<glyph unicode="&#xa1;" horiz-adv-x="522" d="M117 883q0 59 42 100t101 41q60 0 103 -40.5t43 -100.5q0 -61 -42.5 -102.5t-103.5 -41.5q-59 0 -101 41.5t-42 102.5zM135 -403v950q0 12 9.5 20t21.5 8h190q12 0 21.5 -8t9.5 -20v-950q0 -12 -8.5 -21.5t-20.5 -9.5h-192q-12 0 -21.5 9t-9.5 22z" />
<glyph unicode="&#xa2;" horiz-adv-x="759" d="M66 373v264q0 152 98.5 261.5t255.5 129.5v162q0 11 8 20t21 9h49q12 0 21 -9t9 -20v-160q97 -9 179 -57q11 -6 14.5 -18t-2.5 -23l-68 -131q-5 -10 -16.5 -14t-22.5 1q-53 35 -125 35q-81 0 -128.5 -52.5t-47.5 -135.5v-258q0 -83 47.5 -135t128.5 -52q60 0 125 35 q12 6 23 1.5t16 -15.5l66 -131q11 -26 -12 -39q-76 -47 -177 -57v-177q0 -13 -9 -21.5t-21 -8.5h-49q-12 0 -20.5 8.5t-8.5 21.5v179q-159 20 -256.5 129t-97.5 258z" />
<glyph unicode="&#xa3;" horiz-adv-x="933" d="M41 664v110q0 13 9.5 22t21.5 9h80q20 0 20 22l-16 234q-14 177 95.5 290t303.5 113q148 0 272 -65q23 -10 15 -37l-58 -135q-3 -12 -15 -17.5t-24 0.5q-70 37 -155 37q-88 0 -137 -53t-43 -139l14 -230q0 -9 6 -14.5t14 -5.5h148q12 0 21.5 -9t9.5 -22v-110 q0 -12 -9.5 -20.5t-21.5 -8.5h-133q-23 0 -23 -25l10 -176q8 -98 -49 -178q-6 -9 -0.5 -20t17.5 -11h436q14 0 22.5 -8.5t8.5 -21.5v-166q0 -12 -9 -20.5t-22 -8.5h-725q-12 0 -20.5 8.5t-8.5 20.5v118q0 18 15 37q27 28 43.5 50t33 71t11.5 105l-13 204q0 8 -6.5 14.5 t-15.5 6.5h-92q-12 0 -21.5 8.5t-9.5 20.5z" />
<glyph unicode="&#xa5;" horiz-adv-x="1120" d="M25 1407q-6 14 1.5 26.5t22.5 12.5h195q28 0 39 -25l260 -626q3 -9 12 -9h4q7 0 10 9l262 626q11 25 37 25h203q15 0 23.5 -13t1.5 -26l-338 -774h178q12 0 21.5 -9.5t9.5 -21.5v-63q0 -12 -9.5 -20.5t-21.5 -8.5h-231l-11 -23q-12 -27 -12 -55v-84h254q12 0 21.5 -9 t9.5 -20v-63q0 -12 -9.5 -21.5t-21.5 -9.5h-254v-188q0 -15 -11 -26t-26 -11h-178q-15 0 -26 11t-11 26v188h-246q-12 0 -21 10t-9 21v63q0 11 9 20t21 9h246v84q0 25 -10 55l-10 23h-226q-12 0 -21 9.5t-9 21.5v61q0 12 9 21.5t21 9.5h172z" />
<glyph unicode="&#xa6;" horiz-adv-x="473" d="M174 -289v879q0 11 8.5 19.5t20.5 8.5h67q12 0 21.5 -8.5t9.5 -19.5v-879q0 -13 -9.5 -21.5t-21.5 -8.5h-67q-11 0 -20 8.5t-9 21.5zM174 858v879q0 11 8.5 19.5t20.5 8.5h67q12 0 21.5 -8.5t9.5 -19.5v-879q0 -13 -9.5 -22t-21.5 -9h-67q-11 0 -20 9t-9 22z" />
<glyph unicode="&#xa7;" horiz-adv-x="1089" d="M121 553v12q0 159 135 240q5 2 5.5 8.5t-5.5 11.5q-102 83 -102 238v37q0 171 112 269.5t299 98.5q174 0 316 -104q20 -20 4 -39l-107 -139q-18 -21 -41 -4q-78 57 -170 57q-80 0 -126 -36t-46 -101v-35q0 -68 49.5 -106.5t186.5 -73.5q117 -28 188.5 -63t113.5 -95.5 t42 -148.5v-13q0 -147 -135 -233q-6 -4 -6 -11.5t6 -11.5q62 -42 91.5 -100t29.5 -145v-50q0 -173 -117.5 -279t-323.5 -106q-215 0 -381 129q-9 8 -11 20t5 21l109 142q5 8 17.5 8.5t21.5 -6.5q110 -86 237 -86q97 0 147 42t50 115v45q0 71 -54 106t-198 71 q-94 23 -154.5 47t-105 60.5t-63.5 86.5t-19 121zM365 598q0 -74 38 -110.5t136 -63.5q60 -18 110 -29q26 -6 41 13q43 49 43 112v12q0 67 -35 101t-127 61q-92 28 -118 35q-24 6 -45 -12q-43 -40 -43 -109v-10z" />
<glyph unicode="&#xa8;" horiz-adv-x="409" d="M-84 1282q0 46 32.5 78.5t78.5 32.5q45 0 76.5 -32.5t31.5 -78.5t-31.5 -78.5t-76.5 -32.5q-46 0 -78.5 32.5t-32.5 78.5zM272 1282q0 46 32.5 78.5t78.5 32.5t77.5 -32.5t31.5 -78.5t-31.5 -78.5t-77.5 -32.5t-78.5 32.5t-32.5 78.5z" />
<glyph unicode="&#xa9;" horiz-adv-x="1548" d="M123 725q0 141 49.5 263t136 207.5t207.5 134t260 48.5q138 0 258 -48.5t206 -134t135.5 -207.5t49.5 -263t-49.5 -263t-135.5 -206.5t-206 -133t-258 -48.5q-139 0 -260 48t-207.5 133t-136 207t-49.5 263zM188 725q0 -128 44.5 -237.5t122.5 -185.5t187 -119.5 t234 -43.5q124 0 232 43.5t185.5 119.5t122 185.5t44.5 237.5t-44.5 237.5t-122 186.5t-185.5 120.5t-232 43.5q-125 0 -234 -43.5t-187 -120.5t-122.5 -186.5t-44.5 -237.5zM338 686v80q0 197 127.5 320.5t327.5 123.5q153 0 274 -86q16 -12 4 -28l-72 -95q-19 -19 -34 -4 q-71 58 -172 58q-128 0 -202.5 -79t-74.5 -210v-80q0 -131 74.5 -209t202.5 -78q99 0 170 56q19 13 32 -4l76 -97q5 -6 3.5 -15t-7.5 -13q-115 -82 -274 -82q-203 0 -329 122t-126 320z" />
<glyph unicode="&#xaa;" horiz-adv-x="872" d="M94 946v189q0 155 81.5 240t205.5 85q60 0 103 -18.5t85 -55.5q5 -4 10 -2.5t7 5.5l10 41q6 18 27 18h127q10 0 17 -7t7 -18v-764q0 -11 -7 -18.5t-17 -7.5h-154q-11 0 -19 8t-8 18v31q0 6 -4.5 8t-9.5 -2q-83 -73 -180 -73q-128 0 -204.5 86.5t-76.5 236.5zM293 952 q0 -77 38 -118t105 -41q63 0 113 41q20 14 20 45v321q0 30 -20 47q-46 43 -111 43q-68 0 -106.5 -42t-38.5 -118v-178z" />
<glyph unicode="&#xab;" horiz-adv-x="886" d="M82 512q0 11 6 20l227 318q10 16 29 16h94q13 0 16.5 -9t-1.5 -17l-191 -314q-4 -6 -4 -14t4 -14l191 -314q5 -8 1.5 -17t-16.5 -9h-94q-19 0 -29 16l-227 318q-6 9 -6 20zM430 512q0 11 6 20l228 318q10 16 28 16h94q13 0 16.5 -9t-1.5 -17l-191 -314q-4 -6 -4 -14 t4 -14l191 -314q5 -8 1.5 -17t-16.5 -9h-94q-18 0 -28 16l-228 318q-6 9 -6 20z" />
<glyph unicode="&#xac;" horiz-adv-x="1173" d="M102 842v123q0 11 9 19.5t22 8.5h907q12 0 21.5 -8.5t9.5 -19.5v-484q0 -11 -9.5 -19.5t-21.5 -8.5h-133q-12 0 -20 8.5t-8 19.5v312q0 8 -7 14t-16 6h-723q-13 0 -22 9t-9 20z" />
<glyph unicode="&#xad;" horiz-adv-x="659" d="M76 444v131q0 11 9 20t19 9h449q12 0 21.5 -9t9.5 -20v-131q0 -11 -9.5 -19.5t-21.5 -8.5h-449q-10 0 -19 9t-9 19z" />
<glyph unicode="&#xae;" horiz-adv-x="1042" d="M82 1040q0 193 125 317t315 124q189 0 314 -124.5t125 -316.5t-125 -316t-314 -124q-190 0 -315 124t-125 316zM143 1040q0 -166 107.5 -272t271.5 -106q163 0 270 106t107 272t-107.5 272.5t-269.5 106.5q-164 0 -271.5 -106.5t-107.5 -272.5zM324 786v523q0 16 16 16 h227q71 0 119.5 -49.5t48.5 -122.5v-6q0 -55 -29 -95.5t-75 -60.5q-4 -1 -7 -7t-1 -11q12 -50 46.5 -80t84.5 -33q14 -4 14 -18v-62q0 -6 -5 -11t-11 -5q-90 0 -152.5 54t-81.5 145q-4 14 -14 14h-60q-12 0 -12 -14v-177q0 -16 -18 -16h-74q-16 0 -16 16zM432 1073 q0 -10 12 -10h95q37 0 59.5 21.5t22.5 58.5v6q0 37 -23 58.5t-61 21.5h-93q-12 0 -12 -15v-141z" />
<glyph unicode="&#xaf;" horiz-adv-x="819" d="M123 1219v98q0 13 9.5 22t21.5 9h514q12 0 21 -9t9 -22v-98q0 -12 -9 -21.5t-21 -9.5h-514q-12 0 -21.5 9.5t-9.5 21.5z" />
<glyph unicode="&#xb0;" horiz-adv-x="518" d="M31 1243q0 98 64.5 159.5t162.5 61.5t163.5 -61.5t65.5 -159.5q0 -97 -65.5 -158t-163.5 -61t-162.5 61t-64.5 158zM145 1243q0 -53 30.5 -84t82.5 -31q53 0 83 30.5t30 84.5q0 55 -30 86t-83 31q-52 0 -82.5 -31t-30.5 -86z" />
<glyph unicode="&#xb1;" horiz-adv-x="1173" d="M102 248v123q0 11 8.5 19.5t20.5 8.5h909q12 0 21.5 -8.5t9.5 -19.5v-121q0 -11 -9.5 -21t-21.5 -10h-909q-12 0 -20.5 9t-8.5 20zM102 848v119q0 12 9 21t22 9h342q9 0 16 6t7 15v278q0 12 8.5 21.5t19.5 9.5h123q11 0 20 -9.5t9 -21.5v-278q0 -9 6.5 -15t15.5 -6h342 q11 0 20 -9t9 -21v-121q0 -12 -9 -20.5t-20 -8.5h-342q-9 0 -15.5 -6t-6.5 -14v-279q0 -12 -9 -20.5t-20 -8.5h-123q-11 0 -19.5 8.5t-8.5 20.5v279q0 8 -7 14t-16 6h-342q-13 0 -22 9.5t-9 21.5z" />
<glyph unicode="&#xb2;" horiz-adv-x="681" d="M72 815v76q0 15 12 39l281 405q57 79 57 140v18q0 46 -31 74t-84 28q-60 0 -114 -26q-12 -6 -24.5 -2t-18.5 16l-39 94q-10 23 14 37q88 51 194 51q135 0 213 -71t78 -191v-24q0 -54 -24 -106.5t-72 -119.5l-184 -264q-8 -11 -3 -22t19 -11h221q13 0 21 -9t8 -21v-111 q0 -13 -8 -22t-21 -9h-465q-13 0 -21.5 9.5t-8.5 21.5z" />
<glyph unicode="&#xb3;" horiz-adv-x="675" d="M75.5 842q-3.5 11 0.5 20l39 96q11 25 41 15q60 -31 120 -31q61 0 98.5 34.5t37.5 90.5v16q0 54 -33.5 85.5t-93.5 31.5q-42 0 -92 -16q-21 -9 -35 10l-21 27q-9 15 2 34l199 293q8 10 2 22.5t-21 12.5h-188q-12 0 -21.5 8.5t-9.5 20.5v112q0 11 9.5 20t21.5 9h428 q12 0 21.5 -9t9.5 -20v-84q0 -19 -15 -38l-196 -261q98 -11 159.5 -80t61.5 -176v-24q0 -122 -85 -205.5t-228 -83.5q-101 0 -199 53q-9 6 -12.5 17z" />
<glyph unicode="&#xb4;" horiz-adv-x="819" d="M186 1197q-1 15 11 24l264 213q10 9 25 9.5t24 -5.5l111 -64q14 -8 14.5 -24t-14.5 -25l-299 -195q-24 -14 -48 -2l-75 46q-12 8 -13 23z" />
<glyph unicode="&#xb5;" horiz-adv-x="966" d="M90 -406v1391q0 12 9 20.5t20 8.5h194q12 0 20.5 -8.5t8.5 -20.5v-692q0 -31 20 -51q39 -39 109 -39q77 0 127 47q25 21 25 53v682q0 12 8.5 20.5t19.5 8.5h193q12 0 21 -8.5t9 -20.5v-956q0 -12 -9 -20.5t-21 -8.5h-164q-24 0 -27 18l-12 52q-2 6 -8 8t-12 -4 q-74 -74 -162 -74q-34 0 -52.5 6t-41.5 21q-6 4 -14.5 -0.5t-8.5 -12.5v-420q0 -12 -9 -20t-22 -8h-192q-11 0 -20 8t-9 20z" />
<glyph unicode="&#xb6;" horiz-adv-x="1536" d="M59 995v23q0 192 128.5 310t334.5 118h918q10 0 19 -9t9 -20v-168q0 -12 -8.5 -20t-19.5 -8h-111q-9 0 -15.5 -7t-6.5 -16v-1169q0 -12 -8.5 -20.5t-20.5 -8.5h-195q-12 0 -20 8.5t-8 20.5v1169q0 9 -6.5 16t-14.5 7h-235q-8 0 -14.5 -7t-6.5 -16v-1169q0 -12 -9 -20.5 t-21 -8.5h-193q-12 0 -20.5 8.5t-8.5 20.5v532q0 9 -7 16t-15 7q-202 5 -323.5 115t-121.5 296zM305 995q0 -100 52 -150t147 -50q8 0 15 6t7 16v381q0 9 -7 16t-15 7q-94 0 -146.5 -51t-52.5 -152v-23z" />
<glyph unicode="&#xb7;" horiz-adv-x="452" d="M84 727q0 60 41.5 100.5t101.5 40.5q59 0 100.5 -40.5t41.5 -100.5q0 -59 -41.5 -99t-100.5 -40q-60 0 -101.5 39.5t-41.5 99.5z" />
<glyph unicode="&#xb8;" horiz-adv-x="819" d="M188 -444l21 45q5 9 17 12.5t24 -0.5q54 -23 100 -23q69 0 103 26.5t34 70.5v20q0 38 -33.5 62t-97.5 24q-49 0 -106 -24q-17 -10 -29 6l-8 12q-10 14 -2 27l113 186h120l-45 -76q-5 -9 -1 -17t16 -9q97 -6 153 -56t56 -131v-28q0 -93 -73.5 -151t-189.5 -58 q-74 0 -159 41q-26 15 -13 41z" />
<glyph unicode="&#xb9;" horiz-adv-x="487" d="M98 1614l74 125q10 14 29 14h114q11 0 20 -9.5t9 -19.5v-909q0 -12 -9 -21.5t-20 -9.5h-127q-12 0 -21 9.5t-9 21.5v733q0 9 -6 16t-15 7h-14q-15 0 -24.5 15t-0.5 28z" />
<glyph unicode="&#xba;" horiz-adv-x="886" d="M94 950v180q0 146 96.5 237t253.5 91q154 0 251.5 -91t97.5 -237v-180q0 -147 -97 -237t-252 -90q-157 0 -253.5 90t-96.5 237zM293 950q0 -73 40 -115t111 -42q68 0 108 42t40 115v180q0 73 -40 116.5t-108 43.5q-70 0 -110.5 -43t-40.5 -117v-180z" />
<glyph unicode="&#xbb;" horiz-adv-x="886" d="M84 167q-4 9 2 17l190 314q5 8 5 14t-5 14l-190 314q-6 8 -2 17t16 9h97q18 0 28 -16l228 -318q6 -9 6 -20t-6 -20l-228 -318q-10 -16 -28 -16h-97q-12 0 -16 9zM432.5 167q-3.5 9 1.5 17l193 314q4 6 4 14t-4 14l-193 314q-5 8 -1.5 17t16.5 9h96q18 0 28 -16l228 -318 q6 -9 6 -20t-6 -20l-228 -318q-10 -16 -28 -16h-96q-13 0 -16.5 9z" />
<glyph unicode="&#xbc;" horiz-adv-x="1431" d="M86 1307l76 125q7 14 26 14h115q12 0 20.5 -9t8.5 -20v-909q0 -12 -8.5 -21.5t-20.5 -9.5h-127q-11 0 -20 9.5t-9 21.5v733q0 9 -6 16t-14 7h-16q-15 0 -24.5 15t-0.5 28zM264 39l621 1378q10 29 41 29h108q17 0 25.5 -12.5t3.5 -26.5l-621 -1378q-4 -13 -16 -21t-25 -8 h-108q-17 0 -26 12t-3 27zM756 268v64q0 22 12 37l340 583q10 17 27 17h110q12 0 20.5 -9t8.5 -20v-528q0 -9 6 -15t14 -6h43q12 0 20.5 -9.5t8.5 -21.5v-92q0 -12 -8.5 -20t-20.5 -8h-43q-7 0 -13.5 -6.5t-6.5 -14.5v-188q0 -13 -8.5 -22t-20.5 -9h-127q-11 0 -19.5 9 t-8.5 22v188q0 8 -7 14.5t-16 6.5h-281q-12 0 -21 8t-9 20zM955 400q5 -9 18 -9h94q9 0 16 6t7 15v170q0 12 -12.5 15t-18.5 -9l-103 -170q-6 -9 -1 -18z" />
<glyph unicode="&#xbd;" horiz-adv-x="1523" d="M86 1307l76 125q7 14 26 14h115q12 0 20.5 -9t8.5 -20v-909q0 -12 -8.5 -21.5t-20.5 -9.5h-127q-11 0 -20 9.5t-9 21.5v733q0 9 -6 16t-14 7h-16q-15 0 -24.5 15t-0.5 28zM264 39l621 1378q10 29 41 29h108q17 0 25.5 -12.5t3.5 -26.5l-621 -1378q-4 -13 -16 -21t-25 -8 h-108q-17 0 -25.5 12t-3.5 27zM905 31v75q0 19 13 39l280 406q57 83 57 137v19q0 47 -31 75.5t-83 28.5q-62 0 -115 -29q-12 -5 -24.5 0t-18.5 17l-39 92q-5 10 -0.5 21.5t14.5 15.5q92 53 195 53q134 0 212.5 -71.5t78.5 -192.5v-23q0 -54 -24 -104.5t-74 -122.5l-183 -262 q-8 -11 -3 -22t20 -11h221q12 0 20.5 -9.5t8.5 -21.5v-110q0 -13 -8.5 -22t-20.5 -9h-465q-14 0 -22.5 9t-8.5 22z" />
<glyph unicode="&#xbe;" horiz-adv-x="1613" d="M86 555l39 96q5 11 17 16t24 -1q60 -31 121 -31t98 34.5t37 90.5v16q0 54 -33.5 85.5t-91.5 31.5q-44 0 -94 -16q-21 -9 -35 10l-21 26q-10 16 5 35l196 293q8 11 2.5 23t-20.5 12h-189q-12 0 -20 8.5t-8 20.5v112q0 11 8 20t20 9h428q13 0 22 -9t9 -20v-84 q0 -25 -14 -39l-195 -260q97 -11 159 -80t62 -176v-24q0 -121 -86 -205t-229 -84q-101 0 -199 53q-22 13 -12 37zM465 39l618 1378q13 29 43 29h109q17 0 25.5 -12.5t3.5 -26.5l-621 -1378q-10 -29 -43 -29h-106q-17 0 -26 12t-3 27zM938 268v64q0 20 10 37l340 583 q10 17 29 17h108q13 0 22 -9t9 -20v-528q0 -9 6.5 -15t14.5 -6h43q12 0 20 -9.5t8 -21.5v-92q0 -12 -8 -20t-20 -8h-43q-7 0 -14 -7t-7 -14v-188q0 -13 -9 -22t-22 -9h-125q-12 0 -20 9t-8 22v188q0 8 -7 14.5t-16 6.5h-280q-12 0 -21.5 8t-9.5 20zM1136.5 400 q4.5 -9 16.5 -9h96q9 0 16 6t7 15v170q0 12 -12.5 15t-18.5 -9l-104 -170q-5 -9 -0.5 -18z" />
<glyph unicode="&#xbf;" horiz-adv-x="868" d="M41 -51q0 106 45.5 180.5t138.5 149.5q72 63 100.5 115.5t28.5 127.5v29q0 12 9.5 20.5t21.5 8.5h180q11 0 20 -9t9 -22v-27q0 -118 -41 -196t-127 -156q-71 -59 -101 -105.5t-30 -107.5v-20q0 -69 44.5 -109.5t127.5 -40.5q102 0 182 63q10 8 23 6t20 -12l107 -139 q8 -9 6 -21.5t-12 -19.5q-152 -115 -340 -115q-186 0 -299 101t-113 266v33zM330 883q0 60 42 101.5t101 41.5q60 0 102.5 -41.5t42.5 -101.5t-42.5 -102t-102.5 -42q-59 0 -101 42t-42 102z" />
<glyph unicode="&#xc0;" horiz-adv-x="1118" d="M23 37l469 1386q7 23 32 23h78q26 0 33 -23l461 -1386q4 -13 -5.5 -25t-23.5 -12h-186q-31 0 -37 25l-60 184q-5 12 -16 20.5t-23 8.5h-366q-29 0 -39 -29l-57 -184q-9 -25 -37 -25h-195q-14 0 -23 11t-5 26zM338.5 1780.5q0.5 16.5 15.5 25.5l109 64q28 14 49 -4 l264 -213q12 -9 11 -24t-13 -23l-74 -45q-26 -11 -49 2l-299 194q-14 7 -13.5 23.5zM414 446q-2 -8 2.5 -14t11.5 -6h268q9 0 13.5 6t1.5 14l-136 424q-3 11 -12 11q-11 0 -14 -11z" />
<glyph unicode="&#xc1;" horiz-adv-x="1118" d="M23 37l469 1386q7 23 32 23h78q26 0 33 -23l461 -1386q4 -13 -5.5 -25t-23.5 -12h-186q-31 0 -37 25l-60 184q-5 12 -16 20.5t-23 8.5h-366q-29 0 -39 -29l-57 -184q-9 -25 -37 -25h-195q-14 0 -23 11t-5 26zM337 1629q-1 15 11 24l264 213q10 9 25.5 9.5t24.5 -5.5 l110 -64q14 -8 14.5 -24t-14.5 -25l-299 -194q-24 -14 -47 -2l-76 45q-12 8 -13 23zM414 446q-2 -8 2.5 -14t11.5 -6h268q9 0 13.5 6t1.5 14l-136 424q-3 11 -12 11q-11 0 -14 -11z" />
<glyph unicode="&#xc2;" horiz-adv-x="1118" d="M23 37l469 1386q7 23 32 23h78q26 0 33 -23l461 -1386q4 -13 -5.5 -25t-23.5 -12h-186q-31 0 -37 25l-60 184q-5 12 -16 20.5t-23 8.5h-366q-29 0 -39 -29l-57 -184q-9 -25 -37 -25h-195q-14 0 -23 11t-5 26zM267 1641.5q-1 15.5 9 21.5l271 192q7 5 16 5t17 -5l270 -192 q10 -6 9.5 -21.5t-11.5 -23.5l-70 -43q-15 -11 -33 0l-170 104q-4 2 -12 2t-12 -2l-170 -104q-18 -11 -33 0l-69 43q-11 8 -12 23.5zM414 446q-2 -8 2.5 -14t11.5 -6h268q9 0 13.5 6t1.5 14l-136 424q-3 11 -12 11q-11 0 -14 -11z" />
<glyph unicode="&#xc3;" horiz-adv-x="1118" d="M23 37l469 1386q7 23 32 23h78q26 0 33 -23l461 -1386q4 -13 -5.5 -25t-23.5 -12h-186q-31 0 -37 25l-60 184q-5 12 -16 20.5t-23 8.5h-366q-29 0 -39 -29l-57 -184q-9 -25 -37 -25h-195q-14 0 -23 11t-5 26zM258 1710q-13 16 4 33q69 80 176 80q78 0 144 -41 q3 -1 11.5 -5.5t11 -6t10.5 -5t11.5 -5t11 -4t13 -3t12.5 -1.5t15 -1q53 0 104 37q7 6 19.5 4t19.5 -12l45 -72q5 -7 4 -18t-8 -17q-74 -84 -184 -84q-33 0 -61.5 7t-41.5 13.5t-40 20.5q-56 31 -97 31q-46 0 -96 -35q-22 -14 -39 10zM414 446q-2 -8 2.5 -14t11.5 -6h268 q9 0 13.5 6t1.5 14l-136 424q-3 11 -12 11q-11 0 -14 -11z" />
<glyph unicode="&#xc4;" horiz-adv-x="1118" d="M23 37l469 1386q7 23 32 23h78q26 0 33 -23l461 -1386q4 -13 -5.5 -25t-23.5 -12h-186q-31 0 -37 25l-60 184q-5 12 -16 20.5t-23 8.5h-366q-29 0 -39 -29l-57 -184q-9 -25 -37 -25h-195q-14 0 -23 11t-5 26zM274 1714q0 46 32.5 78.5t78.5 32.5t77.5 -32.5t31.5 -78.5 t-31.5 -78t-77.5 -32t-78.5 32t-32.5 78zM414 446q-2 -8 2.5 -14t11.5 -6h268q9 0 13.5 6t1.5 14l-136 424q-3 11 -12 11q-11 0 -14 -11zM631 1714q0 46 32 78.5t78 32.5t77.5 -32.5t31.5 -78.5t-31.5 -78t-77.5 -32t-78 32t-32 78z" />
<glyph unicode="&#xc5;" horiz-adv-x="1118" d="M23 37l469 1386q7 23 32 23h78q26 0 33 -23l461 -1386q4 -13 -5.5 -25t-23.5 -12h-186q-31 0 -37 25l-60 184q-5 12 -16 20.5t-23 8.5h-366q-29 0 -39 -29l-57 -184q-9 -25 -37 -25h-195q-14 0 -23 11t-5 26zM381 1714q0 77 52.5 126.5t129.5 49.5t129.5 -49.5 t52.5 -126.5t-52.5 -126.5t-129.5 -49.5t-129.5 49.5t-52.5 126.5zM414 446q-2 -8 2.5 -14t11.5 -6h268q9 0 13.5 6t1.5 14l-136 424q-3 11 -12 11q-11 0 -14 -11zM479 1714q0 -41 22.5 -63.5t61.5 -22.5t61.5 22.5t22.5 63.5t-22.5 63.5t-61.5 22.5t-61.5 -22.5 t-22.5 -63.5z" />
<glyph unicode="&#xc6;" horiz-adv-x="1439" d="M25 37l467 1386q10 23 34 23h822q12 0 21 -9t9 -20v-168q0 -12 -9 -20t-21 -8h-623q-8 0 -12 -7t0 -16l114 -356q8 -19 29 -19h346q12 0 21.5 -9t9.5 -21v-148q0 -12 -9.5 -20.5t-21.5 -8.5h-276q-18 0 -15 -24l115 -346q1 -9 9.5 -15t17.5 -6h295q12 0 21 -8.5t9 -19.5 v-168q0 -12 -9 -20.5t-21 -8.5h-465q-30 0 -39 25l-60 184q-11 29 -39 29h-364q-28 0 -39 -29l-59 -184q-9 -25 -37 -25h-195q-14 0 -23 12t-3 25zM416 446q-3 -8 1 -14t13 -6h268q7 0 12 6t3 14l-135 424q-4 11 -15 11q-10 0 -14 -11z" />
<glyph unicode="&#xc7;" horiz-adv-x="983" d="M82 510v430q0 235 146.5 378.5t379.5 143.5q171 0 310 -92q12 -6 14 -18.5t-4 -22.5l-92 -143q-6 -10 -18 -13.5t-23 3.5q-83 53 -183 53q-126 0 -200 -78t-74 -211v-430q0 -139 73 -217t201 -78q100 0 185 57q24 15 41 -10l94 -145q6 -9 3 -21.5t-13 -19.5 q-128 -86 -287 -92l-35 -60q-5 -9 -1.5 -17t15.5 -9q97 -6 153 -56t56 -131v-28q0 -93 -73 -151t-189 -58q-75 0 -160 41q-25 14 -12 41l21 45q5 9 17 12.5t24 -0.5q54 -23 100 -23q69 0 103 26.5t34 70.5v20q0 38 -33.5 62t-97.5 24q-49 0 -106 -24q-17 -10 -29 6l-8 12 q-10 14 -2 27l106 176q-200 28 -318 166t-118 354z" />
<glyph unicode="&#xc8;" horiz-adv-x="948" d="M115 29v1388q0 11 8 20t20 9h715q12 0 21.5 -9t9.5 -20v-168q0 -12 -9.5 -20t-21.5 -8h-471q-9 0 -14.5 -6.5t-5.5 -14.5v-358q0 -8 5.5 -13.5t14.5 -5.5h315q13 0 22 -9t9 -21v-148q0 -12 -9 -20.5t-22 -8.5h-315q-9 0 -14.5 -6.5t-5.5 -15.5v-348q0 -21 20 -21h471 q12 0 21.5 -8.5t9.5 -19.5v-168q0 -12 -9.5 -20.5t-21.5 -8.5h-715q-12 0 -20 8.5t-8 20.5zM285.5 1780.5q0.5 16.5 15.5 25.5l109 64q28 14 49 -4l264 -213q12 -9 11 -24t-13 -23l-74 -45q-26 -11 -49 2l-299 194q-14 7 -13.5 23.5z" />
<glyph unicode="&#xc9;" horiz-adv-x="948" d="M115 29v1388q0 11 8 20t20 9h715q12 0 21.5 -9t9.5 -20v-168q0 -12 -9.5 -20t-21.5 -8h-471q-9 0 -14.5 -6.5t-5.5 -14.5v-358q0 -8 5.5 -13.5t14.5 -5.5h315q13 0 22 -9t9 -21v-148q0 -12 -9 -20.5t-22 -8.5h-315q-9 0 -14.5 -6.5t-5.5 -15.5v-348q0 -21 20 -21h471 q12 0 21.5 -8.5t9.5 -19.5v-168q0 -12 -9.5 -20.5t-21.5 -8.5h-715q-12 0 -20 8.5t-8 20.5zM280 1629q-1 15 11 24l264 213q10 9 25 9.5t24 -5.5l111 -64q14 -8 14.5 -24t-14.5 -25l-299 -194q-24 -14 -47 -2l-76 45q-12 8 -13 23z" />
<glyph unicode="&#xca;" horiz-adv-x="948" d="M115 29v1388q0 11 8 20t20 9h715q12 0 21.5 -9t9.5 -20v-168q0 -12 -9.5 -20t-21.5 -8h-471q-9 0 -14.5 -6.5t-5.5 -14.5v-358q0 -8 5.5 -13.5t14.5 -5.5h315q13 0 22 -9t9 -21v-148q0 -12 -9 -20.5t-22 -8.5h-315q-9 0 -14.5 -6.5t-5.5 -15.5v-348q0 -21 20 -21h471 q12 0 21.5 -8.5t9.5 -19.5v-168q0 -12 -9.5 -20.5t-21.5 -8.5h-715q-12 0 -20 8.5t-8 20.5zM213.5 1641.5q-0.5 15.5 9.5 21.5l271 192q7 5 16 5q8 0 16 -5l271 -192q10 -6 9.5 -21.5t-11.5 -23.5l-70 -43q-15 -11 -33 0l-170 104q-4 2 -12 2t-12 -2l-170 -104 q-18 -11 -33 0l-70 43q-11 8 -11.5 23.5z" />
<glyph unicode="&#xcb;" horiz-adv-x="948" d="M115 29v1388q0 11 8 20t20 9h715q12 0 21.5 -9t9.5 -20v-168q0 -12 -9.5 -20t-21.5 -8h-471q-9 0 -14.5 -6.5t-5.5 -14.5v-358q0 -8 5.5 -13.5t14.5 -5.5h315q13 0 22 -9t9 -21v-148q0 -12 -9 -20.5t-22 -8.5h-315q-9 0 -14.5 -6.5t-5.5 -15.5v-348q0 -21 20 -21h471 q12 0 21.5 -8.5t9.5 -19.5v-168q0 -12 -9.5 -20.5t-21.5 -8.5h-715q-12 0 -20 8.5t-8 20.5zM219 1714q0 46 32.5 78.5t78.5 32.5q45 0 76.5 -32.5t31.5 -78.5t-31 -78t-77 -32t-78.5 32t-32.5 78zM575 1714q0 46 32.5 78.5t78.5 32.5t77.5 -32.5t31.5 -78.5t-31.5 -78 t-77.5 -32t-78.5 32t-32.5 78z" />
<glyph unicode="&#xcc;" horiz-adv-x="436" d="M-5.5 1780.5q0.5 16.5 15.5 25.5l109 64q28 14 49 -4l264 -213q12 -9 11 -24t-13 -23l-74 -45q-26 -11 -49 2l-299 194q-14 7 -13.5 23.5zM94 29v1388q0 11 8.5 20t20.5 9h194q11 0 20 -9t9 -20v-1388q0 -12 -9 -20.5t-20 -8.5h-194q-12 0 -20.5 8.5t-8.5 20.5z" />
<glyph unicode="&#xcd;" horiz-adv-x="436" d="M-5 1629q-1 15 11 24l264 213q10 9 25 9.5t24 -5.5l111 -64q14 -8 14.5 -24t-14.5 -25l-299 -194q-24 -14 -47 -2l-76 45q-12 8 -13 23zM94 29v1388q0 11 8.5 20t20.5 9h194q11 0 20 -9t9 -20v-1388q0 -12 -9 -20.5t-20 -8.5h-194q-12 0 -20.5 8.5t-8.5 20.5z" />
<glyph unicode="&#xce;" horiz-adv-x="436" d="M-77.5 1641.5q-0.5 15.5 9.5 21.5l271 192q7 5 16 5t17 -5l270 -192q10 -6 9.5 -21.5t-11.5 -23.5l-70 -43q-15 -11 -33 0l-170 104q-4 2 -12 2t-12 -2l-170 -104q-18 -11 -33 0l-70 43q-11 8 -11.5 23.5zM94 29v1388q0 11 8.5 20t20.5 9h194q11 0 20 -9t9 -20v-1388 q0 -12 -9 -20.5t-20 -8.5h-194q-12 0 -20.5 8.5t-8.5 20.5z" />
<glyph unicode="&#xcf;" horiz-adv-x="436" d="M-70 1714q0 46 32.5 78.5t78.5 32.5t77.5 -32.5t31.5 -78.5t-31.5 -78t-77.5 -32t-78.5 32t-32.5 78zM94 29v1388q0 11 8.5 20t20.5 9h194q11 0 20 -9t9 -20v-1388q0 -12 -9 -20.5t-20 -8.5h-194q-12 0 -20.5 8.5t-8.5 20.5zM287 1714q0 46 32 78.5t78 32.5t77.5 -32.5 t31.5 -78.5t-31.5 -78t-77.5 -32t-78 32t-32 78z" />
<glyph unicode="&#xd0;" horiz-adv-x="1140" d="M4 672v88q0 12 9 21.5t22 9.5h59q8 0 14.5 5.5t6.5 14.5v606q0 11 8 20t20 9h394q239 0 380.5 -134.5t141.5 -371.5v-436q0 -156 -68.5 -271.5t-185 -174t-264.5 -58.5h-398q-12 0 -20 8.5t-8 20.5v594q0 7 -6.5 13.5t-14.5 6.5h-59q-13 0 -22 9t-9 20zM367 246 q0 -21 20 -21h150q123 0 194.5 74t71.5 205v436q0 131 -72.5 206t-198.5 75h-145q-9 0 -14.5 -6.5t-5.5 -14.5v-389q0 -20 20 -20h59q12 0 21.5 -9.5t9.5 -21.5v-88q0 -11 -9.5 -20t-21.5 -9h-59q-9 0 -14.5 -6t-5.5 -14v-377z" />
<glyph unicode="&#xd1;" horiz-adv-x="1214" d="M115 29v1388q0 11 8 20t20 9h27q18 0 27 -12l626 -791q6 -8 15.5 -5t9.5 13v766q0 11 8.5 20t20.5 9h192q13 0 22 -9t9 -20v-1388q0 -12 -9.5 -20.5t-21.5 -8.5h-29q-20 0 -30 14l-617 791q-6 9 -16 6t-10 -14v-768q0 -12 -8.5 -20.5t-20.5 -8.5h-195q-12 0 -20 8.5 t-8 20.5zM317 1710q-12 16 5 33q69 80 176 80q77 0 143 -41q3 -1 11.5 -5.5t11 -6t10.5 -5t11.5 -5t11 -4t13 -3t12.5 -1.5t15 -1q54 0 105 37q7 6 19.5 4t19.5 -12l45 -72q5 -7 4 -18t-8 -17q-74 -84 -185 -84q-33 0 -61.5 7t-41.5 13.5t-40 20.5q-56 31 -96 31 q-47 0 -97 -35q-22 -14 -39 10z" />
<glyph unicode="&#xd2;" horiz-adv-x="1210" d="M82 508v432q0 236 144.5 379t379.5 143q233 0 377.5 -143t144.5 -379v-432q0 -238 -144.5 -381t-377.5 -143q-235 0 -379.5 143t-144.5 381zM338 508q0 -139 72.5 -216t195.5 -77q122 0 194 77t72 216v432q0 137 -72 213t-194 76q-123 0 -195.5 -76t-72.5 -213v-432z M385.5 1780.5q0.5 16.5 15.5 25.5l109 64q28 14 49 -4l264 -213q12 -9 11 -24t-13 -23l-73 -45q-27 -11 -50 2l-299 194q-14 7 -13.5 23.5z" />
<glyph unicode="&#xd3;" horiz-adv-x="1210" d="M82 508v432q0 236 144.5 379t379.5 143q233 0 377.5 -143t144.5 -379v-432q0 -238 -144.5 -381t-377.5 -143q-235 0 -379.5 143t-144.5 381zM338 508q0 -139 72.5 -216t195.5 -77q122 0 194 77t72 216v432q0 137 -72 213t-194 76q-123 0 -195.5 -76t-72.5 -213v-432z M378 1629q-1 15 11 24l264 213q10 9 25 9.5t24 -5.5l111 -64q14 -8 14.5 -24t-14.5 -25l-299 -194q-24 -14 -47 -2l-76 45q-12 8 -13 23z" />
<glyph unicode="&#xd4;" horiz-adv-x="1210" d="M82 508v432q0 236 144.5 379t379.5 143q233 0 377.5 -143t144.5 -379v-432q0 -238 -144.5 -381t-377.5 -143q-235 0 -379.5 143t-144.5 381zM310 1641.5q-1 15.5 9 21.5l271 192q7 5 16 5q10 0 17 -5l270 -192q10 -6 9.5 -21.5t-11.5 -23.5l-70 -43q-15 -11 -33 0 l-170 104q-4 2 -12 2t-12 -2l-170 -104q-18 -11 -33 0l-69 43q-11 8 -12 23.5zM338 508q0 -139 72.5 -216t195.5 -77q122 0 194 77t72 216v432q0 137 -72 213t-194 76q-123 0 -195.5 -76t-72.5 -213v-432z" />
<glyph unicode="&#xd5;" horiz-adv-x="1210" d="M82 508v432q0 236 144.5 379t379.5 143q233 0 377.5 -143t144.5 -379v-432q0 -238 -144.5 -381t-377.5 -143q-235 0 -379.5 143t-144.5 381zM303 1710q-13 16 4 33q69 80 176 80q78 0 144 -41q3 -1 11.5 -5.5t11 -6t10.5 -5t11.5 -5t11 -4t13 -3t12.5 -1.5t15 -1 q53 0 104 37q7 6 19.5 4t19.5 -12l45 -72q5 -7 4 -18t-8 -17q-74 -84 -184 -84q-33 0 -61.5 7t-41.5 13.5t-40 20.5q-56 31 -97 31q-46 0 -96 -35q-22 -14 -39 10zM338 508q0 -139 72.5 -216t195.5 -77q122 0 194 77t72 216v432q0 137 -72 213t-194 76q-123 0 -195.5 -76 t-72.5 -213v-432z" />
<glyph unicode="&#xd6;" horiz-adv-x="1210" d="M82 508v432q0 236 144.5 379t379.5 143q233 0 377.5 -143t144.5 -379v-432q0 -238 -144.5 -381t-377.5 -143q-235 0 -379.5 143t-144.5 381zM319 1714q0 46 32.5 78.5t78.5 32.5t77.5 -32.5t31.5 -78.5t-31.5 -78t-77.5 -32t-78.5 32t-32.5 78zM338 508q0 -139 72.5 -216 t195.5 -77q122 0 194 77t72 216v432q0 137 -72 213t-194 76q-123 0 -195.5 -76t-72.5 -213v-432zM676 1714q0 46 32 78.5t78 32.5t77.5 -32.5t31.5 -78.5t-31.5 -78t-77.5 -32t-78 32t-32 78z" />
<glyph unicode="&#xd7;" horiz-adv-x="980" d="M51.5 1047.5q-0.5 12.5 7.5 21.5l86 86q9 8 21.5 7.5t21.5 -9.5l287 -289q18 -11 31 2l287 287q9 7 21.5 7t21.5 -7l86 -86q8 -9 8 -21t-8 -20l-287 -287q-16 -16 -2 -30l287 -287q8 -8 8 -21t-8 -20l-84 -86q-9 -7 -22.5 -7t-22.5 7l-285 287q-13 13 -31 0l-285 -287 q-22 -19 -45 0l-84 84q-8 9 -8.5 21.5t8.5 21.5l287 287q6 5 6 13.5t-6 14.5l-287 289q-9 9 -9.5 21.5z" />
<glyph unicode="&#xd8;" horiz-adv-x="1210" d="M82 508v432q0 236 144.5 379t379.5 143q112 0 205 -35l37 93q12 28 43 28h78q17 0 25.5 -12.5t2.5 -26.5l-61 -149q92 -68 142 -176.5t50 -243.5v-432q0 -238 -144.5 -381t-377.5 -143q-118 0 -211 34l-37 -92q-12 -28 -41 -28h-79q-17 0 -26 12t-3 27l61 151 q-90 68 -139 175.5t-49 244.5zM338 508q0 -99 35 -164l348 862q-54 23 -115 23q-123 0 -195.5 -76t-72.5 -213v-432zM485 240q55 -25 121 -25q122 0 194 77t72 216v432q0 98 -38 166z" />
<glyph unicode="&#xd9;" horiz-adv-x="1173" d="M109 461v956q0 11 8 20t20 9h195q12 0 20 -9t8 -20v-956q0 -118 58.5 -182t167.5 -64t168 64t59 182v956q0 11 9.5 20t19.5 9h194q12 0 20.5 -9t8.5 -20v-956q0 -218 -131 -347.5t-348 -129.5q-215 0 -346 129.5t-131 347.5zM365.5 1780.5q0.5 16.5 15.5 25.5l108 64 q28 14 50 -4l264 -213q12 -9 11 -24t-13 -23l-74 -45q-26 -11 -49 2l-299 194q-14 7 -13.5 23.5z" />
<glyph unicode="&#xda;" horiz-adv-x="1173" d="M109 461v956q0 11 8 20t20 9h195q12 0 20 -9t8 -20v-956q0 -118 58.5 -182t167.5 -64t168 64t59 182v956q0 11 9.5 20t19.5 9h194q12 0 20.5 -9t8.5 -20v-956q0 -218 -131 -347.5t-348 -129.5q-215 0 -346 129.5t-131 347.5zM362 1629q-1 15 11 24l264 213q10 9 25 9.5 t24 -5.5l111 -64q14 -8 14.5 -24t-14.5 -25l-299 -194q-24 -14 -47 -2l-76 45q-12 8 -13 23z" />
<glyph unicode="&#xdb;" horiz-adv-x="1173" d="M109 461v956q0 11 8 20t20 9h195q12 0 20 -9t8 -20v-956q0 -118 58.5 -182t167.5 -64t168 64t59 182v956q0 11 9.5 20t19.5 9h194q12 0 20.5 -9t8.5 -20v-956q0 -218 -131 -347.5t-348 -129.5q-215 0 -346 129.5t-131 347.5zM291.5 1641.5q-0.5 15.5 9.5 21.5l270 192 q7 5 17 5q8 0 16 -5l270 -192q10 -6 9.5 -21.5t-11.5 -23.5l-69 -43q-15 -11 -33 0l-170 104q-4 2 -12 2q-9 0 -13 -2l-169 -104q-18 -11 -33 0l-70 43q-11 8 -11.5 23.5z" />
<glyph unicode="&#xdc;" horiz-adv-x="1173" d="M109 461v956q0 11 8 20t20 9h195q12 0 20 -9t8 -20v-956q0 -118 58.5 -182t167.5 -64t168 64t59 182v956q0 11 9.5 20t19.5 9h194q12 0 20.5 -9t8.5 -20v-956q0 -218 -131 -347.5t-348 -129.5q-215 0 -346 129.5t-131 347.5zM301 1714q0 46 32.5 78.5t78.5 32.5 q45 0 76.5 -32.5t31.5 -78.5t-31 -78t-77 -32t-78.5 32t-32.5 78zM657 1714q0 46 32.5 78.5t78.5 32.5t77.5 -32.5t31.5 -78.5t-31.5 -78t-77.5 -32t-78.5 32t-32.5 78z" />
<glyph unicode="&#xdd;" horiz-adv-x="1110" d="M18 1407q-6 14 2 26.5t23 12.5h197q25 0 36 -25l261 -626q3 -9 12 -9h2q9 0 12 9l262 626q11 25 37 25h203q15 0 23 -12.5t2 -26.5l-402 -920q-12 -27 -12 -55v-395q0 -15 -11 -26t-26 -11h-178q-15 0 -26 11t-11 26v395q0 32 -10 55zM327 1629q-1 15 11 24l264 213 q10 9 25 9.5t24 -5.5l111 -64q14 -8 14.5 -24t-14.5 -25l-299 -194q-24 -14 -47 -2l-76 45q-12 8 -13 23z" />
<glyph unicode="&#xde;" horiz-adv-x="1058" d="M115 29v1388q0 12 7.5 20.5t20.5 8.5h193q12 0 20.5 -8.5t8.5 -20.5v-194q0 -10 6.5 -16.5t15.5 -6.5h246q158 0 266.5 -112.5t108.5 -276.5v-121q0 -177 -111.5 -287t-271.5 -110h-238q-9 0 -15.5 -6t-6.5 -15v-243q0 -12 -8.5 -20.5t-20.5 -8.5h-193q-13 0 -20.5 8.5 t-7.5 20.5zM365 520q0 -9 6.5 -14.5t15.5 -5.5h174q78 0 125 49t47 127v121q0 82 -48 129t-134 47h-164q-9 0 -15.5 -6t-6.5 -15v-432z" />
<glyph unicode="&#xdf;" horiz-adv-x="1015" d="M92 29v1063q0 149 109 243.5t278 94.5h29q170 0 275.5 -92.5t105.5 -239.5v-94q0 -125 -109 -213q-8 -6 -8 -15.5t8 -13.5q170 -86 170 -262v-142q0 -155 -105.5 -256.5t-266.5 -101.5h-99q-12 0 -20 8t-8 21v139q0 12 8 20.5t20 8.5h45q73 0 115.5 42.5t42.5 112.5v148 q0 63 -39.5 104t-112.5 41h-51q-12 0 -20 8t-8 21v123q0 12 8 20t20 8h23q59 0 96 36t37 100v112q0 64 -35.5 101.5t-97.5 37.5h-21q-62 0 -99.5 -39.5t-37.5 -101.5v-1042q0 -12 -8.5 -20.5t-20.5 -8.5h-194q-12 0 -20.5 8.5t-8.5 20.5z" />
<glyph unicode="&#xe0;" d="M66 377v258q0 179 95.5 285t241.5 106q75 0 127.5 -22t102.5 -68q6 -6 12 -4t8 8l13 51q7 23 30 23h160q12 0 20.5 -8.5t8.5 -20.5v-956q0 -12 -8.5 -20.5t-20.5 -8.5h-192q-12 0 -20.5 8.5t-8.5 20.5v39q0 9 -7.5 12t-15.5 -4q-88 -88 -213 -88q-151 0 -242 104.5 t-91 284.5zM281.5 1348.5q0.5 16.5 15.5 25.5l109 64q28 14 49 -4l264 -213q12 -9 11 -24t-13 -23l-74 -46q-26 -11 -49 2l-299 195q-14 7 -13.5 23.5zM309 385q0 -89 45 -139.5t123 -50.5q73 0 131 49q27 20 27 55v412q0 37 -27 57q-62 49 -133 49q-76 0 -121 -50t-45 -138 v-244z" />
<glyph unicode="&#xe1;" d="M66 377v258q0 179 95.5 285t241.5 106q75 0 127.5 -22t102.5 -68q6 -6 12 -4t8 8l13 51q7 23 30 23h160q12 0 20.5 -8.5t8.5 -20.5v-956q0 -12 -8.5 -20.5t-20.5 -8.5h-192q-12 0 -20.5 8.5t-8.5 20.5v39q0 9 -7.5 12t-15.5 -4q-88 -88 -213 -88q-151 0 -242 104.5 t-91 284.5zM298 1197q-1 15 11 24l264 213q10 9 25.5 9.5t24.5 -5.5l110 -64q14 -8 14.5 -24t-14.5 -25l-299 -195q-24 -14 -47 -2l-76 46q-12 8 -13 23zM309 385q0 -89 45 -139.5t123 -50.5q73 0 131 49q27 20 27 55v412q0 37 -27 57q-62 49 -133 49q-76 0 -121 -50 t-45 -138v-244z" />
<glyph unicode="&#xe2;" d="M66 377v258q0 179 95.5 285t241.5 106q75 0 127.5 -22t102.5 -68q6 -6 12 -4t8 8l13 51q7 23 30 23h160q12 0 20.5 -8.5t8.5 -20.5v-956q0 -12 -8.5 -20.5t-20.5 -8.5h-192q-12 0 -20.5 8.5t-8.5 20.5v39q0 9 -7.5 12t-15.5 -4q-88 -88 -213 -88q-151 0 -242 104.5 t-91 284.5zM215.5 1209.5q-0.5 15.5 9.5 21.5l271 192q6 4 16 4t16 -4l271 -192q10 -6 9.5 -21.5t-11.5 -23.5l-70 -43q-15 -11 -33 0l-170 104q-4 2 -12 2t-12 -2l-170 -104q-18 -11 -33 0l-70 43q-11 8 -11.5 23.5zM309 385q0 -89 45 -139.5t123 -50.5q73 0 131 49 q27 20 27 55v412q0 37 -27 57q-62 49 -133 49q-76 0 -121 -50t-45 -138v-244z" />
<glyph unicode="&#xe3;" d="M66 377v258q0 179 95.5 285t241.5 106q75 0 127.5 -22t102.5 -68q6 -6 12 -4t8 8l13 51q7 23 30 23h160q12 0 20.5 -8.5t8.5 -20.5v-956q0 -12 -8.5 -20.5t-20.5 -8.5h-192q-12 0 -20.5 8.5t-8.5 20.5v39q0 9 -7.5 12t-15.5 -4q-88 -88 -213 -88q-151 0 -242 104.5 t-91 284.5zM213 1278q-13 16 4 33q69 80 176 80q78 0 144 -41q3 -1 11.5 -5.5t11 -6t10.5 -5t11.5 -5t11 -4t13 -3t12.5 -1.5t15 -1q53 0 104 37q7 6 19.5 4t19.5 -12l45 -72q5 -7 4 -18t-8 -17q-74 -84 -184 -84q-33 0 -62 7t-42.5 13.5t-39.5 20.5q-56 31 -96 31 q-46 0 -96 -35q-22 -14 -39 10zM309 385q0 -89 45 -139.5t123 -50.5q73 0 131 49q27 20 27 55v412q0 37 -27 57q-62 49 -133 49q-76 0 -121 -50t-45 -138v-244z" />
<glyph unicode="&#xe4;" d="M66 377v258q0 179 95.5 285t241.5 106q75 0 127.5 -22t102.5 -68q6 -6 12 -4t8 8l13 51q7 23 30 23h160q12 0 20.5 -8.5t8.5 -20.5v-956q0 -12 -8.5 -20.5t-20.5 -8.5h-192q-12 0 -20.5 8.5t-8.5 20.5v39q0 9 -7.5 12t-15.5 -4q-88 -88 -213 -88q-151 0 -242 104.5 t-91 284.5zM233 1282q0 46 32.5 78.5t78.5 32.5t77.5 -32.5t31.5 -78.5t-31.5 -78.5t-77.5 -32.5t-78.5 32.5t-32.5 78.5zM309 385q0 -89 45 -139.5t123 -50.5q73 0 131 49q27 20 27 55v412q0 37 -27 57q-62 49 -133 49q-76 0 -121 -50t-45 -138v-244zM590 1282 q0 46 32 78.5t78 32.5t77.5 -32.5t31.5 -78.5t-31.5 -78.5t-77.5 -32.5t-78 32.5t-32 78.5z" />
<glyph unicode="&#xe5;" d="M66 377v258q0 179 95.5 285t241.5 106q75 0 127.5 -22t102.5 -68q6 -6 12 -4t8 8l13 51q7 23 30 23h160q12 0 20.5 -8.5t8.5 -20.5v-956q0 -12 -8.5 -20.5t-20.5 -8.5h-192q-12 0 -20.5 8.5t-8.5 20.5v39q0 9 -7.5 12t-15.5 -4q-88 -88 -213 -88q-151 0 -242 104.5 t-91 284.5zM309 385q0 -89 45 -139.5t123 -50.5q73 0 131 49q27 20 27 55v412q0 37 -27 57q-62 49 -133 49q-76 0 -121 -50t-45 -138v-244zM340 1282q0 77 52.5 126.5t129.5 49.5q78 0 130.5 -49.5t52.5 -126.5t-52.5 -126.5t-130.5 -49.5q-77 0 -129.5 49.5t-52.5 126.5z M438 1282q0 -41 22.5 -63.5t61.5 -22.5t61.5 22.5t22.5 63.5t-22.5 63.5t-61.5 22.5t-61.5 -22.5t-22.5 -63.5z" />
<glyph unicode="&#xe6;" horiz-adv-x="1454" d="M53 270v43q0 136 93.5 210.5t246.5 74.5h162q9 0 16 7t7 16v81q0 54 -37.5 84.5t-100.5 30.5q-103 0 -184 -61q-9 -6 -22 -3.5t-19 11.5l-82 129q-15 26 6 41q140 96 324 96q153 0 250 -69q14 -11 32 0q101 69 242 69q180 0 295 -108t115 -287v-170q0 -12 -9.5 -21.5 t-21.5 -9.5h-518q-9 0 -15 -6t-6 -14v-35q0 -90 51 -139.5t144 -49.5q75 0 133 46q20 16 41 2l131 -101q11 -9 11.5 -22.5t-9.5 -22.5q-120 -108 -307 -108q-91 0 -174 26q-18 6 -31 -4q-9 -6 -18 -6h-162q-23 0 -29 20l-14 56q-1 7 -9 8t-12 -4q-95 -92 -231 -92t-212.5 78 t-76.5 204zM299 301q0 -49 30.5 -77.5t88.5 -28.5q84 0 135 51q25 25 25 55v111q0 9 -7 15.5t-16 6.5h-117q-139 0 -139 -110v-23zM827 618q0 -22 21 -22h282q8 0 14.5 6t6.5 16v19q0 89 -41.5 137.5t-118.5 48.5q-79 0 -121.5 -47.5t-42.5 -138.5v-19z" />
<glyph unicode="&#xe7;" horiz-adv-x="753" d="M66 373v264q0 168 117 281.5t298 113.5q126 0 226 -59q11 -6 14.5 -18t-2.5 -23l-68 -131q-5 -10 -16.5 -14t-22.5 1q-53 35 -125 35q-81 0 -128.5 -52.5t-47.5 -135.5v-258q0 -83 47.5 -135t128.5 -52q60 0 125 35q12 6 23 1.5t16 -15.5l66 -131q11 -26 -12 -39 q-92 -56 -209 -59l-33 -58q-5 -9 -1.5 -17t15.5 -9q97 -6 153 -56t56 -131v-28q0 -93 -73 -151t-189 -58q-75 0 -160 41q-25 14 -12 41l20 45q5 9 17 12.5t24 -0.5q54 -23 101 -23q69 0 103 26.5t34 70.5v20q0 38 -33.5 62t-97.5 24q-50 0 -107 -24q-16 -10 -28 6l-9 12 q-10 14 -2 27l107 178q-143 29 -229 135t-86 246z" />
<glyph unicode="&#xe8;" horiz-adv-x="944" d="M66 379v256q0 176 114.5 285.5t290.5 109.5q180 0 295 -108t115 -287v-170q0 -12 -9.5 -21.5t-21.5 -9.5h-518q-9 0 -15 -6t-6 -14v-35q0 -90 51 -139.5t144 -49.5q75 0 133 46q20 16 41 2l131 -101q11 -9 11.5 -22.5t-9.5 -22.5q-120 -108 -307 -108q-196 0 -318 110 t-122 285zM283.5 1348.5q0.5 16.5 15.5 25.5l109 64q28 14 49 -4l264 -213q12 -9 11 -24t-13 -23l-74 -46q-26 -11 -49 2l-299 195q-14 7 -13.5 23.5zM311 618q0 -22 21 -22h282q8 0 14.5 6t6.5 16v19q0 89 -41.5 137.5t-118.5 48.5q-79 0 -121.5 -47.5t-42.5 -138.5v-19z " />
<glyph unicode="&#xe9;" horiz-adv-x="944" d="M66 379v256q0 176 114.5 285.5t290.5 109.5q180 0 295 -108t115 -287v-170q0 -12 -9.5 -21.5t-21.5 -9.5h-518q-9 0 -15 -6t-6 -14v-35q0 -90 51 -139.5t144 -49.5q75 0 133 46q20 16 41 2l131 -101q11 -9 11.5 -22.5t-9.5 -22.5q-120 -108 -307 -108q-196 0 -318 110 t-122 285zM265.5 1197q-1.5 15 10.5 24l265 213q10 9 25 9.5t24 -5.5l110 -64q14 -8 14.5 -24t-14.5 -25l-299 -195q-24 -14 -47 -2l-75 46q-12 8 -13.5 23zM311 618q0 -22 21 -22h282q8 0 14.5 6t6.5 16v19q0 89 -41.5 137.5t-118.5 48.5q-79 0 -121.5 -47.5t-42.5 -138.5 v-19z" />
<glyph unicode="&#xea;" horiz-adv-x="944" d="M66 379v256q0 176 114.5 285.5t290.5 109.5q180 0 295 -108t115 -287v-170q0 -12 -9.5 -21.5t-21.5 -9.5h-518q-9 0 -15 -6t-6 -14v-35q0 -90 51 -139.5t144 -49.5q75 0 133 46q20 16 41 2l131 -101q11 -9 11.5 -22.5t-9.5 -22.5q-120 -108 -307 -108q-196 0 -318 110 t-122 285zM195.5 1209.5q-0.5 15.5 9.5 21.5l270 192q6 4 17 4q10 0 16 -4l270 -192q10 -6 9.5 -21.5t-11.5 -23.5l-69 -43q-15 -11 -33 0l-170 104q-4 2 -12 2q-9 0 -13 -2l-170 -104q-18 -11 -33 0l-69 43q-11 8 -11.5 23.5zM311 618q0 -22 21 -22h282q8 0 14.5 6t6.5 16 v19q0 89 -41.5 137.5t-118.5 48.5q-79 0 -121.5 -47.5t-42.5 -138.5v-19z" />
<glyph unicode="&#xeb;" horiz-adv-x="944" d="M66 379v256q0 176 114.5 285.5t290.5 109.5q180 0 295 -108t115 -287v-170q0 -12 -9.5 -21.5t-21.5 -9.5h-518q-9 0 -15 -6t-6 -14v-35q0 -90 51 -139.5t144 -49.5q75 0 133 46q20 16 41 2l131 -101q11 -9 11.5 -22.5t-9.5 -22.5q-120 -108 -307 -108q-196 0 -318 110 t-122 285zM203 1282q0 46 32 78.5t78 32.5t77.5 -32.5t31.5 -78.5t-31.5 -78.5t-77.5 -32.5t-78 32.5t-32 78.5zM311 618q0 -22 21 -22h282q8 0 14.5 6t6.5 16v19q0 89 -41.5 137.5t-118.5 48.5q-79 0 -121.5 -47.5t-42.5 -138.5v-19zM559 1282q0 46 32.5 78.5t78.5 32.5 q45 0 76.5 -32.5t31.5 -78.5t-31.5 -78.5t-76.5 -32.5q-46 0 -78.5 32.5t-32.5 78.5z" />
<glyph unicode="&#xec;" horiz-adv-x="436" d="M-7.5 1348.5q0.5 16.5 15.5 25.5l109 64q28 14 49 -4l264 -213q12 -9 11 -24t-13 -23l-74 -46q-26 -11 -49 2l-299 195q-14 7 -13.5 23.5zM92 29v956q0 12 9 20.5t20 8.5h192q13 0 22 -8.5t9 -20.5v-956q0 -12 -9 -20.5t-22 -8.5h-190q-12 0 -21.5 8.5t-9.5 20.5z" />
<glyph unicode="&#xed;" horiz-adv-x="436" d="M-7 1197q-1 15 11 24l264 213q10 9 25 9.5t24 -5.5l111 -64q14 -8 14.5 -24t-14.5 -25l-299 -195q-24 -14 -47 -2l-76 46q-12 8 -13 23zM92 29v956q0 12 9 20.5t20 8.5h192q13 0 22 -8.5t9 -20.5v-956q0 -12 -9 -20.5t-22 -8.5h-190q-12 0 -21.5 8.5t-9.5 20.5z" />
<glyph unicode="&#xee;" horiz-adv-x="436" d="M-77.5 1209.5q-0.5 15.5 9.5 21.5l271 192q6 4 16 4q11 0 17 -4l270 -192q10 -6 9.5 -21.5t-11.5 -23.5l-70 -43q-15 -11 -33 0l-170 104q-4 2 -12 2t-12 -2l-170 -104q-18 -11 -33 0l-70 43q-11 8 -11.5 23.5zM94 29v956q0 12 9 20.5t20 8.5h192q13 0 22 -8.5t9 -20.5 v-956q0 -12 -9 -20.5t-22 -8.5h-190q-12 0 -21.5 8.5t-9.5 20.5z" />
<glyph unicode="&#xef;" horiz-adv-x="436" d="M-70 1282q0 46 32.5 78.5t78.5 32.5t77.5 -32.5t31.5 -78.5t-31.5 -78.5t-77.5 -32.5t-78.5 32.5t-32.5 78.5zM92 29v956q0 12 9 20.5t20 8.5h192q13 0 22 -8.5t9 -20.5v-956q0 -12 -9 -20.5t-22 -8.5h-190q-12 0 -21.5 8.5t-9.5 20.5zM287 1282q0 46 32 78.5t78 32.5 t77.5 -32.5t31.5 -78.5t-31.5 -78.5t-77.5 -32.5t-78 32.5t-32 78.5z" />
<glyph unicode="&#xf0;" d="M66 381v256q0 125 52 216t132.5 134t177.5 43q113 0 186 -61q6 -5 13 -2t4 12q-30 95 -99 170q-17 17 -40 6l-101 -47q-12 -5 -24.5 -0.5t-16.5 14.5l-37 78q-6 12 -1 24t16 17l45 23q7 3 7.5 9.5t-5.5 10.5q-36 26 -99 59q-13 6 -16.5 21t6.5 27l86 112q17 21 43 10 q111 -60 193 -129q19 -15 41 -4l94 45q12 6 23 1.5t16 -15.5l39 -80q10 -24 -15 -39l-55 -24q-19 -10 -6 -27q94 -119 141 -253t47 -349v-258q0 -172 -120 -284.5t-304 -112.5q-182 0 -302.5 112t-120.5 285zM311 381q0 -87 48 -137.5t130 -50.5t130.5 50.5t48.5 137.5v256 q0 85 -48 135.5t-131 50.5q-82 0 -130 -49.5t-48 -136.5v-256z" />
<glyph unicode="&#xf1;" horiz-adv-x="970" d="M92 29v956q0 12 9.5 20.5t21.5 8.5h162q22 0 28 -19l13 -55q2 -6 9 -8t13 4q103 90 236 90q144 0 222.5 -90.5t78.5 -261.5v-645q0 -12 -8.5 -20.5t-20.5 -8.5h-192q-12 0 -20.5 8.5t-8.5 20.5v639q0 73 -36 107t-97 34q-80 0 -133 -47q-25 -21 -25 -53v-680 q0 -12 -8.5 -20.5t-20.5 -8.5h-192q-12 0 -21.5 8.5t-9.5 20.5zM201 1278q-13 16 4 33q69 80 176 80q77 0 143 -41l10 -5t10 -5.5t9.5 -5t10.5 -4.5t9.5 -3.5t11 -3t11 -2t12.5 -2t13 -0.5q53 0 104 37q7 6 19.5 4t19.5 -12l45 -72q5 -7 4 -18t-8 -17q-74 -84 -184 -84 q-33 0 -62 7t-42.5 13.5t-39.5 20.5q-56 31 -96 31q-46 0 -96 -35q-22 -14 -39 10z" />
<glyph unicode="&#xf2;" horiz-adv-x="974" d="M66 377v260q0 171 119.5 282t301.5 111t303 -111t121 -282v-260q0 -170 -121 -281.5t-303 -111.5t-301.5 111.5t-119.5 281.5zM265.5 1348.5q0.5 16.5 15.5 25.5l108 64q28 14 49 -4l264 -213q12 -9 11 -24t-13 -23l-73 -46q-26 -11 -49 2l-299 195q-14 7 -13.5 23.5z M311 377q0 -86 47 -136.5t129 -50.5t130.5 50.5t48.5 136.5v260q0 86 -48.5 136t-130.5 50t-129 -50t-47 -136v-260z" />
<glyph unicode="&#xf3;" horiz-adv-x="974" d="M66 377v260q0 171 119.5 282t301.5 111t303 -111t121 -282v-260q0 -170 -121 -281.5t-303 -111.5t-301.5 111.5t-119.5 281.5zM261 1197q-1 15 11 24l265 213q10 9 25 9.5t24 -5.5l110 -64q14 -8 14.5 -24t-14.5 -25l-299 -195q-24 -14 -47 -2l-76 46q-12 8 -13 23z M311 377q0 -86 47 -136.5t129 -50.5t130.5 50.5t48.5 136.5v260q0 86 -48.5 136t-130.5 50t-129 -50t-47 -136v-260z" />
<glyph unicode="&#xf4;" horiz-adv-x="974" d="M66 377v260q0 171 119.5 282t301.5 111t303 -111t121 -282v-260q0 -170 -121 -281.5t-303 -111.5t-301.5 111.5t-119.5 281.5zM191.5 1209.5q-0.5 15.5 9.5 21.5l270 192q6 4 16 4q11 0 17 -4l270 -192q10 -6 9.5 -21.5t-11.5 -23.5l-70 -43q-14 -11 -32 0l-170 104 q-4 2 -13 2q-8 0 -12 -2l-170 -104q-18 -11 -33 0l-69 43q-11 8 -11.5 23.5zM311 377q0 -86 47 -136.5t129 -50.5t130.5 50.5t48.5 136.5v260q0 86 -48.5 136t-130.5 50t-129 -50t-47 -136v-260z" />
<glyph unicode="&#xf5;" horiz-adv-x="974" d="M66 377v260q0 171 119.5 282t301.5 111t303 -111t121 -282v-260q0 -170 -121 -281.5t-303 -111.5t-301.5 111.5t-119.5 281.5zM184 1278q-13 16 4 33q69 80 177 80q77 0 143 -41q3 -1 11.5 -5.5t11 -6t10.5 -5t11.5 -5t11 -4t13 -3t12.5 -1.5t15 -1q54 0 105 37 q7 6 19.5 4t19.5 -12l45 -72q5 -7 3.5 -18t-8.5 -17q-74 -84 -184 -84q-33 0 -61.5 7t-41.5 13.5t-40 20.5q-56 31 -96 31q-47 0 -97 -35q-22 -14 -39 10zM311 377q0 -86 47 -136.5t129 -50.5t130.5 50.5t48.5 136.5v260q0 86 -48.5 136t-130.5 50t-129 -50t-47 -136v-260z " />
<glyph unicode="&#xf6;" horiz-adv-x="974" d="M66 377v260q0 171 119.5 282t301.5 111t303 -111t121 -282v-260q0 -170 -121 -281.5t-303 -111.5t-301.5 111.5t-119.5 281.5zM201 1282q0 46 32 78.5t78 32.5t77.5 -32.5t31.5 -78.5t-31.5 -78.5t-77.5 -32.5t-78 32.5t-32 78.5zM311 377q0 -86 47 -136.5t129 -50.5 t130.5 50.5t48.5 136.5v260q0 86 -48.5 136t-130.5 50t-129 -50t-47 -136v-260zM557 1282q0 46 32.5 78.5t78.5 32.5q45 0 76.5 -32.5t31.5 -78.5t-31.5 -78.5t-76.5 -32.5q-46 0 -78.5 32.5t-32.5 78.5z" />
<glyph unicode="&#xf7;" horiz-adv-x="1173" d="M102 664v120q0 11 9 20t22 9h909q10 0 19.5 -9.5t9.5 -19.5v-122q0 -10 -9.5 -19.5t-19.5 -9.5h-909q-13 0 -22 9.5t-9 21.5zM467 383q0 50 35 84.5t86 34.5q50 0 84.5 -35t34.5 -84q0 -51 -34.5 -86t-84.5 -35q-51 0 -86 35t-35 86zM467 1061q0 51 35 86t86 35 q50 0 84.5 -35t34.5 -86q0 -49 -34.5 -84t-84.5 -35q-51 0 -86 34.5t-35 84.5z" />
<glyph unicode="&#xf8;" horiz-adv-x="974" d="M66 377v260q0 171 119.5 282t301.5 111q79 0 140 -20l32 77q13 29 43 29h78q17 0 26 -12t3 -27l-55 -129q74 -54 115.5 -134.5t41.5 -176.5v-260q0 -170 -121 -281.5t-303 -111.5q-67 0 -129 16l-30 -74q-12 -28 -43 -28h-78q-18 0 -26.5 12t-2.5 27l51 122 q-77 53 -120 135.5t-43 182.5zM311 377q0 -49 15 -86l219 524q-21 8 -58 8q-82 0 -129 -50t-47 -136v-260zM440 195q35 -5 47 -5q82 0 130.5 50.5t48.5 136.5v260q0 30 -11 72z" />
<glyph unicode="&#xf9;" horiz-adv-x="962" d="M84 342v643q0 12 9.5 20.5t21.5 8.5h192q12 0 20.5 -8.5t8.5 -20.5v-639q0 -141 131 -141q77 0 127 47q24 21 24 53v680q0 12 9 20.5t20 8.5h193q13 0 21.5 -8.5t8.5 -20.5v-956q0 -12 -8.5 -20.5t-21.5 -8.5h-162q-21 0 -27 18l-14 56q-2 6 -9 8t-12 -4 q-100 -92 -233 -92q-142 0 -220.5 92t-78.5 264zM258.5 1348.5q0.5 16.5 15.5 25.5l109 64q28 14 49 -4l264 -213q12 -9 11 -24t-13 -23l-73 -46q-27 -11 -50 2l-299 195q-14 7 -13.5 23.5z" />
<glyph unicode="&#xfa;" horiz-adv-x="962" d="M84 342v643q0 12 9.5 20.5t21.5 8.5h192q12 0 20.5 -8.5t8.5 -20.5v-639q0 -141 131 -141q77 0 127 47q24 21 24 53v680q0 12 9 20.5t20 8.5h193q13 0 21.5 -8.5t8.5 -20.5v-956q0 -12 -8.5 -20.5t-21.5 -8.5h-162q-21 0 -27 18l-14 56q-2 6 -9 8t-12 -4 q-100 -92 -233 -92q-142 0 -220.5 92t-78.5 264zM257 1197q-1 15 11 24l264 213q10 9 25.5 9.5t24.5 -5.5l110 -64q14 -8 14.5 -24t-14.5 -25l-299 -195q-24 -14 -47 -2l-76 46q-12 8 -13 23z" />
<glyph unicode="&#xfb;" horiz-adv-x="962" d="M84 342v643q0 12 9.5 20.5t21.5 8.5h192q12 0 20.5 -8.5t8.5 -20.5v-639q0 -141 131 -141q77 0 127 47q24 21 24 53v680q0 12 9 20.5t20 8.5h193q13 0 21.5 -8.5t8.5 -20.5v-956q0 -12 -8.5 -20.5t-21.5 -8.5h-162q-21 0 -27 18l-14 56q-2 6 -9 8t-12 -4 q-100 -92 -233 -92q-142 0 -220.5 92t-78.5 264zM187.5 1209.5q-0.5 15.5 9.5 21.5l270 192q6 4 16 4q11 0 17 -4l270 -192q10 -6 9.5 -21.5t-11.5 -23.5l-70 -43q-14 -11 -32 0l-170 104q-4 2 -13 2q-8 0 -12 -2l-170 -104q-18 -11 -33 0l-69 43q-11 8 -11.5 23.5z" />
<glyph unicode="&#xfc;" horiz-adv-x="962" d="M84 342v643q0 12 9.5 20.5t21.5 8.5h192q12 0 20.5 -8.5t8.5 -20.5v-639q0 -141 131 -141q77 0 127 47q24 21 24 53v680q0 12 9 20.5t20 8.5h193q13 0 21.5 -8.5t8.5 -20.5v-956q0 -12 -8.5 -20.5t-21.5 -8.5h-162q-21 0 -27 18l-14 56q-2 6 -9 8t-12 -4 q-100 -92 -233 -92q-142 0 -220.5 92t-78.5 264zM195 1282q0 46 32 78.5t78 32.5t77.5 -32.5t31.5 -78.5t-31.5 -78.5t-77.5 -32.5t-78 32.5t-32 78.5zM551 1282q0 46 32.5 78.5t78.5 32.5q45 0 76.5 -32.5t31.5 -78.5t-31.5 -78.5t-76.5 -32.5q-46 0 -78.5 32.5t-32.5 78.5 z" />
<glyph unicode="&#xfd;" horiz-adv-x="927" d="M20 977q-5 13 3 25t22 12h186q25 0 37 -25l187 -581q3 -9 12 -9t12 9l187 581q9 25 34 25h183q14 0 21 -11t3 -24l-465 -1387q-3 -12 -13.5 -19t-22.5 -7h-166q-12 0 -20.5 12t-4.5 25l133 399q8 22 0 45zM235 1197q-1 15 11 24l264 213q10 9 25 9.5t24 -5.5l111 -64 q14 -8 14.5 -24t-14.5 -25l-299 -195q-24 -14 -47 -2l-76 46q-12 8 -13 23z" />
<glyph unicode="&#xfe;" horiz-adv-x="980" d="M92 -406v1823q0 12 9.5 20.5t21.5 8.5h192q12 0 20.5 -8.5t8.5 -20.5v-463q0 -8 7.5 -11t13.5 3q88 82 206 82q146 0 244 -106t98 -285v-262q0 -183 -96 -286t-244 -103q-121 0 -208 80q-6 6 -13.5 2.5t-7.5 -11.5v-463q0 -12 -9 -20t-22 -8h-192q-11 0 -20 8t-9 20z M344 297q0 -37 27 -57q56 -47 129 -47q78 0 124 50.5t46 139.5v248q0 88 -46 138t-122 50q-75 0 -131 -47q-27 -21 -27 -59v-416z" />
<glyph unicode="&#xff;" horiz-adv-x="927" d="M20 977q-5 13 3 25t22 12h186q25 0 37 -25l187 -581q3 -9 12 -9t12 9l187 581q9 25 34 25h183q14 0 21 -11t3 -24l-465 -1387q-3 -12 -13.5 -19t-22.5 -7h-166q-12 0 -20.5 12t-4.5 25l133 399q8 22 0 45zM170 1282q0 46 32.5 78.5t78.5 32.5q45 0 76.5 -32.5t31.5 -78.5 t-31.5 -78.5t-76.5 -32.5q-46 0 -78.5 32.5t-32.5 78.5zM526 1282q0 46 32.5 78.5t78.5 32.5q45 0 76.5 -32.5t31.5 -78.5t-31.5 -78.5t-76.5 -32.5q-46 0 -78.5 32.5t-32.5 78.5z" />
<glyph unicode="&#x152;" horiz-adv-x="1710" d="M82 508v432q0 235 137 378.5t365 143.5q182 0 288 -106q9 -7 19 -3t10 15v49q0 11 8.5 20t20.5 9h688q12 0 21.5 -9t9.5 -20v-168q0 -12 -9.5 -20t-21.5 -8h-471q-9 0 -15 -6.5t-6 -14.5v-358q0 -8 6 -13.5t15 -5.5h315q13 0 22 -9t9 -21v-148q0 -12 -9 -20.5t-22 -8.5 h-315q-9 0 -15 -6.5t-6 -15.5v-348q0 -9 6 -15t15 -6h471q12 0 21.5 -8.5t9.5 -19.5v-168q0 -12 -9.5 -20.5t-21.5 -8.5h-688q-12 0 -20.5 8.5t-8.5 20.5v49q0 11 -10 15t-19 -3q-106 -106 -288 -106q-229 0 -365.5 143.5t-136.5 380.5zM338 508q0 -139 72.5 -216t195.5 -77 q122 0 194 77t72 216v432q0 137 -72 213t-194 76q-123 0 -195.5 -76t-72.5 -213v-432z" />
<glyph unicode="&#x153;" horiz-adv-x="1538" d="M66 377v260q0 171 119.5 282t301.5 111q159 0 281 -94q17 -13 33 0q112 94 270 94q180 0 295 -108t115 -287v-170q0 -12 -9.5 -21.5t-21.5 -9.5h-518q-9 0 -15 -6t-6 -14v-35q0 -90 51 -139.5t144 -49.5q75 0 133 46q20 16 41 2l131 -101q11 -9 11.5 -22.5t-9.5 -22.5 q-120 -108 -307 -108q-181 0 -301 96q-17 14 -35 0q-116 -96 -283 -96q-182 0 -301.5 111.5t-119.5 281.5zM311 377q0 -86 47 -136.5t129 -50.5t130.5 50.5t48.5 136.5v260q0 86 -48.5 136t-130.5 50t-129 -50t-47 -136v-260zM911 618q0 -22 21 -22h282q8 0 14.5 6t6.5 16 v19q0 89 -41.5 137.5t-118.5 48.5q-79 0 -121.5 -47.5t-42.5 -138.5v-19z" />
<glyph unicode="&#x178;" horiz-adv-x="1110" d="M18 1407q-6 14 2 26.5t23 12.5h197q25 0 36 -25l261 -626q3 -9 12 -9h2q9 0 12 9l262 626q11 25 37 25h203q15 0 23 -12.5t2 -26.5l-402 -920q-12 -27 -12 -55v-395q0 -15 -11 -26t-26 -11h-178q-15 0 -26 11t-11 26v395q0 32 -10 55zM262 1714q0 46 32.5 78.5t78.5 32.5 q45 0 76.5 -32.5t31.5 -78.5t-31 -78t-77 -32t-78.5 32t-32.5 78zM618 1714q0 46 32.5 78.5t78.5 32.5t77.5 -32.5t31.5 -78.5t-31.5 -78t-77.5 -32t-78.5 32t-32.5 78z" />
<glyph unicode="&#x2c6;" horiz-adv-x="819" d="M113.5 1209.5q-0.5 15.5 9.5 21.5l270 192q6 4 17 4q10 0 16 -4l270 -192q10 -6 9.5 -21.5t-11.5 -23.5l-69 -43q-15 -11 -33 0l-170 104q-4 2 -12 2q-9 0 -13 -2l-170 -104q-18 -11 -32 0l-70 43q-11 8 -11.5 23.5z" />
<glyph unicode="&#x2dc;" horiz-adv-x="819" d="M106 1278q-12 16 5 33q69 80 176 80q77 0 143 -41q3 -1 11.5 -5.5t11 -6t10.5 -5t11.5 -5t11 -4t13 -3t12.5 -1.5t15 -1q54 0 105 37q7 6 19.5 4t19.5 -12l45 -72q5 -7 4 -18t-8 -17q-74 -84 -185 -84q-33 0 -61.5 7t-41.5 13.5t-40 20.5q-56 31 -96 31q-47 0 -97 -35 q-21 -14 -38 10z" />
<glyph unicode="&#x2000;" horiz-adv-x="945" />
<glyph unicode="&#x2001;" horiz-adv-x="1890" />
<glyph unicode="&#x2002;" horiz-adv-x="945" />
<glyph unicode="&#x2003;" horiz-adv-x="1890" />
<glyph unicode="&#x2004;" horiz-adv-x="630" />
<glyph unicode="&#x2005;" horiz-adv-x="472" />
<glyph unicode="&#x2006;" horiz-adv-x="315" />
<glyph unicode="&#x2007;" horiz-adv-x="315" />
<glyph unicode="&#x2008;" horiz-adv-x="236" />
<glyph unicode="&#x2009;" horiz-adv-x="378" />
<glyph unicode="&#x200a;" horiz-adv-x="105" />
<glyph unicode="&#x2010;" horiz-adv-x="659" d="M76 444v131q0 11 9 20t19 9h449q12 0 21.5 -9t9.5 -20v-131q0 -11 -9.5 -19.5t-21.5 -8.5h-449q-10 0 -19 9t-9 19z" />
<glyph unicode="&#x2011;" horiz-adv-x="659" d="M76 444v131q0 11 9 20t19 9h449q12 0 21.5 -9t9.5 -20v-131q0 -11 -9.5 -19.5t-21.5 -8.5h-449q-10 0 -19 9t-9 19z" />
<glyph unicode="&#x2012;" horiz-adv-x="659" d="M76 444v131q0 11 9 20t19 9h449q12 0 21.5 -9t9.5 -20v-131q0 -11 -9.5 -19.5t-21.5 -8.5h-449q-10 0 -19 9t-9 19z" />
<glyph unicode="&#x2013;" horiz-adv-x="835" d="M76 444v131q0 11 9 20t19 9h625q12 0 21.5 -9t9.5 -20v-131q0 -11 -9.5 -19.5t-21.5 -8.5h-625q-10 0 -19 9t-9 19z" />
<glyph unicode="&#x2014;" horiz-adv-x="1411" d="M41 444v131q0 11 9.5 20t19.5 9h1269q12 0 21.5 -9t9.5 -20v-131q0 -11 -9.5 -19.5t-21.5 -8.5h-1269q-11 0 -20 9t-9 19z" />
<glyph unicode="&#x2018;" horiz-adv-x="393" d="M82 1167q0 76 48.5 158.5t123.5 147.5q21 21 47 12l18 -6q11 -5 14 -17t-5 -24q-52 -66 -52 -113t25 -78q29 -36 29 -80q0 -51 -35.5 -87t-89.5 -36q-53 0 -88 36t-35 87z" />
<glyph unicode="&#x2019;" horiz-adv-x="393" d="M90 1041.5q-3 12.5 4 23.5q51 65 51 113q0 42 -24 77q-27 37 -27 80q0 51 34.5 86t88.5 35q53 0 88 -35.5t35 -85.5q0 -76 -48 -157.5t-122 -147.5q-10 -10 -25 -13t-22 1l-21 6q-9 5 -12 17.5z" />
<glyph unicode="&#x201a;" horiz-adv-x="409" d="M65 -173q-3 12 5 23q53 71 53 115q0 43 -27 78q-28 39 -28 78q0 52 35 87.5t90 35.5q54 0 88 -35.5t34 -87.5q0 -75 -48.5 -157t-121.5 -146q-24 -21 -49 -13l-18 7q-10 3 -13 15z" />
<glyph unicode="&#x201c;" horiz-adv-x="724" d="M82 1167q0 76 48.5 158.5t123.5 147.5q21 21 47 12l18 -6q11 -5 14 -17t-5 -24q-52 -66 -52 -113t25 -78q29 -40 29 -80q0 -51 -35.5 -87t-89.5 -36q-53 0 -88 36t-35 87zM414 1167q0 76 48 158t122 148q10 10 25 13t22 -1l20 -6q9 -5 12 -17.5t-4 -23.5 q-51 -65 -51 -113q0 -47 25 -78q26 -36 26 -80q0 -51 -34 -87t-88 -36q-53 0 -88 36t-35 87z" />
<glyph unicode="&#x201d;" horiz-adv-x="724" d="M89 1041.5q-3 13.5 5 23.5q51 65 51 113q0 47 -24 77q-27 37 -27 80q0 51 34.5 86t88.5 35q53 0 88 -35.5t35 -85.5q0 -76 -48 -157.5t-122 -147.5q-10 -10 -25 -13t-22 1l-21 6q-10 4 -13 17.5zM420 1041.5q-3 12.5 6 23.5q51 65 51 113q0 47 -24 77q-29 36 -29 80 q0 51 35 86t90 35q53 0 88 -35.5t35 -85.5q0 -76 -48 -157.5t-122 -147.5q-23 -21 -49 -12l-19 6q-11 5 -14 17.5z" />
<glyph unicode="&#x201e;" horiz-adv-x="743" d="M65 -173q-3 12 5 23q53 71 53 115q0 43 -27 78q-28 39 -28 78q0 52 35 87.5t90 35.5q54 0 88 -35.5t34 -87.5q0 -75 -48.5 -157t-121.5 -146q-24 -21 -49 -13l-18 7q-10 3 -13 15zM396.5 -173q-3.5 12 4.5 23q54 73 54 115q0 39 -27 78q-29 40 -29 78q0 52 35 87.5 t90 35.5q54 0 89.5 -36t35.5 -87q0 -75 -49.5 -157t-124.5 -146q-10 -10 -25 -13.5t-22 0.5l-18 7q-10 3 -13.5 15z" />
<glyph unicode="&#x2022;" horiz-adv-x="862" d="M139 727q0 123 85 207t208 84q122 0 206.5 -84t84.5 -207q0 -122 -84.5 -205.5t-206.5 -83.5q-123 0 -208 83t-85 206z" />
<glyph unicode="&#x2026;" horiz-adv-x="1427" d="M84 131q0 60 41.5 100.5t101.5 40.5q59 0 100.5 -40.5t41.5 -100.5q0 -59 -41.5 -99t-100.5 -40q-60 0 -101.5 39.5t-41.5 99.5zM571 131q0 60 42 100.5t102 40.5q59 0 100 -40.5t41 -100.5q0 -59 -41 -99t-100 -40q-61 0 -102.5 39.5t-41.5 99.5zM1059 131 q0 60 41.5 100.5t101.5 40.5q59 0 100 -40.5t41 -100.5q0 -59 -41 -99t-100 -40q-60 0 -101.5 39.5t-41.5 99.5z" />
<glyph unicode="&#x202f;" horiz-adv-x="378" />
<glyph unicode="&#x2039;" horiz-adv-x="538" d="M82 512q0 11 6 20l227 318q10 16 29 16h94q13 0 16.5 -9t-1.5 -17l-191 -314q-4 -6 -4 -14t4 -14l191 -314q5 -8 1.5 -17t-16.5 -9h-94q-19 0 -29 16l-227 318q-6 9 -6 20z" />
<glyph unicode="&#x203a;" horiz-adv-x="538" d="M84 167q-4 9 2 17l190 314q5 8 5 14t-5 14l-190 314q-6 8 -2 17t16 9h97q18 0 28 -16l228 -318q6 -9 6 -20t-6 -20l-228 -318q-10 -16 -28 -16h-97q-12 0 -16 9z" />
<glyph unicode="&#x205f;" horiz-adv-x="472" />
<glyph unicode="&#x20ac;" horiz-adv-x="995" d="M10 551v63q0 11 8.5 20t20.5 9h51v160h-51q-12 0 -20.5 10t-8.5 21v63q0 12 8.5 20.5t20.5 8.5h51v14q0 235 146.5 378.5t379.5 143.5q171 0 310 -92q12 -6 14 -18.5t-4 -22.5l-92 -143q-6 -10 -18 -13.5t-23 3.5q-83 53 -182 53q-126 0 -200.5 -78t-74.5 -211v-14h391 q12 0 20.5 -8.5t8.5 -20.5v-63q0 -12 -8.5 -21.5t-20.5 -9.5h-391v-160h391q12 0 20.5 -9t8.5 -20v-65q0 -11 -8.5 -20t-20.5 -9h-391v-10q0 -139 73.5 -217t201.5 -78q99 0 184 57q24 15 41 -10l94 -145q6 -9 3 -21.5t-13 -19.5q-137 -92 -309 -92q-238 0 -384.5 142.5 t-146.5 383.5v10h-51q-12 0 -20.5 10t-8.5 21z" />
<glyph unicode="&#x2122;" horiz-adv-x="1699" d="M82 1290v135q0 21 20 21h574q6 0 12 -6t6 -15v-135q0 -8 -6 -14t-12 -6h-174q-13 0 -13 -15v-600q0 -9 -6 -14.5t-14 -5.5h-162q-18 0 -18 20v600q0 6 -5 10.5t-10 4.5h-172q-20 0 -20 20zM733 657l107 773q3 16 20 16h62q15 0 18 -10l211 -367q3 -6 6 -6t6 6l211 367 q7 10 19 10h61q16 0 19 -16l110 -773q1 -10 -5 -16t-15 -6h-154q-15 0 -18 16l-58 398q-1 6 -7 7.5t-9 -3.5l-143 -244q-5 -10 -17 -10q-11 0 -18 10l-142 244q-5 5 -10 3.5t-6 -7.5l-55 -398q-3 -16 -21 -16h-151q-8 0 -15 6.5t-6 15.5z" />
<glyph unicode="&#x25fc;" horiz-adv-x="1013" d="M0 0v1014h1014v-1014h-1014z" />
</font>
</defs>
</svg>
